<?xml version="1.0" encoding="iso-8859-1"?>
<!-- Generator: Adobe Illustrator 27.0.0, SVG Export Plug-In . SVG Version: 6.00 Build 0)  -->
<svg version="1.1" id="Layer_1" xmlns="http://www.w3.org/2000/svg" xmlns:xlink="http://www.w3.org/1999/xlink" x="0px" y="0px"
	 viewBox="0 0 2560 469.83" style="enable-background:new 0 0 2560 469.83;" xml:space="preserve">
<g>
	<linearGradient id="SVGID_1_" gradientUnits="userSpaceOnUse" x1="1664.0615" y1="32.0807" x2="1664.0615" y2="656.9609">
		<stop  offset="0" style="stop-color:#BDDBBE"/>
		<stop  offset="0.7849" style="stop-color:#F4F9F3"/>
		<stop  offset="1" style="stop-color:#F6FBF6"/>
	</linearGradient>
	<path style="fill-rule:evenodd;clip-rule:evenodd;fill:url(#SVGID_1_);" d="M1892.72,198.88l-0.13,22.96h-0.62
		c-0.22,0-0.43,0.04-0.63,0.13c-0.2,0.09-0.38,0.21-0.53,0.37c-0.15,0.16-0.26,0.35-0.33,0.55c-0.07,0.2-0.1,0.42-0.08,0.64
		c0,0.57,0.78,1.41,1.57,1.41h0.61l-0.26,28.16h-1.54c-0.24-0.01-0.48,0.03-0.71,0.12c-0.22,0.09-0.43,0.22-0.6,0.39
		c-0.17,0.17-0.31,0.37-0.4,0.6c-0.09,0.22-0.13,0.47-0.13,0.71c0,0.25,0.04,0.49,0.13,0.72c0.09,0.23,0.22,0.44,0.4,0.61
		c0.17,0.17,0.38,0.31,0.6,0.41c0.22,0.1,0.47,0.15,0.71,0.15h1.54v10.03h-6.87v-10.98h0.78c0.24-0.02,0.46-0.12,0.63-0.29
		c0.17-0.17,0.27-0.39,0.29-0.63c0-0.37-0.53-0.84-0.92-0.84h-0.92c0.4-1.35,1.05-4-0.12-6.66c-0.54-1.16-1.57-2.21-2.86-3.31
		c-1.1-1.01-2.32-1.86-3.64-2.55v-0.51c0.05-0.17,0.05-0.35,0-0.52c-0.04-0.17-0.13-0.33-0.25-0.46c-0.03-0.19-0.11-0.37-0.23-0.52
		c-0.11-0.16-0.26-0.28-0.43-0.37c-0.35-0.19-0.66-0.44-0.92-0.74v-0.72c0.26-0.08,0.26-0.08,0.26-0.28c0,0,0-0.31-0.12-0.4
		c-0.08-0.07-0.18-0.11-0.28-0.12v-0.44l0.14-0.2v-0.52c0-0.2-0.14-0.2-0.14-0.2v-0.6l-0.25-3.9h-0.26v4.51c-0.26,0-0.26,0-0.26,0.2
		v1.15c0,0.02,0,0.03-0.01,0.05c-0.01,0.01-0.02,0.03-0.03,0.04c-0.01,0.01-0.03,0.02-0.05,0.02c-0.02,0-0.03,0.01-0.05,0l-0.12,0.4
		c0,0.2,0,0.2,0.12,0.28c0.13,0,0.13,0.1,0.13,0.1v0.62c-0.24,0.26-0.5,0.51-0.77,0.73c-0.52,0.26-0.92,0.62-0.92,0.9
		c-0.1,0.31-0.14,0.65-0.12,0.98c0,0.31,0,0.46,0.12,0.51c-1.36,0.68-2.62,1.54-3.76,2.55c-1.17,1.1-2.34,2.15-2.74,3.31
		c-0.49,1.03-0.76,2.16-0.81,3.3c-0.04,1.14,0.14,2.28,0.54,3.35h-0.78c-0.2,0.03-0.39,0.13-0.53,0.29
		c-0.14,0.15-0.22,0.35-0.24,0.55c-0.01,0.22,0.06,0.44,0.2,0.61c0.14,0.17,0.34,0.28,0.56,0.31h0.64v10.98h-6.22v-6.49l0.14-0.4
		c-0.11-0.15-0.16-0.33-0.14-0.52v-3.14h1.16c0.35-0.03,0.67-0.18,0.92-0.43c0.24-0.25,0.38-0.59,0.39-0.94
		c0-0.66-0.66-1.16-1.31-1.16h-1.41c0.52-2.36,1.54-6.34-0.4-10.5c-0.77-1.75-2.46-3.65-4.3-5.42c-2.07-1.33-4.16-2.71-5.83-3.69
		c0.14-0.2,0.14-0.62,0.26-0.92c-0.01-0.55-0.1-1.1-0.26-1.63c-0.39-0.51-0.83-0.99-1.3-1.43c-0.51-0.46-1.16-0.72-1.31-1
		l-0.25-0.56c0.25-0.4,0.25-0.59,0.4-0.59v-0.56c-0.02-0.22-0.07-0.44-0.15-0.64h-0.25l-0.13-0.75c0.13-0.12,0.38-0.12,0.38-0.47
		v-0.64c-0.14-0.08-0.27-0.19-0.38-0.31v-0.78l-0.28-6.32h-0.25l-0.38,6.32v0.78c0,0.13-0.13,0.13-0.13,0.31
		c-0.26,0-0.26,0.26-0.26,0.34v0.31c0.11,0.18,0.24,0.34,0.4,0.47v0.75h-0.51v1.14c0.12,0.06,0.12,0.25,0.38,0.65v0.56
		c-0.59,0.3-1.15,0.63-1.7,1c-0.38,0.45-0.73,0.92-1.03,1.43c-0.26,0.47-0.26,1.12-0.26,1.63c0.01,0.24,0.05,0.48,0.12,0.72
		c-1.81,1.18-3.9,2.55-5.59,3.89c-2.06,1.77-3.78,3.67-4.55,5.42c-1.82,4.17-1.04,8.15-0.26,10.5h-1.18c-0.89,0-1.43,0.5-1.43,1.16
		c0,0.19,0.03,0.37,0.11,0.54c0.07,0.17,0.18,0.33,0.31,0.45c0.13,0.13,0.29,0.23,0.47,0.29c0.17,0.07,0.36,0.09,0.54,0.08h0.92
		v10.54h-6.61v-4.23h0.78c0.64,0,1.29-0.56,1.29-1.64c-0.03-0.33-0.18-0.63-0.42-0.86c-0.24-0.23-0.55-0.36-0.88-0.37h-0.92
		c1.56-3.23,4.95-13.54,0.4-24.15c-1.82-4-5.34-7.75-9.49-11.48c-4.16-3.12-8.46-5.85-12.09-8.09c0.29-0.65,0.43-1.36,0.4-2.07
		c0-0.92,0-2.03-0.54-3.13c-0.52-1.06-1.67-2.21-2.84-2.93c-0.88-0.89-1.88-1.64-2.98-2.23v-1.87c0.12-0.12,0.37-0.47,0.64-0.71
		c0-0.2,0.14-0.62,0.14-0.84c0-0.54-0.14-0.8-0.14-1.12c-0.25-0.3-0.57-0.55-0.92-0.72v-1.51c0.07-0.22,0.21-0.41,0.4-0.55
		c0.12-0.62,0.25-0.68,0.25-1.14c-0.08-0.25-0.2-0.49-0.37-0.69c0-0.42-0.28-0.42-0.39-0.46v-1.91l-0.66-13.01
		c1.18,0,2.46-0.06,3.64-0.78c1.04-0.73,1.92-1.65,2.6-2.73c-0.56,0.52-1.18,0.98-1.84,1.35c-2.72,1.65-6.61,0.72-8.42-2.3
		c-1.57-2.77-0.54-6.63,2.32-8.31c0.66-0.26,1.57-0.8,2.35-0.8c-1.32-0.18-2.74,0.36-3.78,0.87c-3.26,1.9-4.42,6.12-2.45,9.31
		c0.48,0.92,1.18,1.72,2.04,2.31c0.86,0.59,1.85,0.96,2.88,1.08l-0.64,13.01l-0.13,1.91c-0.14,0.03-0.26,0.03-0.4,0.46
		c-0.16,0.17-0.25,0.4-0.26,0.63c-0.03,0.42,0.06,0.84,0.26,1.2c0.13,0.06,0.13,0.24,0.4,0.55l-0.14,1.51
		c-0.12,0.14-0.51,0.38-0.63,0.72c-0.12,0.34-0.39,0.58-0.39,1.12c0.06,0.31,0.2,0.59,0.39,0.84c0.12,0.24,0.26,0.59,0.52,0.71v1.87
		c-1.1,0.58-2.11,1.34-2.98,2.23c-1.22,0.67-2.22,1.69-2.86,2.93c-0.44,0.98-0.66,2.05-0.65,3.13c0,1.04,0.4,1.41,0.52,2.07
		c-4.19,2.44-8.23,5.14-12.09,8.09c-4.16,3.73-7.8,7.49-9.62,11.48c-4.55,10.6-1.03,20.92,0.4,24.15h-0.66
		c-0.92,0-1.57,0.62-1.57,1.23c0,1.08,0.66,1.64,1.57,1.64h0.26v4.23h-6.24V256.3h1.03c0.35-0.02,0.68-0.18,0.92-0.43
		c0.24-0.25,0.39-0.59,0.4-0.94c0-0.66-0.66-1.16-1.32-1.16h-1.54c0.92-2.36,1.69-6.34-0.12-10.5c-0.92-1.75-2.61-3.65-4.57-5.42
		c-1.84-1.33-3.74-2.56-5.71-3.69c0.12-0.29,0.17-0.61,0.14-0.92c0.09-0.55,0.04-1.11-0.14-1.63c-0.4-0.31-0.78-0.97-1.31-1.43
		c-0.48-0.39-1-0.73-1.55-1v-0.56c0.12-0.4,0.12-0.59,0.26-0.59c0.13-0.06,0.13-0.18,0.13-0.56c-0.02-0.22-0.06-0.44-0.13-0.64
		h-0.26l-0.14-0.75c0.14-0.12,0.14-0.12,0.25-0.47v-0.64c-0.07-0.12-0.15-0.22-0.25-0.31v-0.78l-0.24-6.32h-0.41l-0.25,6.32v0.78
		c-0.1,0.09-0.19,0.19-0.26,0.31v0.64c0,0.36,0.12,0.36,0.26,0.47v0.75h-0.26c-0.13,0.19-0.22,0.41-0.26,0.64
		c0,0.38,0,0.5,0.12,0.56c0.11,0.19,0.2,0.38,0.25,0.59l-0.12,0.56c-0.26,0.28-0.92,0.54-1.31,1c-0.54,0.41-1.02,0.89-1.44,1.43
		c-0.17,0.53-0.2,1.09-0.12,1.63c-0.02,0.31,0.01,0.63,0.12,0.92c-1.96,1.13-3.87,2.36-5.7,3.69c-1.97,1.77-3.66,3.67-4.55,5.42
		c-1.7,4.17-0.79,8.15-0.25,10.5h-1.06c-0.77,0-1.41,0.5-1.41,1.16c0.01,0.37,0.17,0.71,0.43,0.97c0.26,0.26,0.61,0.4,0.98,0.4h0.92
		v10.54h-6.11v-10.98h0.49c0.12,0,0.24-0.02,0.36-0.07c0.11-0.04,0.22-0.11,0.3-0.2c0.09-0.09,0.16-0.19,0.2-0.3
		c0.05-0.11,0.07-0.24,0.07-0.36c-0.03-0.23-0.13-0.44-0.31-0.6c-0.17-0.16-0.4-0.24-0.63-0.24h-0.77c0.39-1.35,0.92-4-0.13-6.66
		c-0.65-1.16-1.84-2.21-2.86-3.31c-1.11-1.05-2.39-1.91-3.78-2.55v-1.49c-0.23-0.37-0.54-0.68-0.92-0.9
		c-0.24-0.28-0.63-0.4-0.77-0.74v-0.62l0.13-0.1v-0.68c-0.07-0.06-0.16-0.1-0.26-0.12l-0.12-0.44l0.25-0.2l0.13-0.36
		c0,0,0-0.15-0.13-0.15c0-0.2-0.12-0.2-0.25-0.2v-0.6l-0.13-3.9h-0.14l-0.13,3.9v0.6c-0.25,0-0.25,0-0.25,0.2l-0.15,0.15
		c0,0,0.15,0,0.15,0.36l0.25,0.2l-0.25,0.44c0,0,0,0.12-0.15,0.12v0.62l0.15,0.18v0.62c-0.26,0.3-0.57,0.55-0.92,0.74
		c-0.3,0.26-0.56,0.56-0.77,0.9c-0.28,0.25-0.28,0.74-0.28,0.98c-0.01,0.1,0.01,0.21,0.06,0.3c0.05,0.09,0.13,0.17,0.22,0.21
		c-1.36,0.62-2.6,1.48-3.64,2.55c-1.31,1.1-2.46,2.15-3,3.31c-0.89,2.12-0.93,4.51-0.12,6.66h-0.92c-0.19,0.05-0.37,0.16-0.51,0.31
		c-0.13,0.15-0.23,0.33-0.27,0.53c0.01,0.22,0.09,0.43,0.23,0.59c0.14,0.17,0.33,0.28,0.54,0.33h0.78v10.98h-4.81v-21.04h1.94
		c0.63-0.02,1.22-0.28,1.66-0.73c0.44-0.45,0.68-1.05,0.69-1.68c-0.02-0.62-0.28-1.2-0.72-1.63c-0.44-0.43-1.02-0.68-1.63-0.7h-1.94
		l-0.12-35.38h0.64c1.03,0,2.09-0.89,2.09-1.99c-0.02-0.54-0.25-1.05-0.64-1.42c-0.39-0.37-0.91-0.57-1.45-0.56h-0.78l-0.12-28.92
		h0.9c0.92,0,1.83-0.66,1.83-1.66c-0.03-0.39-0.19-0.75-0.45-1.05c-0.26-0.29-0.6-0.49-0.98-0.56v-15.31h0.63
		c0.54,0,1.17-0.4,1.17-0.92c0-0.52-0.63-0.97-1.17-0.97h-1.03c0.65-1.58,1.31-4.57-0.12-7.5c-0.52-1.31-1.84-2.61-3.13-3.78
		c-1.29-1.18-2.74-2.19-4.3-2.99c0.12-0.08,0.12-0.2,0.12-0.54c0.03-0.33-0.01-0.66-0.12-0.97c-0.03-0.28-0.15-0.54-0.34-0.75
		c-0.18-0.21-0.43-0.36-0.69-0.43c-0.26-0.29-0.57-0.54-0.92-0.72v-0.71c0,0,0.26,0,0.26-0.1v-1c-0.13-0.03-0.26-0.05-0.4-0.06
		v-0.54c0.13,0,0.13-0.1,0.13-0.1c0.15-0.12,0.24-0.29,0.26-0.48l-0.26-0.18c0-0.02,0-0.04-0.01-0.05
		c-0.01-0.02-0.02-0.03-0.03-0.04c-0.01-0.01-0.03-0.02-0.04-0.03c-0.02-0.01-0.03-0.01-0.05-0.01v-0.58l-0.26-4.58
		c0-0.24,0-0.24-0.12-0.24l-0.25,4.82v0.58c-0.15,0-0.15,0-0.15,0.14c-0.14,0-0.26,0.18-0.26,0.18c0,0.26,0.13,0.26,0.13,0.48
		c0.14,0,0.14,0.1,0.14,0.1v0.54c-0.08,0.03-0.17,0.05-0.26,0.06v1c0,0.1,0.13,0.1,0.26,0.1v0.71c-0.4,0.14-0.66,0.48-1.03,0.72
		c-0.51,0.14-0.78,0.52-1.06,1.18c0,0.25-0.12,0.53-0.12,0.97c0.01,0.19,0.05,0.37,0.12,0.54c-1.47,0.81-2.81,1.82-4.01,2.99
		c-1.57,1.18-2.73,2.46-3.38,3.78c-1.29,2.93-0.66,5.92-0.13,7.5h-0.92c-0.12,0-0.24,0.03-0.36,0.08c-0.11,0.05-0.21,0.12-0.3,0.21
		c-0.08,0.09-0.15,0.2-0.19,0.31c-0.04,0.12-0.06,0.24-0.05,0.36c-0.01,0.12,0.01,0.24,0.06,0.35c0.04,0.11,0.11,0.22,0.19,0.3
		c0.08,0.09,0.18,0.15,0.29,0.2c0.11,0.05,0.23,0.07,0.35,0.07h0.78v15.31c-0.4,0.03-0.77,0.22-1.03,0.52
		c-0.26,0.3-0.4,0.69-0.38,1.09c0,1,0.77,1.66,1.8,1.66h0.92l-0.13,28.92h-0.78c-1.17,0-2.06,0.78-2.06,1.98
		c0,0.27,0.06,0.53,0.16,0.78c0.11,0.25,0.26,0.47,0.45,0.65c0.19,0.19,0.42,0.33,0.67,0.43c0.25,0.1,0.52,0.14,0.78,0.13h0.63
		l-0.12,35.38h-1.94c-1.32,0-2.49,1.03-2.49,2.33c0.01,0.65,0.28,1.27,0.75,1.72c0.47,0.45,1.09,0.7,1.74,0.69h1.94l-0.14,52.92
		c-1.27-1.2-2.62-2.31-4.05-3.32c-4.55-4.19-9.88-7.3-14.03-9.54c0.32-0.85,0.49-1.74,0.52-2.65c-0.03-1.22-0.25-2.43-0.64-3.58
		c-0.65-1.36-1.97-2.62-3.13-3.45c-1.11-0.97-2.34-1.81-3.64-2.5v-2.21c0.14-0.19,0.52-0.52,0.52-0.84
		c0.14-0.16,0.25-0.34,0.32-0.54c0.07-0.2,0.1-0.41,0.08-0.63c-0.01-0.49-0.15-0.97-0.4-1.4c-0.12-0.24-0.52-0.46-0.78-0.71v-1.96
		c0.18-0.16,0.31-0.36,0.4-0.57c0.1-0.12,0.17-0.26,0.21-0.41c0.04-0.15,0.06-0.3,0.04-0.46c0.05-0.41-0.04-0.82-0.26-1.17
		c-0.14-0.12-0.4-0.53-0.66-0.53v-1.95l-0.64-15.56c-0.14-0.22-0.14-0.46-0.39-0.46c-0.06,0-0.11,0.02-0.16,0.04
		c-0.05,0.02-0.1,0.06-0.13,0.1c-0.04,0.04-0.07,0.09-0.08,0.15c-0.02,0.05-0.03,0.11-0.02,0.17l-0.75,15.57l-0.14,1.95
		c-0.12,0-0.26,0.41-0.51,0.53c-0.12,0.52-0.26,0.57-0.26,1.17c0,0.27,0.14,0.58,0.14,0.86c0.37,0.31,0.37,0.46,0.52,0.58v1.95
		c-0.26,0.25-0.52,0.47-0.78,0.71c-0.22,0.43-0.32,0.91-0.28,1.4c0,0.47,0,0.96,0.28,1.17c0.05,0.18,0.12,0.34,0.23,0.48
		c0.11,0.14,0.25,0.26,0.4,0.36v2.21c-1.03,0.62-2.45,1.32-3.63,2.5c-1.29,0.83-2.6,2.09-3.1,3.45c-0.66,1.15-0.8,2.46-0.8,3.58
		c0.13,0.92,0.26,2.02,0.4,2.65c-4.15,2.25-9.25,5.36-13.92,9.54c-1.17,0.83-2.32,1.61-3.38,2.79h-1.03l-0.28-28.1h0.54
		c0.21,0.01,0.43-0.02,0.63-0.09c0.2-0.07,0.38-0.18,0.54-0.33c0.16-0.15,0.28-0.32,0.37-0.52c0.09-0.19,0.14-0.4,0.15-0.62
		c-0.01-0.45-0.19-0.88-0.5-1.2s-0.74-0.5-1.19-0.52h-0.54l-0.12-22.8h0.66c0.37,0,0.72-0.15,0.99-0.4
		c0.27-0.26,0.42-0.61,0.44-0.98c0-0.97-0.27-1.29-1.06-1.29v-6.95h0.79c0.27,0,0.66-0.25,0.66-0.87c-0.03-0.16-0.11-0.31-0.23-0.42
		c-0.12-0.11-0.27-0.18-0.43-0.2h-1.04c0.4-1.32,1.05-3.59-0.12-6.1c-0.7-1.13-1.58-2.13-2.61-2.96c-1.03-0.87-2.12-1.68-3.26-2.41
		c0.14,0,0.14-0.08,0.14-0.46c0.01-0.13-0.01-0.26-0.05-0.39c-0.05-0.12-0.11-0.24-0.21-0.33c-0.14-0.46-0.25-0.77-0.65-0.92
		c-0.38-0.26-0.52-0.46-0.9-0.57v-0.52c0,0,0.25,0,0.25-0.34c0,0,0.13,0,0.13-0.19c0,0-0.13,0-0.13-0.19l-0.25-0.4v-0.62l0.25-0.03
		c0-0.12-0.25-0.12-0.25-0.12v-0.74l-0.28-3.5c0-0.22,0-0.22-0.12-0.22v0.22l-0.15,3.5v0.38c-0.12,0-0.12,0-0.12,0.36
		c-0.13,0-0.13,0-0.13,0.12c0,0,0,0.03,0.13,0.03v0.62l-0.13,0.4l-0.12,0.19c0,0.19,0,0.19,0.12,0.19c0,0.34,0,0.34,0.13,0.34v0.52
		c-0.32,0.16-0.63,0.36-0.92,0.57c-0.17,0.1-0.31,0.24-0.43,0.39c-0.11,0.16-0.19,0.34-0.23,0.53c-0.13,0.22-0.22,0.46-0.26,0.72
		c0,0.38,0.12,0.46,0.26,0.46c-0.92,0.72-2.32,1.5-3.38,2.41c-0.99,0.87-1.87,1.86-2.6,2.96c-1.03,2.52-0.63,4.78,0,6.1h-0.89
		c-0.16,0.02-0.31,0.09-0.43,0.2c-0.12,0.11-0.2,0.26-0.22,0.42c0,0.62,0.39,0.87,0.65,0.87h0.63v6.95c-0.63,0-1.03,0.31-1.03,1.29
		c0,0.19,0.03,0.37,0.1,0.55c0.07,0.17,0.18,0.33,0.31,0.46c0.14,0.13,0.29,0.23,0.47,0.29c0.18,0.07,0.36,0.09,0.55,0.08h0.63
		l-0.12,22.8h-11.84l-0.25-70.09h2.6c1.94,0,3.5-1.69,3.5-3.38c0-1.95-1.56-3.33-3.5-3.33h-2.62l-0.4-50.43h1.03
		c1.57,0,2.88-1.12,2.88-2.81c0-0.38-0.08-0.75-0.22-1.1c-0.15-0.35-0.36-0.67-0.63-0.93c-0.27-0.27-0.58-0.48-0.93-0.62
		c-0.35-0.14-0.72-0.21-1.1-0.21h-1.03l-0.13-40.98h1.16c0.71-0.01,1.38-0.31,1.87-0.82c0.49-0.51,0.76-1.2,0.75-1.91
		c0-1.09-0.92-2.09-2.23-2.37v-8.13l0.26-0.28c0-0.16-0.26-0.36-0.26-0.72v-3.23h1.18c0.37-0.01,0.71-0.16,0.98-0.42
		c0.26-0.26,0.43-0.6,0.45-0.97c0-0.71-0.65-1.23-1.43-1.23h-1.44c0.78-2.15,1.57-6.52-0.14-10.69c-0.9-2.03-2.85-4.04-4.67-5.62
		c-1.85-1.49-3.85-2.78-5.96-3.85c0.11-0.38,0.15-0.78,0.12-1.17c0.12-0.31,0-0.9-0.12-1.42c-0.38-0.58-0.82-1.13-1.31-1.62
		c-0.52-0.34-1.04-0.62-1.57-1v-0.88c0.07-0.07,0.17-0.12,0.28-0.14c0.11-0.2,0.15-0.43,0.12-0.66c0-0.18-0.04-0.35-0.12-0.52
		c-0.14-0.14-0.28-0.14-0.28-0.28l-0.26-0.84c0.26-0.18,0.26-0.18,0.26-0.31c0.13,0,0.13-0.14,0.13-0.14c0-0.52,0-0.52-0.13-0.66
		c0-0.06,0-0.06-0.26-0.4v-0.63l-0.24-6.57l-0.15-0.14l-0.13,0.14l-0.25,6.57l-0.26,0.63c0,0.34,0,0.34-0.12,0.4
		c0,0.14-0.15,0.14-0.15,0.58c0,0,0,0.22,0.15,0.22c0.05,0.03,0.08,0.08,0.1,0.14c0.02,0.05,0.03,0.11,0.02,0.17v0.84
		c-0.12,0.14-0.27,0.14-0.27,0.28c-0.03,0.18-0.11,0.34-0.25,0.46c0,0.31,0.25,0.58,0.25,0.72c0.07,0.07,0.17,0.12,0.27,0.14v0.88
		c-0.52,0.4-1.04,0.66-1.57,1c-0.53,0.46-0.96,1.01-1.29,1.62c-0.19,0.45-0.28,0.93-0.26,1.42c-0.03,0.39,0.02,0.79,0.13,1.17
		c-1.69,0.86-3.78,2.3-5.87,3.85c-1.95,1.5-3.55,3.42-4.66,5.62c-1.84,4.17-0.92,8.53-0.15,10.69h-1.29
		c-0.17-0.01-0.34,0.01-0.49,0.07c-0.16,0.06-0.3,0.15-0.43,0.26c-0.12,0.12-0.22,0.26-0.28,0.41c-0.07,0.16-0.1,0.32-0.09,0.49
		c-0.01,0.35,0.13,0.69,0.37,0.95c0.24,0.26,0.57,0.41,0.92,0.43h1.03v12.35c-0.53,0.13-0.99,0.43-1.32,0.87s-0.5,0.96-0.49,1.51
		c0,1.5,1.04,2.73,2.35,2.73h1.43l-0.28,40.98h-1.15c-0.38,0-0.75,0.07-1.1,0.21c-0.35,0.14-0.67,0.35-0.93,0.62
		c-0.27,0.27-0.48,0.58-0.62,0.93c-0.14,0.35-0.21,0.72-0.21,1.1c-0.01,0.38,0.06,0.75,0.21,1.1c0.14,0.35,0.35,0.66,0.62,0.93
		c0.27,0.26,0.59,0.47,0.94,0.6c0.35,0.14,0.72,0.2,1.1,0.18h1.16l-0.25,50.45h-2.98c-0.59,0.01-1.17,0.16-1.69,0.44
		c-5.58-8-13-15.34-21.33-22.13c-11.43-9.65-24.3-17.6-34.71-23.52c0.66-1.63,0.92-3.78,1.06-6.14c0.26-2.61-0.26-5.86-1.57-9.1
		c-1.41-3.27-4.55-6.4-7.67-9.01c-3.11-2.21-6.49-4.11-8.97-5.6l-0.26-5.49c0.71-0.48,1.3-1.13,1.7-1.89
		c0.52-0.86,0.65-1.81,0.65-3.05c0-1.03-0.13-2.19-0.65-3.08c-0.66-0.84-1.29-1.63-2.09-2.07l-0.26-4.71
		c0.52-0.52,0.92-0.95,1.31-1.35c0.38-0.99,0.63-1.63,0.63-2.55c0-0.86-0.27-1.7-0.77-2.41c-0.34-0.66-0.89-1.19-1.56-1.51
		l-0.12-5.33l-1.57-37.35c3.37,0,7.02-0.98,10.26-2.59c3.4-2.15,6.11-4.96,7.67-8.37c-1.37,1.88-3.14,3.43-5.19,4.52
		c-8.33,4.92-19.24,2.07-24.08-6.27c-2.36-4.07-3.02-8.92-1.82-13.47c1.2-4.56,4.15-8.45,8.2-10.83c2.09-0.97,4.3-1.87,6.64-2.05
		c-3.63-0.34-7.55,0.71-10.93,2.58c-2.24,1.26-4.2,2.96-5.77,4.99c-1.57,2.03-2.73,4.36-3.39,6.84c-0.66,2.48-0.83,5.08-0.48,7.62
		c0.35,2.55,1.2,5,2.51,7.21c1.51,2.61,3.59,4.84,6.09,6.51c2.5,1.67,5.35,2.75,8.33,3.14l-1.84,37.54l-0.12,5.33
		c-0.66,0.28-1.06,0.8-1.45,1.51c-0.52,0.54-0.64,1.43-0.64,2.41c-0.01,0.88,0.16,1.75,0.52,2.55c0.35,0.49,0.74,0.94,1.18,1.35
		l-0.14,4.71c-0.81,0.53-1.47,1.24-1.94,2.07c-0.55,0.93-0.86,1.99-0.9,3.08c0.02,1.06,0.29,2.1,0.78,3.05
		c0.37,0.8,1.03,1.31,1.54,1.89l-0.25,5.49c-2.46,1.49-5.73,3.38-8.86,5.6c-3.24,2.61-6.22,5.74-7.67,9.01
		c-1.41,3.18-1.67,6.5-1.54,9.1c0.04,2.09,0.38,4.15,1.03,6.14c-10.52,5.92-23.4,13.87-34.83,23.52
		c-11.71,9.64-22.23,21.02-27.43,32.78c-11.84,27.1-4.82,53.75-0.4,65.72h-13.91v32.66c-1.29-1.09-2.46-2.46-3.89-3.62
		c-3.64-2.89-7.67-5.3-10.92-7.2c0.14-0.56,0.4-1.03,0.4-2.01c0-0.8,0-1.88-0.66-2.62c-0.25-1.23-1.29-2.06-2.34-2.78
		c-0.8-0.78-1.72-1.43-2.73-1.9v-1.69c0.12-0.13,0.26-0.58,0.52-0.66c0-0.52,0.14-0.57,0.14-0.83c0-0.52-0.14-0.6-0.4-1.12
		c-0.12-0.28-0.3-0.53-0.52-0.73v-1.28c0.12-0.16,0.26-0.52,0.37-0.52c0.11-0.22,0.16-0.47,0.15-0.72c0-0.34,0-0.65-0.26-0.65
		c0-0.52-0.26-0.52-0.4-0.52v-1.64l-0.64-12.22c0,0-0.11-0.25-0.24-0.25c-0.13,0-0.28,0.25-0.28,0.25l-0.49,12.19l-0.15,1.65
		c-0.12,0-0.26,0-0.4,0.52c-0.25,0-0.25,0.31-0.25,0.65c-0.02,0.25,0.03,0.5,0.13,0.72c0.12,0,0.25,0.36,0.52,0.52l-0.12,1.28
		c-0.28,0.22-0.53,0.68-0.66,0.74c-0.14,0.52-0.25,0.59-0.25,1.12c0,0.26,0.12,0.31,0.25,0.83c0.13,0.09,0.26,0.53,0.52,0.66
		l-0.13,1.69c-0.97,0.54-1.88,1.18-2.72,1.9c-1.04,0.72-1.95,1.54-2.46,2.78c-0.37,0.82-0.56,1.71-0.54,2.61
		c0.09,0.68,0.23,1.35,0.4,2.01c-0.92,0.62-2.21,1.12-3.24,1.89l-0.14-23.73h0.53c0.92,0,1.69-0.64,1.69-1.54
		c0-0.74-0.77-1.78-1.69-1.78h-0.53l-0.12-22.56h0.65c0.39-0.03,0.75-0.2,1.01-0.49c0.26-0.28,0.41-0.66,0.41-1.05
		c0-0.65-0.38-1.18-1.03-1.59v-6.55h0.65c0.24,0,0.64-0.62,0.64-1.12c0-0.26-0.4-0.46-0.64-0.46h-0.92c0.38-1.1,0.92-3.65-0.13-6.12
		c-0.53-1.18-1.56-2.15-2.61-3.08c-1.06-0.83-2.19-1.56-3.38-2.19c0.14-0.08,0.14-0.41,0.14-0.62c0.01-0.27-0.04-0.54-0.14-0.8
		c0-0.43-0.38-0.56-0.63-0.92c-0.33-0.19-0.64-0.41-0.92-0.66v-0.24c0-0.13,0.13-0.13,0.26-0.13v-0.5c0,0,0-0.09-0.13-0.09
		c0-0.34-0.13-0.34-0.13-0.34v-0.37v-0.31h0.13c0,0,0-0.34-0.13-0.34c0-0.24,0-0.24-0.13-0.24v-0.43l-0.12-3.58h-0.14l-0.12,3.58
		v0.46c-0.11,0-0.26,0-0.26,0.24v0.34l0.15,0.31v0.37c-0.15,0-0.15,0-0.28,0.34v0.58c0.13,0,0.13,0,0.28,0.14l-0.15,0.24
		c-0.18,0.3-0.45,0.54-0.77,0.66c-0.28,0.36-0.66,0.48-0.79,0.92v1.32c-0.92,0.63-2.21,1.35-3.38,2.27
		c-1.04,0.92-2.09,1.89-2.45,3.08c-1.03,2.46-0.64,5.02-0.13,6.12h-0.78c-0.26,0-0.64,0.2-0.64,0.46c0,0.52,0.38,1.12,0.64,1.12
		h0.65v6.55c-0.65,0.41-1.16,0.94-1.16,1.59c0.03,0.4,0.2,0.78,0.49,1.06c0.29,0.28,0.67,0.45,1.07,0.47h0.64l-0.15,22.56h-0.5
		c-0.92,0-1.69,1.04-1.69,1.78c0,0.9,0.76,1.54,1.69,1.54h0.5l-0.12,15.38c-2.34-4.03-6.24-8.27-10.53-11.58
		c-4.81-4.04-10.13-7.49-14.56-10.15c0.12-0.53,0.27-1.45,0.38-2.27c0.05-1.35-0.17-2.69-0.64-3.95c-0.71-1.56-1.84-2.89-3.26-3.85
		c-1.15-0.86-2.37-1.63-3.64-2.31l-0.25-2.31c0.25-0.06,0.52-0.52,0.77-0.98c0.19-0.3,0.33-0.63,0.39-0.98
		c0-0.53-0.19-1.05-0.52-1.47c-0.06-0.18-0.17-0.35-0.3-0.48c-0.13-0.14-0.3-0.24-0.48-0.31l-0.14-1.95
		c0.14-0.07,0.25-0.17,0.34-0.3c0.09-0.12,0.15-0.27,0.18-0.41c0.14-0.12,0.26-0.52,0.26-1.06c-0.02-0.31-0.11-0.62-0.26-0.9
		c-0.21-0.31-0.38-0.65-0.52-1l-0.26-1.79l-0.65-16.24c0-0.19-0.12-0.19-0.4-0.19c-0.12,0-0.38,0-0.38,0.19l-0.63,16.24l-0.14,1.79
		c-0.25,0.36-0.52,0.6-0.78,1c0,0.2-0.13,0.72-0.13,0.9c0.02,0.36,0.06,0.71,0.13,1.06c0.19,0.26,0.41,0.5,0.66,0.71l-0.13,1.95
		c-0.4,0.12-0.53,0.46-0.78,0.8c-0.25,0.34-0.39,0.9-0.39,1.47c0,0.37,0.15,0.72,0.39,0.98c0.12,0.46,0.26,0.92,0.52,0.98v2.31
		c-1.06,0.46-2.35,1.35-3.64,2.31c-1.43,0.99-2.74,2.31-3.38,3.85c-0.48,1.26-0.7,2.6-0.65,3.95c0.04,0.77,0.17,1.53,0.4,2.27
		c-3.92,2.34-8.73,5.35-13.15,8.99l-0.99,34.01c-0.55,0.23,0.59,0,0,0c-0.41,0.43,0.55-0.23,0,0c-0.22,0.55,0.41-0.43,0,0
		c0.01,0.59,0.22-0.55,0,0c0-2.65,2.49,0,0,0c0,2.11,2.09,0,0,0c-0.02-0.92,0.56,0.72,0,0s0.88,0.25,0,0c0-0.46,0,0.46,0,0
		c-0.38,0.39,0.55-0.02,0,0c-0.01,0.55,0.38-0.39,0,0c0.01-0.28,0.1,0.26,0,0s0.19,0.2,0,0s0.26,0.11,0,0s0.28-0.01,0,0
		c1.17-3.27,2.86,6.52,0,0c-1.29-3.21,2.98,2.49,0,0c1.02,2.04,3.2,1.73,0,0c-0.12,0.34,0.12-0.54,0,0c-0.01-0.85,0.33,0.78,0,0
		c-0.38-0.66,0.78,0.46,0,0c-0.79-0.53,0.64,0.65,0,0c-0.13,0.25,0.12-0.34,0,0c0,0.44,0.14-0.19,0,0c-0.13-0.13,0.13,0,0,0
		c-0.12,0.32,0.15-0.15,0,0c0.02,0.16,0.1-0.13,0,0c0.02-0.3,0.18,0.25,0,0c-0.01-0.07,0.05,0.04,0,0c-0.05-0.04,0.07,0,0,0
		c-0.08-0.06,0.1,0.01,0,0c-0.02,0,0.01-0.01,0,0c-0.01,0.01,0.01-0.01,0,0s0.01-0.01,0,0s0-0.02,0,0c-0.24,0,0.26-0.12,0,0
		c-0.1,0.27-0.01-0.29,0,0c-0.02-0.08-0.01,0.08,0,0c-0.05-0.06,0.02,0.08,0,0c-0.13-0.16,0,0.31,0,0c-0.26,0,0.15-0.13,0,0
		c-0.12-0.18,0,0.53,0,0c-0.39-0.34,0.15,0.25,0,0c-0.54,0.65,0.78-0.53,0,0c-0.78,0.46,0.41-0.66,0,0c-0.28,0.79-0.03-0.84,0,0
		c-0.2-0.48-0.03,0.52,0,0c-2.76,1.41,3-2.47,0,0c-3.13,2.49,1.44-3.21,0,0c-2.86,6.52-1.03-3.27,0,0c-0.28-0.01,0.26-0.11,0,0
		s0.19-0.2,0,0s0.1-0.26,0,0s-0.01-0.28,0,0c-0.38-0.39,0.01,0.55,0,0c-0.55-0.02,0.38,0.39,0,0c-1.69,0.51,0-1.81,0,0
		c-0.75-0.75,0.03,1.06,0,0c-1.06-0.01,0.75,0.75,0,0c-2.48,0,0-2.65,0,0c-0.22-0.55-0.01,0.59,0,0c-0.41-0.43,0.22,0.55,0,0
		c-0.55-0.23,0.41,0.43,0,0c-0.59,0,0.55,0.23,0,0c-0.67,0,0.62-0.25,0,0c-0.62,0.25,0.47-0.47,0,0s0.25-0.62,0,0s0-0.67,0,0
		c0,2.67-46.73,8.79-44,8.79h4.3l-0.53,107.74h821.08v-95.27h-7.93c1.17-4.49,2.2-11.12-0.92-18.29c-1.69-3.65-4.82-7.1-8.71-10.23
		c-3.46-2.78-7.11-5.31-10.93-7.57c0.28-0.31,0.4-1.03,0.4-1.7c0-1.03,0-1.75-0.52-2.84c-0.52-1.06-1.43-2.04-2.35-2.87
		c-1.03-0.94-2.09-1.31-2.72-1.9l-0.26-1.69c0.12-0.05,0.23-0.13,0.32-0.23c0.09-0.1,0.16-0.22,0.19-0.35
		c0.15-0.26,0.24-0.55,0.26-0.85c0-0.58-0.12-0.66-0.26-1.18c-0.22-0.16-0.44-0.33-0.64-0.52v-1.38c0.11-0.07,0.2-0.16,0.26-0.27
		s0.11-0.24,0.12-0.36c0-0.16,0.14-0.54,0.14-0.66c-0.02-0.24-0.06-0.48-0.14-0.71c-0.12-0.2-0.38-0.52-0.64-0.52v-1.64l-0.64-12.2
		c0-0.25,0-0.25-0.15-0.25c-0.14,0-0.25,0-0.25,0.25l-0.52,12.19l-0.15,1.65c-0.25,0-0.38,0.31-0.52,0.52
		c-0.07,0.23-0.1,0.47-0.12,0.71c0,0.12,0.12,0.5,0.12,0.66c0.07,0.24,0.21,0.46,0.4,0.64l-0.14,1.38
		c-0.05,0.12-0.12,0.22-0.21,0.31c-0.09,0.09-0.19,0.16-0.31,0.21c-0.13,0.52-0.25,0.59-0.25,1.18c0,0.25,0.12,0.58,0.12,0.86
		c0.28,0.31,0.4,0.44,0.53,0.57v1.69c-0.92,0.58-1.82,0.96-2.74,1.9c-1.02,0.77-1.85,1.75-2.46,2.87c-0.35,0.91-0.52,1.87-0.52,2.84
		c0.13,0.66,0.13,1.38,0.4,1.69c-3.26,2.02-7.3,4.71-11.05,7.57c-3.63,3.13-7.01,6.58-8.59,10.23c-3.13,7.17-2.07,13.8-1.04,18.29
		h-4.3l-0.12-44.44h1.95c0.28,0.01,0.57-0.04,0.84-0.14c0.27-0.1,0.51-0.26,0.72-0.46c0.21-0.2,0.37-0.44,0.48-0.7
		c0.11-0.26,0.17-0.55,0.17-0.83c0-1.37-0.92-2.53-2.2-2.53h-1.95l-0.15-35.33h0.53c0.53,0.02,1.05-0.18,1.44-0.54
		c0.39-0.37,0.62-0.87,0.64-1.4c0.01-0.28-0.04-0.55-0.14-0.81c-0.1-0.26-0.26-0.49-0.45-0.68c-0.2-0.2-0.43-0.35-0.69-0.45
		c-0.26-0.1-0.53-0.15-0.81-0.14h-0.53l-0.4-28.89h0.92c1.03,0,1.83-0.58,1.83-1.76c0-0.71-0.66-1.42-1.43-1.54v-12.32l0.12-0.25
		c-0.1-0.13-0.14-0.3-0.12-0.46v-2.21h0.77c0.52,0,1.04-0.26,1.04-0.94c-0.02-0.27-0.14-0.51-0.33-0.7
		c-0.19-0.19-0.44-0.3-0.71-0.31h-1.03c0.52-1.56,1.15-4.5-0.13-7.43c-0.53-1.49-1.82-2.81-3.26-3.78
		c-1.27-1.14-2.66-2.14-4.16-2.97c0.13-0.16,0.13-0.34,0.13-0.68c0.02-0.31-0.03-0.63-0.13-0.92c-0.25-0.41-0.56-0.78-0.92-1.09
		c-0.38-0.18-0.73-0.43-1.03-0.72v-0.65c0-0.25,0-0.25,0.15-0.31v-0.8c-0.15,0-0.15-0.18-0.15-0.18l-0.12-0.46
		c0.12,0,0.12,0,0.12-0.18v-0.62c0-0.02,0-0.03-0.01-0.05c-0.01-0.01-0.01-0.03-0.02-0.04c-0.01-0.01-0.03-0.02-0.04-0.03
		c-0.01-0.01-0.03-0.01-0.04-0.01v-0.8l-0.26-4.28c0-0.4-0.13-0.4-0.13-0.4s-0.12,0-0.12,0.4l-0.26,4.28v0.8h-0.13
		c-0.09,0.11-0.14,0.24-0.14,0.38c0,0,0,0.34,0.14,0.34c0,0.18,0,0.18,0.13,0.18l-0.13,0.46c0,0-0.14,0.18-0.26,0.18v0.8
		c0.12,0.07,0.26,0.07,0.26,0.31v0.65c-0.3,0.3-0.66,0.55-1.06,0.72c-0.37,0.28-0.78,0.74-0.78,1.09c-0.19,0.27-0.28,0.6-0.25,0.92
		v0.68c-1.45,0.9-2.84,1.89-4.16,2.97c-1.29,0.97-2.6,2.29-3.13,3.78c-1.43,2.93-0.65,5.88-0.14,7.43h-1.03
		c-0.13,0-0.26,0.03-0.38,0.08c-0.12,0.05-0.22,0.13-0.31,0.22c-0.09,0.1-0.15,0.21-0.19,0.33c-0.04,0.12-0.06,0.25-0.04,0.38
		c0,0.68,0.28,0.94,0.92,0.94h0.77v15.24c-0.37,0.06-0.71,0.25-0.97,0.53c-0.26,0.28-0.41,0.63-0.44,1.01c0,1.18,0.9,1.76,1.95,1.76
		h0.77l-0.14,28.89h-0.62c-1.18,0-2.23,0.84-2.23,2.08c0,1.05,1.06,1.95,2.23,1.95h0.64l-0.26,35.33h-1.95
		c-1.29,0-2.35,1.16-2.35,2.53c0,1.18,1.05,2.13,2.35,2.13h1.95l-0.12,44.44H1984v-7.15h0.89c0.92,0,1.69-0.64,1.69-1.52
		c0-1.01-0.77-1.87-1.69-1.87H1984c1.67-4.05,6.11-16.88,0.38-30.08c-2.21-5.15-6.75-10.19-11.95-14.19
		c-4.76-3.88-9.85-7.33-15.2-10.32c0.25-0.85,0.37-1.73,0.37-2.61c0.26-1.37,0-2.61-0.52-4c-0.66-1.62-1.94-2.93-3.38-3.94
		c-1.31-0.98-2.86-1.7-3.89-2.42l-0.15-2.55c0.19-0.03,0.37-0.11,0.51-0.24c0.14-0.13,0.24-0.31,0.28-0.49
		c0.12-0.44,0.38-0.72,0.38-1.3c0-0.52-0.26-0.72-0.52-1.27c0-0.48-0.37-0.62-0.92-0.74v-2.33c0.26-0.08,0.4-0.28,0.54-0.59
		c0.23-0.36,0.35-0.78,0.37-1.2c0-0.15-0.26-0.52-0.37-0.96c-0.28-0.31-0.28-0.52-0.8-0.58v-2.34l-0.65-16.71
		c0-0.09-0.26-0.24-0.38-0.24c-0.28,0-0.4,0.15-0.4,0.24l-0.78,16.71v2.34c-0.38,0.06-0.66,0.26-0.66,0.58
		c-0.24,0.26-0.37,0.6-0.37,0.96c0,0.56,0,1,0.37,1.2c-0.01,0.11,0.01,0.23,0.06,0.33c0.05,0.1,0.12,0.19,0.22,0.26v2.34
		c-0.28,0.14-0.65,0.26-0.8,0.74c-0.26,0.55-0.38,0.75-0.38,1.27c0,0.44,0.09,0.89,0.26,1.3c0.15,0.29,0.37,0.55,0.63,0.74v2.55
		c-1.17,0.72-2.45,1.44-3.89,2.42c-1.44,0.98-2.72,2.33-3.37,3.94c-0.51,1.27-0.78,2.63-0.8,4c0.28,0.84,0.28,1.75,0.66,2.61
		c-4.68,2.46-10.13,6.2-15.2,10.32c-5.08,4-9.63,9.04-11.83,14.19c-5.73,13.21-1.29,26.04,0.26,30.08h-0.8
		c-0.5,0-0.99,0.19-1.35,0.54c-0.36,0.35-0.58,0.82-0.6,1.33c0,0.88,0.92,1.52,1.95,1.52h0.25v7.15h-4.3v-37.46h0.15l-0.15-18.77
		v-1.71l-0.12-10.03h1.71c0.5-0.01,0.98-0.21,1.35-0.56c0.36-0.35,0.58-0.83,0.61-1.33c-0.03-0.5-0.25-0.96-0.61-1.3
		c-0.36-0.34-0.85-0.52-1.34-0.5h-1.69l-0.14-28.15h0.65c0.38-0.01,0.75-0.16,1.04-0.42c0.29-0.26,0.47-0.61,0.52-1
		c0-1.12-0.66-1.69-1.55-1.69h-0.65v-22.96h0.65c0.18,0.01,0.37-0.02,0.54-0.08c0.17-0.06,0.33-0.16,0.46-0.29
		c0.13-0.13,0.24-0.28,0.31-0.45c0.07-0.17,0.11-0.35,0.11-0.54c0-0.78-0.54-1.46-1.04-1.46v-6.81h0.5c0.17-0.01,0.33-0.08,0.45-0.2
		c0.12-0.12,0.19-0.28,0.21-0.45c0-0.52-0.26-0.92-0.66-0.92h-0.77c0.27-1.3,0.77-3.59-0.13-5.82c-0.54-1.24-1.45-2.29-2.6-2.99
		c-1.02-0.96-2.15-1.78-3.38-2.46c0.15,0,0.15-0.26,0.15-0.56c0.01-0.25-0.04-0.49-0.15-0.72c-0.16-0.36-0.37-0.7-0.63-0.99
		c-0.4-0.19-0.54-0.25-0.94-0.4v-0.65c0.13,0,0.13,0,0.13-0.31v-0.4l-0.13-0.26l-0.12-0.28l0.12-0.31h0.13v-0.16
		c0-0.18,0-0.18-0.13-0.26l-0.12-0.24v-0.28l-0.12-3.71h-0.26l-0.14,3.71v0.28l-0.15,0.24c-0.04,0.03-0.07,0.07-0.09,0.12
		c-0.02,0.05-0.03,0.09-0.03,0.14c0,0,0.12,0,0.12,0.16v0.58c0,0,0,0.26-0.12,0.26v0.4c0,0.31,0.12,0.31,0.12,0.31v0.65
		c-0.24,0.15-0.63,0.21-0.78,0.4c-0.31,0.29-0.57,0.62-0.78,0.99c-0.13,0.12-0.13,0.56-0.13,0.72c0,0.31,0,0.56,0.13,0.56
		c-1.19,0.66-2.28,1.49-3.24,2.46c-1.26,0.61-2.24,1.68-2.74,2.99c-1.03,2.22-0.52,4.52,0,5.82h-0.76
		c-0.22,0.02-0.43,0.13-0.57,0.31c-0.14,0.17-0.21,0.39-0.2,0.62c0.04,0.18,0.13,0.34,0.27,0.46c0.14,0.12,0.31,0.19,0.5,0.2h0.52
		v6.81c-0.52,0-0.92,0.68-0.92,1.46c-0.01,0.18,0.01,0.36,0.07,0.53c0.06,0.17,0.16,0.32,0.28,0.45c0.12,0.13,0.28,0.23,0.44,0.29
		c0.17,0.07,0.34,0.1,0.52,0.09L1892.72,198.88z M1352.45,237.84h2.33v-2.71c0,0,0-0.15-0.25-0.2c-0.13-0.46,0-0.52,0-0.77
		c0.51-1.44-1.18-1.69-1.95-2.35c-0.53,0.52-0.4,1.43,0.12,2.35c0.01,0.26-0.03,0.52-0.12,0.77c-0.04,0.02-0.07,0.05-0.09,0.09
		c-0.02,0.03-0.03,0.08-0.03,0.12V237.84z M1357.5,237.84h5.47v-2.71c0,0,0-0.15-0.26-0.2c-0.26-0.46,0-0.52,0-0.77
		c0.52-1.85-2.21-1.69-2.45-2.87c-0.37,1.18-3.26,1.03-2.6,2.87c0.12,0.25,0.26,0.31,0,0.77c-0.04,0.02-0.08,0.04-0.1,0.08
		c-0.02,0.04-0.04,0.08-0.04,0.12L1357.5,237.84z M1365.69,237.84h2.35v-2.71c0,0,0-0.15-0.27-0.2c-0.06-0.25-0.06-0.52,0-0.77
		c0.4-0.92,0.54-1.85,0-2.35c-0.77,0.66-2.45,0.92-1.81,2.35c0.01,0.26-0.04,0.53-0.15,0.77c-0.25,0.06-0.13,0.2-0.13,0.2V237.84z
		 M1616.87,241.06h2.2v-2.61c0.05-0.09,0.07-0.2,0.07-0.31c0-0.11-0.02-0.21-0.07-0.31c-0.26-0.1-0.14-0.18,0-0.69
		c0.4-1.23-1.18-1.56-2.07-2.15c-0.4,0.6-0.28,1.32,0,2.15c0.26,0.52,0.26,0.59,0,0.69c-0.07,0.2-0.12,0.4-0.13,0.62V241.06z
		 M1622.05,241.06h5.34v-2.61c-0.01-0.21-0.06-0.41-0.12-0.62c-0.25-0.1-0.25-0.18-0.13-0.69c0.65-1.56-2.19-1.56-2.46-2.74
		c-0.38,1.18-2.98,1.18-2.61,2.74c0.28,0.52,0.28,0.59,0,0.69c-0.08,0.2-0.08,0.42,0,0.62L1622.05,241.06z M1630.12,241.06h2.35
		v-2.61c-0.02-0.21-0.06-0.42-0.14-0.62c-0.12-0.1-0.12-0.18,0-0.69c0.4-0.84,0.52-1.56,0-2.15c-0.78,0.6-2.45,0.92-1.94,2.15
		c0,0.52,0.25,0.59,0,0.69c-0.38,0.41-0.26,0.62-0.26,0.62V241.06z M1727.23,266.84h-2.6v-6.36c-0.03-0.09-0.04-0.19-0.01-0.29
		c0.03-0.1,0.08-0.18,0.16-0.25c0.12-0.29,0.12-0.63,0-0.92c-0.66-1.33,1.29-1.68,2.2-2.46c0.52,0.52,0.38,1.29,0,2.46
		c-0.12,0.29-0.12,0.63,0,0.92c0.08,0.07,0.14,0.15,0.18,0.24c0.04,0.09,0.07,0.19,0.07,0.29V266.84z M1721.51,266.84h-5.99v-6.36
		c0-0.19,0.05-0.37,0.14-0.53c0.26-0.32,0.12-0.52,0-0.92c-0.52-1.95,2.6-1.95,2.86-3.17c0.38,1.23,3.38,1.23,2.72,3.17
		c-0.12,0.4-0.25,0.59,0,0.92c0.08,0.07,0.14,0.15,0.19,0.24c0.04,0.09,0.07,0.19,0.07,0.29V266.84z M1712.3,266.84h-2.46v-6.36
		c-0.03-0.11-0.03-0.22,0.02-0.32c0.05-0.1,0.14-0.18,0.24-0.21c0.13-0.32,0-0.52,0-0.92c-0.4-1.18-0.52-1.95,0-2.46
		c0.92,0.79,2.6,1.13,2.06,2.46c0,0.4-0.12,0.59,0.14,0.92v6.89H1712.3z M1885.21,266.84h-2.61v-6.36c0-0.18,0.04-0.37,0.12-0.53
		c0.28-0.32,0.15-0.52,0-0.92c-0.52-1.33,1.18-1.68,2.21-2.46c0.53,0.52,0.4,1.29,0,2.46c0,0.4-0.12,0.59,0.13,0.92
		c0.09,0.16,0.14,0.35,0.14,0.53V266.84z M1879.48,266.84h-5.98v-6.36c0-0.19,0.05-0.37,0.14-0.53c0.12-0.12,0.19-0.27,0.21-0.44
		c0.02-0.17-0.01-0.34-0.1-0.48c-0.77-1.95,2.46-1.95,2.61-3.17c0.52,1.23,3.51,1.23,2.86,3.17c0,0.4-0.26,0.59,0,0.92
		c0.08,0.07,0.14,0.15,0.19,0.24s0.07,0.19,0.07,0.29V266.84z M1870.37,266.84h-2.6v-6.36c0-0.19,0.05-0.37,0.14-0.53
		c0.26-0.32,0.26-0.52,0-0.92c-0.14-1.18-0.54-1.95,0-2.46c1.03,0.79,2.72,1.13,2.34,2.46c-0.28,0.4-0.28,0.59,0,0.92
		c0.08,0.17,0.12,0.35,0.12,0.53V266.84z M1295.7,303.52C1295.76,303.28,1295.77,303.75,1295.7,303.52S1295.88,303.67,1295.7,303.52
		C1295.43,304.15,1295.17,302.87,1295.7,303.52C1298.16,305.35,1297.01,299.92,1295.7,303.52
		C1294.92,300.91,1294.41,305.01,1295.7,303.52C1296.36,302.87,1295.96,304.15,1295.7,303.52
		C1295.76,303.29,1295.54,303.7,1295.7,303.52C1295.67,303.28,1295.63,303.74,1295.7,303.52z M1295.7,303.52
		C1295.72,303.28,1295.76,303.74,1295.7,303.52C1295.63,303.29,1295.85,303.7,1295.7,303.52
		C1295.56,304.15,1295.04,302.87,1295.7,303.52C1297.54,298.88,1296.65,307,1295.7,303.52C1294.93,307,1294.12,298.88,1295.7,303.52
		C1296.21,302.87,1296.09,304.15,1295.7,303.52C1295.79,303.29,1295.51,303.68,1295.7,303.52
		C1295.68,303.27,1295.61,303.74,1295.7,303.52z M1295.7,303.52C1295.72,303.28,1295.76,303.74,1295.7,303.52
		C1295.63,303.29,1295.85,303.7,1295.7,303.52C1295.55,304.15,1295.04,302.87,1295.7,303.52
		C1296.99,305.01,1296.59,300.91,1295.7,303.52C1294.39,299.79,1293.24,305.36,1295.7,303.52
		C1296.46,302.87,1295.96,304.15,1295.7,303.52C1295.71,303.05,1295.45,303.91,1295.7,303.52z M1990.61,203.79h2.72v-9.85
		c0,0,0.15-0.12-0.12-0.58c-0.06-0.13-0.09-0.28-0.09-0.43c0-0.15,0.03-0.29,0.09-0.43c0.52-1.75-1.43-2.03-2.6-2.67
		c-0.52,0.46-0.4,1.37,0,2.67c0.06,0.05,0.11,0.12,0.15,0.19c0.03,0.07,0.05,0.15,0.05,0.24c0,0.08-0.02,0.16-0.05,0.24
		c-0.03,0.07-0.08,0.14-0.15,0.19c-0.12,0.47,0,0.58,0,0.58V203.79z M1996.85,203.79h6.89v-9.85c-0.05-0.21-0.14-0.41-0.25-0.58
		c-0.28-0.25-0.13-0.58,0-0.86c0.63-2.21-2.75-2.03-3.26-3.64c-0.38,1.61-3.89,1.43-3,3.64c0,0.28,0.14,0.62-0.25,0.86
		c-0.07,0.19-0.11,0.39-0.13,0.58V203.79z M2007.25,203.79h2.86v-9.85c0,0,0.13-0.12-0.26-0.58c-0.06-0.13-0.09-0.28-0.09-0.43
		c0-0.15,0.03-0.29,0.09-0.43c0.4-1.3,0.66-2.21,0-2.67c-1.04,0.64-3,0.92-2.35,2.67c0,0.28,0.14,0.62,0,0.86
		c-0.38,0.47-0.26,0.58-0.26,0.58V203.79z M1761.56,266.84h-4.17v-3.45c0,0,0-0.24,0.39-0.7c0.13-0.6,0.13-0.98,0-1.26
		c-0.79-2.41,1.95-2.73,3.38-3.74c0.77,0.75,0.52,2.05,0,3.74c0,0.28-0.26,0.66,0.12,1.26c0.4,0.46,0.28,0.7,0.28,0.7
		L1761.56,266.84z M1752.59,266.84h-9.38v-3.45c0,0,0-0.24,0.4-0.7c0.1-0.2,0.15-0.41,0.15-0.63c0-0.22-0.05-0.44-0.15-0.63
		c-1.18-2.99,3.78-2.99,4.3-5.14c0.52,2.15,5.46,2.15,4.3,5.14c-0.1,0.2-0.15,0.43-0.12,0.65c0.02,0.22,0.11,0.44,0.25,0.61
		c0.39,0.46,0.27,0.7,0.27,0.7L1752.59,266.84z M1738.55,266.84h-4.16v-3.45c0,0,0-0.24,0.4-0.7c0.09-0.2,0.14-0.41,0.14-0.63
		c0-0.22-0.05-0.43-0.14-0.63c-0.66-1.69-0.92-2.99,0-3.74c1.41,1.01,4.16,1.33,3.24,3.74c-0.13,0.28-0.4,0.66,0.26,1.26
		c0.14,0.21,0.23,0.45,0.26,0.7V266.84z M1860.62,266.84h-4.04v-3.45c0,0-0.13-0.24,0.26-0.7c0.1-0.2,0.15-0.41,0.15-0.63
		c0-0.22-0.05-0.43-0.15-0.63c-0.77-2.41,1.94-2.73,3.52-3.74c0.78,0.75,0.52,2.05,0,3.74c-0.28,0.28-0.4,0.66,0,1.26
		c0.14,0.21,0.23,0.45,0.26,0.7V266.84z M1851.77,266.84h-9.36v-3.45c0,0-0.15-0.24,0.12-0.7c0.53-0.6,0.28-0.98,0.13-1.26
		c-1.03-2.99,3.78-2.99,4.3-5.14c0.52,2.15,5.46,2.15,4.42,5.14c-0.12,0.28-0.38,0.66,0,1.26c0.4,0.46,0.4,0.7,0.4,0.7
		L1851.77,266.84z M1837.48,266.84h-4.04v-3.45c0.01-0.24,0.05-0.47,0.12-0.7c0.52-0.6,0.4-0.98,0.26-1.26
		c-0.52-1.69-0.9-2.99,0-3.74c1.43,1.01,4.16,1.33,3.26,3.74c-0.1,0.2-0.14,0.43-0.12,0.65c0.02,0.22,0.1,0.44,0.24,0.61
		c0.4,0.46,0.28,0.7,0.28,0.7V266.84z M1685.37,169.3h3v-10.02c-0.04-0.21-0.13-0.41-0.25-0.59c-0.15-0.28,0-0.38,0-0.92
		c0.52-1.62-1.43-1.88-2.49-2.65c-0.5,0.58-0.37,1.54,0,2.65c0.28,0.53,0.28,0.63,0,0.92c-0.37,0.46-0.26,0.59-0.26,0.59V169.3z
		 M1691.75,169.3h6.87v-10.02c-0.04-0.21-0.13-0.41-0.26-0.59c-0.12-0.28,0-0.38,0-0.92c0.65-2.08-2.73-1.88-3.12-3.58
		c-0.37,1.7-3.9,1.5-3.12,3.58c0,0.53,0.14,0.63-0.12,0.92c-0.12,0.18-0.21,0.38-0.26,0.59V169.3z M1702,169.3h3.01v-10.02
		c0,0,0.12-0.14-0.15-0.59c-0.25-0.28-0.25-0.38,0-0.92c0.4-1.1,0.52-2.08,0-2.65c-1.03,0.77-2.98,1.03-2.6,2.65
		c0.13,0.53,0.28,0.63,0,0.92c-0.12,0.18-0.21,0.38-0.26,0.59V169.3z M1578,196.74c0.12,0.38,0.37,0.44,0.52,0.92v-0.92H1578z
		 M1577.74,87.67h4.28v-4.68c0,0,0.13-0.4-0.26-1.12c-0.51-0.31-0.25-0.62-0.12-1.18c0.92-2.27-1.94-2.65-3.51-4.02
		c-0.92,1.15-0.52,2.41,0,4.02c0.25,0.58,0.39,0.86-0.12,1.18c-0.15,0.36-0.23,0.74-0.26,1.12V87.67z M1586.96,87.67h9.62v-4.68
		c-0.01-0.38-0.05-0.75-0.12-1.12c-0.4-0.31-0.15-0.62-0.15-1.18c1.16-2.87-3.91-2.87-4.41-5.2h-0.13c-0.65,2.33-5.45,2.33-4.41,5.2
		c0.12,0.58,0.25,0.86-0.15,1.18c-0.14,0.36-0.23,0.74-0.25,1.12L1586.96,87.67z M1601.77,87.67h4.16v-4.68
		c-0.04-0.4-0.17-0.78-0.38-1.12c-0.25-0.31-0.25-0.62,0-1.18c0.52-1.62,0.78-3.13,0-4.02c-1.53,1.37-4.3,1.75-3.51,4.02
		c0,0.58,0.25,0.86,0,1.18c-0.52,0.72-0.27,1.12-0.27,1.12V87.67z M1891.97,196.04h2.32v-2.68c-0.01-0.2-0.05-0.39-0.12-0.58
		c-0.15,0-0.15-0.47,0-0.66c0.39-1.37-1.31-1.43-1.95-2.09c-0.65,0.44-0.4,1.18,0,2.09c0.12,0.18,0.12,0.66,0,0.66
		c-0.4,0.32-0.25,0.58-0.25,0.58V196.04z M1897.15,196.04h5.22v-2.68c0.07-0.19,0.07-0.39,0-0.58c-0.15,0-0.15-0.47,0-0.66
		c0.52-1.65-2.23-1.65-2.61-2.86c-0.25,1.21-2.97,1.21-2.45,2.86c0.11,0.18,0.11,0.66,0,0.66c-0.08,0.18-0.13,0.38-0.14,0.58
		L1897.15,196.04z M1905.35,196.04h2.34v-2.68c-0.01-0.2-0.05-0.39-0.12-0.58c-0.4,0-0.28-0.47-0.13-0.66
		c0.38-0.92,0.65-1.83,0-2.09c-0.78,0.44-2.35,0.72-1.84,2.09c0,0.18,0.14,0.66-0.12,0.66c-0.07,0.07-0.12,0.17-0.15,0.27
		c-0.02,0.1-0.02,0.21,0.01,0.31L1905.35,196.04z"/>
	
		<linearGradient id="SVGID_00000033345543762446416520000003194876034030233256_" gradientUnits="userSpaceOnUse" x1="890.9504" y1="32.0807" x2="890.9504" y2="656.9609">
		<stop  offset="0" style="stop-color:#BDDBBE"/>
		<stop  offset="0.7849" style="stop-color:#F4F9F3"/>
		<stop  offset="1" style="stop-color:#F6FBF6"/>
	</linearGradient>
	<path style="fill-rule:evenodd;clip-rule:evenodd;fill:url(#SVGID_00000033345543762446416520000003194876034030233256_);" d="
		M659.82,198.88l0.13,22.96h0.62c0.22,0,0.43,0.04,0.63,0.13c0.2,0.09,0.38,0.21,0.53,0.37c0.15,0.16,0.26,0.35,0.33,0.55
		c0.07,0.2,0.1,0.42,0.08,0.64c0,0.57-0.78,1.41-1.57,1.41h-0.61l0.26,28.16h1.53c0.24-0.01,0.48,0.03,0.71,0.12
		c0.23,0.09,0.43,0.22,0.6,0.39c0.17,0.17,0.31,0.37,0.4,0.6c0.09,0.22,0.13,0.47,0.13,0.71c0,0.25-0.04,0.49-0.13,0.72
		c-0.09,0.23-0.23,0.44-0.4,0.61c-0.17,0.17-0.37,0.31-0.6,0.41c-0.22,0.1-0.47,0.15-0.71,0.15h-1.53v10.03h6.88v-10.98h-0.78
		c-0.24-0.02-0.46-0.12-0.63-0.29c-0.17-0.17-0.27-0.39-0.29-0.63c0-0.37,0.53-0.84,0.92-0.84h0.92c-0.4-1.35-1.05-4,0.12-6.66
		c0.54-1.16,1.57-2.21,2.86-3.31c1.1-1.01,2.32-1.86,3.64-2.55v-0.51c-0.05-0.17-0.05-0.35,0-0.52c0.04-0.17,0.13-0.33,0.25-0.46
		c0.04-0.19,0.11-0.37,0.23-0.52c0.11-0.16,0.26-0.28,0.43-0.37c0.35-0.19,0.66-0.44,0.92-0.74v-0.72
		c-0.25-0.08-0.25-0.08-0.25-0.28c0,0,0-0.31,0.12-0.4c0.08-0.07,0.18-0.11,0.28-0.12v-0.44l-0.14-0.2v-0.52
		c0-0.2,0.14-0.2,0.14-0.2v-0.6l0.25-3.9h0.26v4.51c0.26,0,0.26,0,0.26,0.2v1.15c0,0.02,0,0.03,0.01,0.05
		c0.01,0.01,0.02,0.03,0.03,0.04c0.01,0.01,0.03,0.02,0.04,0.02c0.02,0,0.03,0.01,0.05,0l0.12,0.4c0,0.2,0,0.2-0.12,0.28
		c-0.14,0-0.14,0.1-0.14,0.1v0.62c0.24,0.26,0.5,0.51,0.77,0.73c0.52,0.26,0.92,0.62,0.92,0.9c0.1,0.31,0.14,0.65,0.12,0.98
		c0,0.31,0,0.46-0.12,0.51c1.36,0.68,2.62,1.54,3.76,2.55c1.17,1.1,2.34,2.15,2.74,3.31c0.49,1.03,0.76,2.16,0.81,3.3
		c0.04,1.14-0.14,2.28-0.54,3.35h0.78c0.2,0.03,0.39,0.13,0.53,0.29c0.14,0.15,0.22,0.35,0.24,0.55c0.01,0.22-0.06,0.44-0.2,0.61
		c-0.14,0.17-0.34,0.28-0.56,0.31h-0.64v10.98h6.22v-6.49l-0.15-0.4c0.11-0.15,0.16-0.33,0.15-0.52v-3.14h-1.16
		c-0.35-0.03-0.67-0.18-0.92-0.43c-0.24-0.25-0.38-0.59-0.39-0.94c0-0.66,0.66-1.16,1.31-1.16h1.41c-0.52-2.36-1.53-6.34,0.4-10.5
		c0.77-1.75,2.46-3.65,4.3-5.42c2.07-1.33,4.16-2.71,5.83-3.69c-0.14-0.2-0.14-0.62-0.26-0.92c0.01-0.55,0.1-1.1,0.26-1.63
		c0.39-0.51,0.82-0.99,1.29-1.43c0.51-0.46,1.16-0.72,1.31-1l0.26-0.56c-0.26-0.4-0.26-0.59-0.4-0.59v-0.56
		c0.02-0.22,0.07-0.44,0.15-0.64h0.26l0.12-0.75c-0.13-0.12-0.38-0.12-0.38-0.47v-0.64c0.14-0.08,0.27-0.19,0.38-0.31v-0.78
		l0.28-6.32h0.25l0.38,6.32v0.78c0,0.13,0.13,0.13,0.13,0.31c0.26,0,0.26,0.26,0.26,0.34v0.31c-0.11,0.18-0.24,0.34-0.4,0.47v0.75
		h0.51v1.14c-0.12,0.06-0.12,0.25-0.38,0.65v0.56c0.58,0.3,1.15,0.63,1.7,1c0.38,0.45,0.73,0.92,1.03,1.43
		c0.26,0.47,0.26,1.12,0.26,1.63c-0.01,0.24-0.05,0.48-0.12,0.72c1.81,1.18,3.9,2.55,5.59,3.89c2.06,1.77,3.78,3.67,4.55,5.42
		c1.82,4.17,1.04,8.15,0.26,10.5h1.18c0.89,0,1.43,0.5,1.43,1.16c0,0.19-0.03,0.37-0.11,0.54c-0.07,0.17-0.18,0.33-0.31,0.45
		c-0.13,0.13-0.29,0.23-0.47,0.29c-0.17,0.07-0.36,0.09-0.54,0.08h-0.92v10.54h6.61v-4.23h-0.78c-0.64,0-1.29-0.56-1.29-1.64
		c0.03-0.33,0.18-0.63,0.41-0.86c0.24-0.23,0.55-0.36,0.88-0.37h0.92c-1.56-3.23-4.95-13.54-0.4-24.15c1.82-4,5.34-7.75,9.49-11.48
		c4.16-3.12,8.46-5.85,12.09-8.09c-0.29-0.65-0.43-1.36-0.4-2.07c0-0.92,0-2.03,0.54-3.13c0.52-1.06,1.67-2.21,2.84-2.93
		c0.88-0.89,1.88-1.64,2.98-2.23v-1.87c-0.12-0.12-0.37-0.47-0.63-0.71c0-0.2-0.15-0.62-0.15-0.84c0-0.54,0.15-0.8,0.15-1.12
		c0.25-0.3,0.57-0.55,0.92-0.72v-1.51c-0.07-0.22-0.21-0.41-0.4-0.55c-0.12-0.62-0.25-0.68-0.25-1.14c0.08-0.25,0.2-0.49,0.37-0.69
		c0-0.42,0.28-0.42,0.4-0.46v-1.91l0.66-13.01c-1.18,0-2.46-0.06-3.64-0.78c-1.04-0.73-1.92-1.65-2.6-2.73
		c0.56,0.52,1.18,0.98,1.84,1.35c2.72,1.65,6.61,0.72,8.42-2.3c1.57-2.77,0.54-6.63-2.32-8.31c-0.66-0.26-1.57-0.8-2.35-0.8
		c1.32-0.18,2.74,0.36,3.78,0.87c3.26,1.9,4.42,6.12,2.46,9.31c-0.48,0.92-1.18,1.72-2.04,2.31c-0.86,0.59-1.85,0.96-2.88,1.08
		l0.64,13.01l0.13,1.91c0.15,0.03,0.26,0.03,0.4,0.46c0.16,0.17,0.25,0.4,0.26,0.63c0.03,0.42-0.06,0.84-0.26,1.2
		c-0.13,0.06-0.13,0.24-0.4,0.55l0.15,1.51c0.12,0.14,0.51,0.38,0.63,0.72c0.12,0.34,0.4,0.58,0.4,1.12
		c-0.07,0.31-0.2,0.59-0.4,0.84c-0.12,0.24-0.26,0.59-0.52,0.71v1.87c1.1,0.58,2.11,1.34,2.98,2.23c1.22,0.67,2.22,1.69,2.86,2.93
		c0.44,0.98,0.67,2.05,0.65,3.13c0,1.04-0.4,1.41-0.52,2.07c4.19,2.44,8.23,5.14,12.09,8.09c4.16,3.73,7.8,7.49,9.62,11.48
		c4.55,10.6,1.03,20.92-0.4,24.15h0.66c0.92,0,1.57,0.62,1.57,1.23c0,1.08-0.66,1.64-1.57,1.64h-0.26v4.23h6.24V256.3h-1.03
		c-0.35-0.02-0.68-0.18-0.92-0.43c-0.24-0.25-0.38-0.59-0.4-0.94c0-0.66,0.66-1.16,1.32-1.16h1.54c-0.92-2.36-1.69-6.34,0.12-10.5
		c0.92-1.75,2.61-3.65,4.57-5.42c1.84-1.33,3.74-2.56,5.71-3.69c-0.12-0.29-0.17-0.61-0.14-0.92c-0.08-0.55-0.04-1.11,0.14-1.63
		c0.4-0.31,0.78-0.97,1.31-1.43c0.48-0.39,1-0.73,1.55-1v-0.56c-0.12-0.4-0.12-0.59-0.26-0.59c-0.13-0.06-0.13-0.18-0.13-0.56
		c0.01-0.22,0.06-0.44,0.13-0.64h0.26l0.13-0.75c-0.13-0.12-0.13-0.12-0.25-0.47v-0.64c0.07-0.12,0.15-0.22,0.25-0.31v-0.78
		l0.24-6.32h0.41l0.25,6.32v0.78c0.1,0.09,0.19,0.19,0.26,0.31v0.64c0,0.36-0.12,0.36-0.26,0.47v0.75h0.26
		c0.14,0.19,0.22,0.41,0.26,0.64c0,0.38,0,0.5-0.12,0.56c-0.11,0.19-0.2,0.38-0.25,0.59l0.12,0.56c0.26,0.28,0.92,0.54,1.31,1
		c0.54,0.41,1.03,0.89,1.44,1.43c0.17,0.53,0.21,1.09,0.12,1.63c0.03,0.31-0.01,0.63-0.12,0.92c1.96,1.13,3.87,2.36,5.7,3.69
		c1.97,1.77,3.65,3.67,4.55,5.42c1.71,4.17,0.8,8.15,0.26,10.5h1.05c0.77,0,1.41,0.5,1.41,1.16c-0.01,0.37-0.17,0.71-0.43,0.97
		c-0.26,0.26-0.61,0.4-0.98,0.4h-0.92v10.54h6.11v-10.98h-0.49c-0.12,0-0.24-0.02-0.36-0.07c-0.11-0.04-0.22-0.11-0.3-0.2
		c-0.09-0.09-0.16-0.19-0.2-0.3s-0.07-0.24-0.07-0.36c0.03-0.23,0.14-0.44,0.31-0.6c0.17-0.16,0.4-0.24,0.63-0.24h0.77
		c-0.4-1.35-0.92-4,0.12-6.66c0.65-1.16,1.84-2.21,2.86-3.31c1.11-1.05,2.39-1.91,3.78-2.55v-1.49c0.23-0.37,0.54-0.68,0.92-0.9
		c0.24-0.28,0.63-0.4,0.77-0.74v-0.62l-0.13-0.1v-0.68c0.07-0.06,0.16-0.1,0.26-0.12l0.12-0.44l-0.25-0.2l-0.13-0.36
		c0,0,0-0.15,0.13-0.15c0-0.2,0.13-0.2,0.25-0.2v-0.6l0.13-3.9h0.13l0.13,3.9v0.6c0.25,0,0.25,0,0.25,0.2l0.15,0.15
		c0,0-0.15,0-0.15,0.36l-0.25,0.2l0.25,0.44c0,0,0,0.12,0.15,0.12v0.62l-0.15,0.18v0.62c0.26,0.3,0.57,0.55,0.92,0.74
		c0.3,0.26,0.56,0.56,0.77,0.9c0.28,0.25,0.28,0.74,0.28,0.98c0.01,0.1,0,0.21-0.06,0.3c-0.05,0.09-0.13,0.17-0.22,0.21
		c1.36,0.62,2.6,1.48,3.64,2.55c1.31,1.1,2.46,2.15,3,3.31c0.89,2.12,0.93,4.51,0.12,6.66h0.92c0.19,0.05,0.37,0.16,0.5,0.31
		c0.14,0.15,0.23,0.33,0.27,0.53c-0.01,0.22-0.09,0.43-0.23,0.59c-0.14,0.17-0.33,0.28-0.54,0.33h-0.78v10.98h4.81v-21.04h-1.94
		c-0.63-0.02-1.22-0.28-1.66-0.73c-0.44-0.45-0.68-1.05-0.68-1.68c0.02-0.62,0.28-1.2,0.71-1.63c0.44-0.43,1.02-0.68,1.63-0.7h1.94
		l0.12-35.38h-0.64c-1.03,0-2.09-0.89-2.09-1.99c0.02-0.54,0.25-1.05,0.64-1.42c0.39-0.37,0.91-0.57,1.45-0.56h0.78l0.12-28.92h-0.9
		c-0.92,0-1.83-0.66-1.83-1.66c0.03-0.39,0.19-0.75,0.45-1.05c0.26-0.29,0.6-0.49,0.99-0.56v-15.31h-0.64
		c-0.54,0-1.17-0.4-1.17-0.92c0-0.52,0.63-0.97,1.17-0.97h1.03c-0.65-1.58-1.31-4.57,0.12-7.5c0.52-1.31,1.84-2.61,3.13-3.78
		c1.29-1.18,2.74-2.19,4.3-2.99c-0.12-0.08-0.12-0.2-0.12-0.54c-0.03-0.33,0.01-0.66,0.12-0.97c0.03-0.28,0.15-0.54,0.33-0.75
		c0.18-0.21,0.43-0.36,0.7-0.43c0.26-0.29,0.57-0.54,0.92-0.72v-0.71c0,0-0.26,0-0.26-0.1v-1c0.13-0.03,0.26-0.05,0.39-0.06v-0.54
		c-0.13,0-0.13-0.1-0.13-0.1c-0.15-0.12-0.24-0.29-0.26-0.48l0.26-0.18c0-0.02,0-0.04,0.01-0.05c0.01-0.02,0.02-0.03,0.03-0.04
		c0.01-0.01,0.03-0.02,0.04-0.03c0.02-0.01,0.03-0.01,0.05-0.01v-0.58l0.26-4.58c0-0.24,0-0.24,0.12-0.24l0.26,4.82v0.58
		c0.14,0,0.14,0,0.14,0.14c0.13,0,0.26,0.18,0.26,0.18c0,0.26-0.13,0.26-0.13,0.48c-0.13,0-0.13,0.1-0.13,0.1v0.54
		c0.08,0.03,0.17,0.05,0.26,0.06v1c0,0.1-0.13,0.1-0.26,0.1v0.71c0.4,0.14,0.66,0.48,1.03,0.72c0.51,0.14,0.78,0.52,1.05,1.18
		c0,0.25,0.12,0.53,0.12,0.97c-0.01,0.19-0.05,0.37-0.12,0.54c1.47,0.81,2.81,1.82,4.01,2.99c1.57,1.18,2.73,2.46,3.37,3.78
		c1.29,2.93,0.66,5.92,0.13,7.5h0.92c0.12,0,0.25,0.03,0.36,0.08c0.11,0.05,0.21,0.12,0.3,0.21c0.08,0.09,0.15,0.2,0.19,0.31
		c0.04,0.12,0.06,0.24,0.05,0.36c0.01,0.12-0.01,0.24-0.06,0.35c-0.04,0.11-0.11,0.22-0.19,0.3c-0.08,0.09-0.18,0.15-0.29,0.2
		c-0.11,0.05-0.23,0.07-0.35,0.07h-0.77v15.31c0.4,0.03,0.77,0.22,1.03,0.52c0.26,0.3,0.4,0.69,0.38,1.09c0,1-0.77,1.66-1.8,1.66
		h-0.92l0.13,28.92h0.78c1.17,0,2.06,0.78,2.06,1.98c0,0.27-0.06,0.53-0.16,0.78c-0.11,0.25-0.26,0.47-0.45,0.65
		c-0.19,0.19-0.42,0.33-0.67,0.43c-0.25,0.1-0.52,0.14-0.78,0.13h-0.63l0.12,35.38h1.94c1.32,0,2.49,1.03,2.49,2.33
		c-0.01,0.65-0.28,1.27-0.75,1.72c-0.47,0.45-1.1,0.7-1.74,0.69h-1.94l0.13,52.92c1.27-1.2,2.62-2.31,4.05-3.32
		c4.55-4.19,9.88-7.3,14.03-9.54c-0.32-0.85-0.5-1.74-0.52-2.65c0.03-1.22,0.25-2.43,0.64-3.58c0.65-1.36,1.97-2.62,3.13-3.45
		c1.11-0.97,2.34-1.81,3.64-2.5v-2.21c-0.15-0.19-0.52-0.52-0.52-0.84c-0.14-0.16-0.25-0.34-0.32-0.54c-0.07-0.2-0.1-0.41-0.08-0.63
		c0.01-0.49,0.15-0.97,0.4-1.4c0.12-0.24,0.52-0.46,0.78-0.71v-1.96c-0.18-0.16-0.31-0.36-0.4-0.57c-0.1-0.12-0.17-0.26-0.21-0.41
		c-0.04-0.15-0.06-0.3-0.04-0.46c-0.04-0.41,0.04-0.82,0.26-1.17c0.15-0.12,0.4-0.53,0.66-0.53v-1.95l0.65-15.56
		c0.13-0.22,0.13-0.46,0.39-0.46c0.06,0,0.11,0.02,0.16,0.04c0.05,0.02,0.1,0.06,0.13,0.1c0.04,0.04,0.07,0.09,0.09,0.15
		c0.02,0.05,0.02,0.11,0.02,0.17l0.75,15.57l0.15,1.95c0.12,0,0.26,0.41,0.51,0.53c0.12,0.52,0.27,0.57,0.27,1.17
		c0,0.27-0.15,0.58-0.15,0.86c-0.37,0.31-0.37,0.46-0.52,0.58v1.95c0.25,0.25,0.52,0.47,0.78,0.71c0.22,0.43,0.32,0.91,0.28,1.4
		c0,0.47,0,0.96-0.28,1.17c-0.04,0.18-0.12,0.34-0.23,0.48c-0.11,0.14-0.25,0.26-0.4,0.36v2.21c1.03,0.62,2.46,1.32,3.63,2.5
		c1.29,0.83,2.6,2.09,3.1,3.45c0.66,1.15,0.8,2.46,0.8,3.58c-0.13,0.92-0.26,2.02-0.4,2.65c4.15,2.25,9.25,5.36,13.92,9.54
		c1.17,0.83,2.32,1.61,3.37,2.79h1.03l0.28-28.1h-0.54c-0.21,0.01-0.43-0.02-0.63-0.09c-0.2-0.07-0.38-0.18-0.54-0.33
		c-0.16-0.15-0.28-0.32-0.37-0.52c-0.09-0.19-0.14-0.4-0.15-0.62c0.01-0.45,0.19-0.88,0.5-1.2c0.31-0.32,0.74-0.5,1.19-0.52h0.54
		l0.12-22.8h-0.66c-0.37,0-0.72-0.15-0.99-0.4c-0.27-0.26-0.42-0.61-0.44-0.98c0-0.97,0.26-1.29,1.05-1.29v-6.95h-0.79
		c-0.26,0-0.66-0.25-0.66-0.87c0.03-0.16,0.11-0.31,0.23-0.42c0.12-0.11,0.27-0.18,0.43-0.2h1.04c-0.4-1.32-1.05-3.59,0.12-6.1
		c0.7-1.13,1.58-2.13,2.61-2.96c1.03-0.87,2.12-1.68,3.26-2.41c-0.14,0-0.14-0.08-0.14-0.46c-0.01-0.13,0.01-0.26,0.05-0.39
		c0.04-0.12,0.12-0.24,0.21-0.33c0.13-0.46,0.25-0.77,0.65-0.92c0.38-0.26,0.52-0.46,0.9-0.57v-0.52c0,0-0.26,0-0.26-0.34
		c0,0-0.13,0-0.13-0.19c0,0,0.13,0,0.13-0.19l0.26-0.4v-0.62l-0.26-0.03c0-0.12,0.26-0.12,0.26-0.12v-0.74l0.28-3.5
		c0-0.22,0-0.22,0.12-0.22v0.22l0.15,3.5v0.38c0.12,0,0.12,0,0.12,0.36c0.13,0,0.13,0,0.13,0.12c0,0,0,0.03-0.13,0.03v0.62l0.13,0.4
		l0.13,0.19c0,0.19,0,0.19-0.13,0.19c0,0.34,0,0.34-0.13,0.34v0.52c0.32,0.16,0.63,0.36,0.92,0.57c0.17,0.1,0.31,0.24,0.43,0.39
		c0.11,0.16,0.19,0.34,0.24,0.53c0.13,0.22,0.22,0.46,0.26,0.72c0,0.38-0.12,0.46-0.26,0.46c0.92,0.72,2.32,1.5,3.38,2.41
		c0.99,0.87,1.87,1.86,2.6,2.96c1.03,2.52,0.63,4.78,0,6.1h0.89c0.16,0.02,0.31,0.09,0.43,0.2c0.12,0.11,0.19,0.26,0.22,0.42
		c0,0.62-0.39,0.87-0.65,0.87h-0.63v6.95c0.63,0,1.03,0.31,1.03,1.29c0,0.19-0.03,0.37-0.1,0.55c-0.07,0.17-0.18,0.33-0.31,0.46
		c-0.13,0.13-0.29,0.23-0.47,0.29c-0.18,0.07-0.36,0.09-0.55,0.08h-0.64l0.12,22.8h11.84l0.25-70.09h-2.6c-1.94,0-3.5-1.69-3.5-3.38
		c0-1.95,1.56-3.33,3.5-3.33h2.62l0.4-50.43h-1.03c-1.57,0-2.88-1.12-2.88-2.81c0-0.38,0.08-0.75,0.22-1.1s0.36-0.67,0.63-0.93
		c0.27-0.27,0.59-0.48,0.94-0.62c0.35-0.14,0.72-0.21,1.1-0.21h1.03l0.12-40.98h-1.16c-0.71-0.01-1.38-0.31-1.87-0.82
		c-0.49-0.51-0.76-1.2-0.75-1.91c0-1.09,0.92-2.09,2.23-2.37v-8.13l-0.27-0.28c0-0.16,0.27-0.36,0.27-0.72v-3.23h-1.18
		c-0.37-0.01-0.71-0.16-0.98-0.42c-0.26-0.26-0.42-0.6-0.45-0.97c0-0.71,0.65-1.23,1.43-1.23h1.44c-0.78-2.15-1.57-6.52,0.13-10.69
		c0.9-2.03,2.85-4.04,4.67-5.62c1.85-1.49,3.85-2.78,5.96-3.85c-0.11-0.38-0.15-0.78-0.12-1.17c-0.12-0.31,0-0.9,0.12-1.42
		c0.38-0.58,0.82-1.13,1.31-1.62c0.52-0.34,1.04-0.62,1.57-1v-0.88c-0.08-0.07-0.17-0.12-0.28-0.14c-0.11-0.2-0.15-0.43-0.12-0.66
		c0-0.18,0.04-0.35,0.12-0.52c0.14-0.14,0.28-0.14,0.28-0.28l0.26-0.84c-0.26-0.18-0.26-0.18-0.26-0.31c-0.14,0-0.14-0.14-0.14-0.14
		c0-0.52,0-0.52,0.14-0.66c0-0.06,0-0.06,0.26-0.4v-0.63l0.24-6.57l0.15-0.14l0.13,0.14l0.25,6.57l0.26,0.63c0,0.34,0,0.34,0.12,0.4
		c0,0.14,0.15,0.14,0.15,0.58c0,0,0,0.22-0.15,0.22c-0.05,0.03-0.08,0.08-0.1,0.14c-0.02,0.05-0.03,0.11-0.01,0.17v0.84
		c0.12,0.14,0.26,0.14,0.26,0.28c0.03,0.18,0.11,0.34,0.25,0.46c0,0.31-0.25,0.58-0.25,0.72c-0.07,0.07-0.17,0.12-0.26,0.14v0.88
		c0.52,0.4,1.04,0.66,1.57,1c0.53,0.46,0.96,1.01,1.29,1.62c0.19,0.45,0.28,0.93,0.25,1.42c0.03,0.39-0.01,0.79-0.13,1.17
		c1.69,0.86,3.78,2.3,5.87,3.85c1.95,1.5,3.55,3.42,4.66,5.62c1.84,4.17,0.92,8.53,0.15,10.69h1.29c0.17-0.01,0.34,0.01,0.49,0.07
		c0.16,0.06,0.3,0.15,0.42,0.26c0.12,0.12,0.22,0.26,0.28,0.41c0.07,0.16,0.1,0.32,0.09,0.49c0.01,0.35-0.13,0.69-0.37,0.95
		c-0.24,0.26-0.57,0.41-0.92,0.43h-1.03v12.35c0.53,0.13,0.99,0.43,1.32,0.87c0.33,0.43,0.5,0.96,0.49,1.51
		c0,1.5-1.04,2.73-2.35,2.73h-1.43l0.28,40.98h1.15c0.38,0,0.75,0.07,1.1,0.21c0.35,0.14,0.66,0.35,0.93,0.62
		c0.27,0.27,0.48,0.58,0.62,0.93c0.14,0.35,0.22,0.72,0.21,1.1c0.01,0.38-0.06,0.75-0.21,1.1c-0.14,0.35-0.35,0.66-0.62,0.93
		c-0.27,0.26-0.59,0.47-0.94,0.6c-0.35,0.14-0.72,0.2-1.1,0.18h-1.16l0.25,50.45h2.98c0.59,0.01,1.17,0.16,1.69,0.44
		c5.58-8,13-15.34,21.33-22.13c11.43-9.65,24.3-17.6,34.71-23.52c-0.66-1.63-0.92-3.78-1.06-6.14c-0.25-2.61,0.26-5.86,1.57-9.1
		c1.41-3.27,4.55-6.4,7.67-9.01c3.11-2.21,6.49-4.11,8.97-5.6l0.26-5.49c-0.72-0.48-1.3-1.13-1.7-1.89
		c-0.52-0.86-0.65-1.81-0.65-3.05c0-1.03,0.13-2.19,0.65-3.08c0.66-0.84,1.29-1.63,2.09-2.07l0.26-4.71
		c-0.52-0.52-0.92-0.95-1.31-1.35c-0.38-0.99-0.63-1.63-0.63-2.55c0-0.86,0.27-1.7,0.77-2.41c0.34-0.66,0.89-1.19,1.56-1.51
		l0.12-5.33l1.57-37.35c-3.37,0-7.02-0.98-10.26-2.59c-3.39-2.15-6.11-4.96-7.67-8.37c1.37,1.88,3.14,3.43,5.19,4.52
		c8.33,4.92,19.24,2.07,24.08-6.27c2.36-4.07,3.02-8.92,1.82-13.47c-1.2-4.56-4.15-8.45-8.2-10.83c-2.09-0.97-4.3-1.87-6.64-2.05
		c3.63-0.34,7.55,0.71,10.93,2.58c2.24,1.26,4.2,2.96,5.77,4.99c1.57,2.03,2.73,4.36,3.39,6.84c0.66,2.48,0.83,5.08,0.48,7.62
		c-0.35,2.55-1.2,5-2.51,7.21c-1.5,2.61-3.59,4.84-6.09,6.51c-2.5,1.67-5.35,2.75-8.33,3.14l1.84,37.54l0.12,5.33
		c0.66,0.28,1.06,0.8,1.45,1.51c0.52,0.54,0.64,1.43,0.64,2.41c0.01,0.88-0.16,1.75-0.52,2.55c-0.35,0.49-0.74,0.94-1.18,1.35
		l0.15,4.71c0.8,0.53,1.47,1.24,1.94,2.07c0.55,0.93,0.86,1.99,0.9,3.08c-0.02,1.06-0.29,2.1-0.78,3.05
		c-0.37,0.8-1.03,1.31-1.54,1.89l0.25,5.49c2.46,1.49,5.73,3.38,8.86,5.6c3.23,2.61,6.21,5.74,7.67,9.01
		c1.41,3.18,1.67,6.5,1.54,9.1c-0.04,2.09-0.38,4.15-1.03,6.14c10.52,5.92,23.4,13.87,34.83,23.52
		c11.71,9.64,22.23,21.02,27.43,32.78c11.84,27.1,4.82,53.75,0.4,65.72h13.91v32.66c1.29-1.09,2.46-2.46,3.89-3.62
		c3.64-2.89,7.67-5.3,10.92-7.2c-0.14-0.56-0.4-1.03-0.4-2.01c0-0.8,0-1.88,0.66-2.62c0.25-1.23,1.29-2.06,2.34-2.78
		c0.8-0.78,1.72-1.43,2.73-1.9v-1.69c-0.12-0.13-0.26-0.58-0.52-0.66c0-0.52-0.14-0.57-0.14-0.83c0-0.52,0.14-0.6,0.4-1.12
		c0.12-0.28,0.29-0.53,0.52-0.73v-1.28c-0.12-0.16-0.26-0.52-0.37-0.52c-0.11-0.22-0.16-0.47-0.14-0.72c0-0.34,0-0.65,0.26-0.65
		c0-0.52,0.26-0.52,0.4-0.52v-1.64l0.64-12.22c0,0,0.11-0.25,0.24-0.25c0.13,0,0.28,0.25,0.28,0.25l0.49,12.19l0.15,1.65
		c0.12,0,0.26,0,0.4,0.52c0.25,0,0.25,0.31,0.25,0.65c0.02,0.25-0.03,0.5-0.13,0.72c-0.12,0-0.25,0.36-0.52,0.52l0.12,1.28
		c0.28,0.22,0.53,0.68,0.66,0.74c0.13,0.52,0.25,0.59,0.25,1.12c0,0.26-0.12,0.31-0.25,0.83c-0.13,0.09-0.26,0.53-0.52,0.66
		l0.14,1.69c0.97,0.54,1.88,1.18,2.72,1.9c1.04,0.72,1.95,1.54,2.46,2.78c0.37,0.82,0.56,1.71,0.54,2.61
		c-0.09,0.68-0.23,1.35-0.4,2.01c0.92,0.62,2.21,1.12,3.24,1.89l0.14-23.73h-0.52c-0.92,0-1.69-0.64-1.69-1.54
		c0-0.74,0.78-1.78,1.69-1.78h0.52l0.12-22.56h-0.64c-0.39-0.03-0.75-0.2-1.02-0.49c-0.26-0.28-0.41-0.66-0.41-1.05
		c0-0.65,0.38-1.18,1.03-1.59v-6.55h-0.65c-0.24,0-0.64-0.62-0.64-1.12c0-0.26,0.4-0.46,0.64-0.46h0.92
		c-0.38-1.1-0.92-3.65,0.13-6.12c0.52-1.18,1.56-2.15,2.61-3.08c1.06-0.83,2.19-1.56,3.38-2.19c-0.13-0.08-0.13-0.41-0.13-0.62
		c-0.01-0.27,0.04-0.54,0.13-0.8c0-0.43,0.38-0.56,0.63-0.92c0.33-0.19,0.64-0.41,0.92-0.66v-0.24c0-0.13-0.13-0.13-0.26-0.13v-0.5
		c0,0,0-0.09,0.13-0.09c0-0.34,0.13-0.34,0.13-0.34v-0.37v-0.31h-0.13c0,0,0-0.34,0.13-0.34c0-0.24,0-0.24,0.13-0.24v-0.43
		l0.12-3.58h0.14l0.12,3.58v0.46c0.11,0,0.26,0,0.26,0.24v0.34l-0.15,0.31v0.37c0.15,0,0.15,0,0.28,0.34v0.58
		c-0.13,0-0.13,0-0.28,0.14l0.15,0.24c0.18,0.3,0.45,0.54,0.78,0.66c0.28,0.36,0.66,0.48,0.79,0.92v1.32
		c0.92,0.63,2.21,1.35,3.38,2.27c1.04,0.92,2.09,1.89,2.46,3.08c1.03,2.46,0.64,5.02,0.13,6.12h0.78c0.26,0,0.64,0.2,0.64,0.46
		c0,0.52-0.38,1.12-0.64,1.12h-0.64v6.55c0.65,0.41,1.16,0.94,1.16,1.59c-0.03,0.4-0.21,0.78-0.49,1.06
		c-0.29,0.28-0.67,0.45-1.07,0.47h-0.64l0.14,22.56h0.5c0.92,0,1.69,1.04,1.69,1.78c0,0.9-0.76,1.54-1.69,1.54h-0.5l0.12,15.38
		c2.34-4.03,6.24-8.27,10.54-11.58c4.81-4.04,10.13-7.49,14.55-10.15c-0.12-0.53-0.26-1.45-0.38-2.27
		c-0.05-1.35,0.17-2.69,0.63-3.95c0.71-1.56,1.84-2.89,3.26-3.85c1.15-0.86,2.37-1.63,3.64-2.31l0.26-2.31
		c-0.26-0.06-0.52-0.52-0.77-0.98c-0.2-0.3-0.33-0.63-0.4-0.98c0-0.53,0.19-1.05,0.52-1.47c0.06-0.18,0.17-0.35,0.3-0.48
		c0.13-0.14,0.3-0.24,0.48-0.31l0.13-1.95c-0.13-0.07-0.25-0.17-0.34-0.3c-0.09-0.12-0.15-0.27-0.18-0.41
		c-0.14-0.12-0.26-0.52-0.26-1.06c0.02-0.31,0.11-0.62,0.26-0.9c0.21-0.31,0.38-0.65,0.52-1l0.26-1.79l0.65-16.24
		c0-0.19,0.12-0.19,0.4-0.19c0.12,0,0.38,0,0.38,0.19l0.63,16.24l0.14,1.79c0.25,0.36,0.52,0.6,0.78,1c0,0.2,0.13,0.72,0.13,0.9
		c-0.01,0.36-0.06,0.71-0.13,1.06c-0.19,0.26-0.41,0.5-0.66,0.71l0.14,1.95c0.4,0.12,0.52,0.46,0.78,0.8c0.26,0.34,0.4,0.9,0.4,1.47
		c-0.01,0.37-0.15,0.72-0.4,0.98c-0.12,0.46-0.26,0.92-0.52,0.98v2.31c1.05,0.46,2.34,1.35,3.64,2.31c1.43,0.99,2.74,2.31,3.38,3.85
		c0.48,1.26,0.7,2.6,0.65,3.95c-0.04,0.77-0.17,1.53-0.4,2.27c3.92,2.34,8.73,5.35,13.15,8.99l0.25-44.52h-1.54
		c-0.59,0-1.18-0.12-1.72-0.35c-0.55-0.23-1.04-0.57-1.45-0.99c-0.41-0.43-0.74-0.93-0.95-1.48c-0.22-0.55-0.32-1.14-0.31-1.74
		c0-2.65,1.94-4.56,4.44-4.56h1.54l0.4-62.54h-1.95c-2.09,0-3.89-1.89-3.89-4c0.02-0.92,0.34-1.8,0.9-2.53
		c0.56-0.72,1.34-1.25,2.22-1.5v-26.58l-0.13-0.34c0-0.46,0.13-0.58,0.13-1.04v-4.88h-1.71c-0.55-0.02-1.07-0.25-1.45-0.64
		c-0.38-0.39-0.6-0.92-0.61-1.47c-0.01-0.28,0.03-0.56,0.12-0.82c0.1-0.26,0.25-0.5,0.44-0.7c0.19-0.2,0.43-0.36,0.68-0.46
		c0.26-0.11,0.53-0.16,0.81-0.15h2.23c-1.17-3.27-2.48-9.7,0.38-16.22c1.29-3.21,4.17-5.92,7.15-8.41c2.76-2.38,5.76-4.45,8.96-6.18
		c-0.12-0.54-0.25-1.17-0.37-1.51c0.01-0.85,0.19-1.68,0.52-2.46c0.38-0.66,1.15-1.69,1.93-2.15c0.79-0.53,1.71-1.04,2.35-1.69
		v-1.23c-0.12-0.34-0.25-0.34-0.38-0.58c-0.14-0.19-0.14-0.27-0.14-0.71c0,0,0-0.66,0.14-0.72c0.13-0.14,0.38-0.54,0.52-0.54
		l0.15-1.35c-0.15-0.14-0.28-0.14-0.4-0.46c-0.1-0.13-0.15-0.29-0.13-0.46c-0.02-0.31,0.06-0.61,0.25-0.86
		c0.01-0.07,0.05-0.13,0.1-0.17c0.05-0.05,0.12-0.07,0.18-0.08l0.12-1.23l0.38-10.17c0.08-0.06,0.18-0.1,0.28-0.12
		c0.01,0,0.03,0,0.04,0.01c0.01,0.01,0.03,0.01,0.04,0.03c0.01,0.01,0.02,0.02,0.03,0.04c0.01,0.01,0.01,0.03,0.01,0.05l0.53,10.17
		v1.23c0.24,0,0.24,0.14,0.5,0.25c0.1,0.27,0.15,0.56,0.13,0.86c0.01,0.08,0,0.16-0.02,0.24c-0.02,0.08-0.06,0.15-0.11,0.22
		c0,0.31-0.25,0.31-0.38,0.46l0.13,1.35c0.25,0,0.39,0.4,0.53,0.54l0.12,0.63c0,0.53,0,0.62-0.12,0.8
		c-0.15,0.25-0.15,0.25-0.53,0.58l0.25,1.23c0.54,0.65,1.45,1.17,2.23,1.69c0.78,0.46,1.54,1.49,1.94,2.15
		c0.29,0.79,0.41,1.62,0.38,2.46c0.03,0.52-0.06,1.03-0.26,1.51c2.76,1.41,5.99,3.71,8.99,6.18c3.13,2.49,5.7,5.2,7.14,8.41
		c2.86,6.52,1.43,12.95,0.4,16.22h1.84c0.28-0.01,0.56,0.04,0.81,0.15c0.26,0.11,0.49,0.26,0.69,0.46c0.19,0.2,0.35,0.44,0.44,0.7
		c0.1,0.26,0.14,0.54,0.12,0.82c-0.01,0.55-0.23,1.08-0.62,1.47c-0.38,0.39-0.91,0.62-1.45,0.64h-1.56v32.84
		c1.69,0.51,3.12,2.21,3.12,4.02c-0.03,1.06-0.46,2.07-1.21,2.82c-0.75,0.75-1.76,1.17-2.82,1.18h-1.94l0.4,62.54h1.53
		c2.48,0,4.44,1.91,4.44,4.56c0.01,0.59-0.09,1.18-0.31,1.74c-0.22,0.55-0.54,1.05-0.95,1.48c-0.41,0.43-0.91,0.76-1.45,1
		c-0.55,0.23-1.13,0.35-1.72,0.35h-1.43l0.25,77.02h4.44c0.67,0,1.33,0.12,1.94,0.38c0.62,0.25,1.18,0.63,1.65,1.1
		c0.47,0.47,0.84,1.03,1.1,1.65c0.25,0.62,0.38,1.28,0.38,1.95c0,2.67-2.34,5.21-5.07,5.21h-4.3l0.53,107.74H475.99v-95.27h7.93
		c-1.17-4.49-2.2-11.12,0.92-18.29c1.69-3.65,4.82-7.1,8.71-10.23c3.46-2.78,7.11-5.31,10.93-7.57c-0.28-0.31-0.4-1.03-0.4-1.7
		c0-1.03,0-1.75,0.52-2.84c0.52-1.06,1.44-2.04,2.35-2.87c1.03-0.94,2.09-1.31,2.72-1.9l0.26-1.69c-0.12-0.05-0.23-0.13-0.32-0.23
		c-0.09-0.1-0.16-0.22-0.19-0.35c-0.15-0.26-0.24-0.55-0.26-0.85c0-0.58,0.12-0.66,0.26-1.18c0.22-0.16,0.44-0.33,0.64-0.52v-1.38
		c-0.11-0.07-0.2-0.16-0.26-0.27c-0.07-0.11-0.11-0.24-0.12-0.36c0-0.16-0.13-0.54-0.13-0.66c0.02-0.24,0.06-0.48,0.13-0.71
		c0.13-0.2,0.38-0.52,0.64-0.52v-1.64l0.64-12.2c0-0.25,0-0.25,0.14-0.25c0.14,0,0.25,0,0.25,0.25l0.52,12.19l0.14,1.65
		c0.25,0,0.38,0.31,0.52,0.52c0.06,0.23,0.1,0.47,0.12,0.71c0,0.12-0.12,0.5-0.12,0.66c-0.07,0.24-0.21,0.46-0.4,0.64l0.14,1.38
		c0.05,0.12,0.12,0.22,0.21,0.31c0.09,0.09,0.2,0.16,0.31,0.21c0.13,0.52,0.25,0.59,0.25,1.18c0,0.25-0.12,0.58-0.12,0.86
		c-0.28,0.31-0.4,0.44-0.53,0.57v1.69c0.92,0.58,1.82,0.96,2.74,1.9c1.01,0.77,1.85,1.75,2.46,2.87c0.35,0.91,0.52,1.87,0.52,2.84
		c-0.14,0.66-0.14,1.38-0.4,1.69c3.26,2.02,7.3,4.71,11.05,7.57c3.63,3.13,7.01,6.58,8.59,10.23c3.12,7.17,2.07,13.8,1.04,18.29h4.3
		l0.12-44.44h-1.95c-0.29,0.01-0.57-0.04-0.84-0.14c-0.27-0.1-0.51-0.26-0.72-0.46c-0.21-0.2-0.37-0.44-0.48-0.7
		c-0.11-0.26-0.17-0.55-0.17-0.83c0-1.37,0.92-2.53,2.2-2.53h1.95l0.14-35.33h-0.52c-0.53,0.02-1.05-0.18-1.44-0.54
		c-0.39-0.37-0.62-0.87-0.64-1.4c-0.01-0.28,0.04-0.55,0.14-0.81c0.1-0.26,0.26-0.49,0.45-0.68c0.2-0.2,0.43-0.35,0.69-0.45
		c0.26-0.1,0.53-0.15,0.81-0.14h0.52l0.4-28.89h-0.92c-1.03,0-1.83-0.58-1.83-1.76c0-0.71,0.66-1.42,1.43-1.54v-12.32l-0.12-0.25
		c0.1-0.13,0.14-0.3,0.12-0.46v-2.21h-0.77c-0.52,0-1.04-0.26-1.04-0.94c0.02-0.27,0.14-0.51,0.33-0.7c0.19-0.19,0.44-0.3,0.71-0.31
		h1.03c-0.52-1.56-1.15-4.5,0.14-7.43c0.52-1.49,1.82-2.81,3.26-3.78c1.27-1.14,2.66-2.14,4.16-2.97c-0.14-0.16-0.14-0.34-0.14-0.68
		c-0.02-0.31,0.03-0.63,0.14-0.92c0.25-0.41,0.56-0.78,0.92-1.09c0.38-0.18,0.73-0.43,1.03-0.72v-0.65c0-0.25,0-0.25-0.14-0.31v-0.8
		c0.14,0,0.14-0.18,0.14-0.18l0.12-0.46c-0.12,0-0.12,0-0.12-0.18v-0.62c0-0.02,0-0.03,0.01-0.05c0.01-0.01,0.01-0.03,0.03-0.04
		c0.01-0.01,0.02-0.02,0.04-0.03c0.01-0.01,0.03-0.01,0.05-0.01v-0.8l0.26-4.28c0-0.4,0.14-0.4,0.14-0.4s0.12,0,0.12,0.4l0.26,4.28
		v0.8h0.14c0.09,0.11,0.14,0.24,0.14,0.38c0,0,0,0.34-0.14,0.34c0,0.18,0,0.18-0.14,0.18l0.14,0.46c0,0,0.14,0.18,0.26,0.18v0.8
		c-0.12,0.07-0.26,0.07-0.26,0.31v0.65c0.3,0.3,0.66,0.55,1.06,0.72c0.37,0.28,0.78,0.74,0.78,1.09c0.19,0.27,0.28,0.6,0.25,0.92
		v0.68c1.45,0.9,2.84,1.89,4.16,2.97c1.29,0.97,2.6,2.29,3.12,3.78c1.43,2.93,0.65,5.88,0.14,7.43h1.03c0.13,0,0.26,0.03,0.37,0.08
		c0.12,0.05,0.22,0.13,0.31,0.22c0.09,0.1,0.15,0.21,0.19,0.33c0.04,0.12,0.05,0.25,0.04,0.38c0,0.68-0.28,0.94-0.92,0.94h-0.77
		v15.24c0.37,0.06,0.71,0.25,0.97,0.53c0.26,0.28,0.41,0.63,0.44,1.01c0,1.18-0.9,1.76-1.95,1.76h-0.78l0.14,28.89h0.62
		c1.18,0,2.23,0.84,2.23,2.08c0,1.05-1.06,1.95-2.23,1.95h-0.64l0.25,35.33h1.95c1.29,0,2.35,1.16,2.35,2.53
		c0,1.18-1.06,2.13-2.35,2.13h-1.95l0.12,44.44h6.75v-7.15h-0.89c-0.92,0-1.69-0.64-1.69-1.52c0-1.01,0.77-1.87,1.69-1.87h0.89
		c-1.67-4.05-6.1-16.88-0.38-30.08c2.21-5.15,6.75-10.19,11.95-14.19c4.76-3.88,9.85-7.33,15.21-10.32
		c-0.25-0.85-0.37-1.73-0.37-2.61c-0.26-1.37,0-2.61,0.52-4c0.66-1.62,1.94-2.93,3.38-3.94c1.31-0.98,2.86-1.7,3.89-2.42l0.14-2.55
		c-0.19-0.03-0.37-0.11-0.51-0.24c-0.14-0.13-0.24-0.31-0.28-0.49c-0.12-0.44-0.38-0.72-0.38-1.3c0-0.52,0.26-0.72,0.52-1.27
		c0-0.48,0.37-0.62,0.92-0.74v-2.33c-0.25-0.08-0.4-0.28-0.54-0.59c-0.23-0.36-0.35-0.78-0.37-1.2c0-0.15,0.26-0.52,0.37-0.96
		c0.29-0.31,0.29-0.52,0.8-0.58v-2.34l0.65-16.71c0-0.09,0.26-0.24,0.38-0.24c0.28,0,0.4,0.15,0.4,0.24l0.78,16.71v2.34
		c0.38,0.06,0.66,0.26,0.66,0.58c0.24,0.26,0.38,0.6,0.37,0.96c0,0.56,0,1-0.37,1.2c0.01,0.11-0.01,0.23-0.06,0.33
		c-0.05,0.1-0.12,0.19-0.22,0.26v2.34c0.28,0.14,0.65,0.26,0.79,0.74c0.26,0.55,0.38,0.75,0.38,1.27c0,0.44-0.09,0.89-0.26,1.3
		c-0.15,0.29-0.37,0.55-0.63,0.74v2.55c1.17,0.72,2.46,1.44,3.89,2.42c1.44,0.98,2.72,2.33,3.38,3.94c0.51,1.27,0.78,2.63,0.79,4
		c-0.28,0.84-0.28,1.75-0.66,2.61c4.68,2.46,10.13,6.2,15.21,10.32c5.08,4,9.63,9.04,11.83,14.19c5.73,13.21,1.29,26.04-0.26,30.08
		h0.8c0.5,0,0.99,0.19,1.35,0.54c0.36,0.35,0.58,0.82,0.6,1.33c0,0.88-0.92,1.52-1.95,1.52h-0.25v7.15h4.3v-37.46h-0.14l0.14-18.77
		v-1.71l0.12-10.03h-1.71c-0.5-0.01-0.98-0.21-1.35-0.56c-0.36-0.35-0.58-0.83-0.6-1.33c0.03-0.5,0.24-0.96,0.61-1.3
		c0.36-0.34,0.85-0.52,1.34-0.5h1.69l0.14-28.15h-0.65c-0.38-0.01-0.75-0.16-1.04-0.42c-0.28-0.26-0.47-0.61-0.52-1
		c0-1.12,0.66-1.69,1.55-1.69h0.65v-22.96h-0.65c-0.18,0.01-0.37-0.02-0.54-0.08c-0.17-0.06-0.33-0.16-0.46-0.29
		c-0.13-0.13-0.24-0.28-0.31-0.45c-0.07-0.17-0.11-0.35-0.11-0.54c0-0.78,0.54-1.46,1.04-1.46v-6.81h-0.5
		c-0.17-0.01-0.33-0.08-0.45-0.2c-0.12-0.12-0.19-0.28-0.21-0.45c0-0.52,0.26-0.92,0.66-0.92h0.77c-0.27-1.3-0.77-3.59,0.13-5.82
		c0.53-1.24,1.44-2.29,2.6-2.99c1.02-0.96,2.15-1.78,3.38-2.46c-0.14,0-0.14-0.26-0.14-0.56c-0.01-0.25,0.04-0.49,0.14-0.72
		c0.16-0.36,0.37-0.7,0.63-0.99c0.4-0.19,0.54-0.25,0.94-0.4v-0.65c-0.14,0-0.14,0-0.14-0.31v-0.4l0.14-0.26l0.12-0.28l-0.12-0.31
		h-0.14v-0.16c0-0.18,0-0.18,0.14-0.26l0.12-0.24v-0.28l0.12-3.71h0.26l0.14,3.71v0.28l0.14,0.24c0.04,0.03,0.07,0.07,0.09,0.12
		c0.02,0.05,0.03,0.09,0.03,0.14c0,0-0.12,0-0.12,0.16v0.58c0,0,0,0.26,0.12,0.26v0.4c0,0.31-0.12,0.31-0.12,0.31v0.65
		c0.24,0.15,0.63,0.21,0.78,0.4c0.31,0.29,0.57,0.62,0.78,0.99c0.14,0.12,0.14,0.56,0.14,0.72c0,0.31,0,0.56-0.14,0.56
		c1.19,0.66,2.28,1.49,3.24,2.46c1.26,0.61,2.24,1.68,2.74,2.99c1.03,2.22,0.52,4.52,0,5.82h0.76c0.22,0.02,0.43,0.13,0.57,0.31
		c0.14,0.17,0.21,0.39,0.2,0.62c-0.04,0.18-0.13,0.34-0.27,0.46c-0.14,0.12-0.31,0.19-0.5,0.2h-0.52v6.81
		c0.52,0,0.92,0.68,0.92,1.46c0.01,0.18-0.01,0.36-0.07,0.53c-0.06,0.17-0.16,0.32-0.28,0.45c-0.12,0.13-0.28,0.23-0.44,0.29
		c-0.17,0.07-0.34,0.1-0.52,0.09L659.82,198.88z M1200.09,237.84h-2.33v-2.71c0,0,0-0.15,0.25-0.2c0.13-0.46,0-0.52,0-0.77
		c-0.51-1.44,1.18-1.69,1.95-2.35c0.53,0.52,0.4,1.43-0.12,2.35c-0.01,0.26,0.03,0.52,0.12,0.77c0.04,0.02,0.07,0.05,0.09,0.09
		c0.02,0.03,0.03,0.08,0.03,0.12V237.84z M1195.04,237.84h-5.47v-2.71c0,0,0-0.15,0.26-0.2c0.26-0.46,0-0.52,0-0.77
		c-0.52-1.85,2.21-1.69,2.45-2.87c0.37,1.18,3.26,1.03,2.6,2.87c-0.12,0.25-0.26,0.31,0,0.77c0.04,0.02,0.08,0.04,0.1,0.08
		c0.02,0.04,0.04,0.08,0.04,0.12L1195.04,237.84z M1186.84,237.84h-2.35v-2.71c0,0,0-0.15,0.26-0.2c0.06-0.25,0.06-0.52,0-0.77
		c-0.4-0.92-0.54-1.85,0-2.35c0.78,0.66,2.46,0.92,1.81,2.35c-0.01,0.26,0.04,0.53,0.15,0.77c0.25,0.06,0.13,0.2,0.13,0.2V237.84z
		 M935.67,241.06h-2.2v-2.61c-0.05-0.09-0.07-0.2-0.07-0.31c0-0.11,0.02-0.21,0.07-0.31c0.26-0.1,0.14-0.18,0-0.69
		c-0.4-1.23,1.18-1.56,2.07-2.15c0.4,0.6,0.28,1.32,0,2.15c-0.25,0.52-0.25,0.59,0,0.69c0.07,0.2,0.12,0.4,0.13,0.62V241.06z
		 M930.49,241.06h-5.34v-2.61c0.01-0.21,0.06-0.41,0.12-0.62c0.25-0.1,0.25-0.18,0.13-0.69c-0.65-1.56,2.19-1.56,2.46-2.74
		c0.38,1.18,2.98,1.18,2.61,2.74c-0.28,0.52-0.28,0.59,0,0.69c0.08,0.2,0.08,0.42,0,0.62L930.49,241.06z M922.42,241.06h-2.35v-2.61
		c0.02-0.21,0.06-0.42,0.14-0.62c0.12-0.1,0.12-0.18,0-0.69c-0.4-0.84-0.52-1.56,0-2.15c0.78,0.6,2.45,0.92,1.94,2.15
		c0,0.52-0.25,0.59,0,0.69c0.38,0.41,0.27,0.62,0.27,0.62V241.06z M825.31,266.84h2.6v-6.36c0.03-0.09,0.04-0.19,0.01-0.29
		c-0.03-0.1-0.08-0.18-0.16-0.25c-0.12-0.29-0.12-0.63,0-0.92c0.66-1.33-1.29-1.68-2.2-2.46c-0.52,0.52-0.38,1.29,0,2.46
		c0.12,0.29,0.12,0.63,0,0.92c-0.08,0.07-0.14,0.15-0.18,0.24c-0.04,0.09-0.07,0.19-0.07,0.29V266.84z M831.03,266.84h5.99v-6.36
		c0-0.19-0.05-0.37-0.15-0.53c-0.26-0.32-0.12-0.52,0-0.92c0.52-1.95-2.6-1.95-2.86-3.17c-0.38,1.23-3.37,1.23-2.72,3.17
		c0.12,0.4,0.25,0.59,0,0.92c-0.08,0.07-0.14,0.15-0.19,0.24c-0.04,0.09-0.07,0.19-0.07,0.29V266.84z M840.24,266.84h2.46v-6.36
		c0.03-0.11,0.03-0.22-0.02-0.32c-0.05-0.1-0.14-0.18-0.24-0.21c-0.13-0.32,0-0.52,0-0.92c0.4-1.18,0.52-1.95,0-2.46
		c-0.92,0.79-2.6,1.13-2.06,2.46c0,0.4,0.12,0.59-0.14,0.92v6.89H840.24z M667.33,266.84h2.61v-6.36c0-0.18-0.04-0.37-0.12-0.53
		c-0.28-0.32-0.14-0.52,0-0.92c0.52-1.33-1.18-1.68-2.21-2.46c-0.53,0.52-0.4,1.29,0,2.46c0,0.4,0.12,0.59-0.14,0.92
		c-0.09,0.16-0.14,0.35-0.14,0.53V266.84z M673.06,266.84h5.98v-6.36c0-0.19-0.05-0.37-0.14-0.53c-0.12-0.12-0.19-0.27-0.21-0.44
		c-0.02-0.17,0.01-0.34,0.1-0.48c0.77-1.95-2.46-1.95-2.61-3.17c-0.52,1.23-3.51,1.23-2.86,3.17c0,0.4,0.25,0.59,0,0.92
		c-0.08,0.07-0.14,0.15-0.19,0.24c-0.04,0.09-0.07,0.19-0.07,0.29V266.84z M682.16,266.84h2.6v-6.36c0-0.19-0.05-0.37-0.14-0.53
		c-0.26-0.32-0.26-0.52,0-0.92c0.14-1.18,0.54-1.95,0-2.46c-1.03,0.79-2.72,1.13-2.34,2.46c0.28,0.4,0.28,0.59,0,0.92
		c-0.08,0.17-0.12,0.35-0.12,0.53V266.84z M1297.46,145.21h-6.24v-21.48c-0.07-0.23-0.06-0.48,0.01-0.72
		c0.07-0.23,0.21-0.44,0.39-0.6c0.52-0.64,0.26-1.38,0-2.02c-1.31-3.59,2.98-4.31,5.45-6.14c1.29,1.5,0.77,3.53,0,6.14
		c-0.27,0.63-0.66,1.37,0,2.02c0.15,0.18,0.26,0.39,0.33,0.62c0.07,0.23,0.09,0.46,0.06,0.7V145.21z M1283.55,145.21h-14.83v-21.48
		c-0.02-0.23,0-0.47,0.07-0.7c0.07-0.23,0.18-0.44,0.33-0.62c0.66-0.64,0.4-1.38,0.26-2.02c-1.84-4.64,5.83-4.46,6.78-7.95
		c0.77,3.49,8.45,3.31,6.88,7.95c-0.4,0.63-0.51,1.37,0,2.02c0.18,0.16,0.32,0.37,0.41,0.6s0.12,0.47,0.1,0.72V145.21z
		 M1261.18,145.21h-6.5v-21.48c-0.02-0.23,0-0.47,0.07-0.7c0.07-0.23,0.18-0.44,0.33-0.62c0.66-0.64,0.26-1.38,0.12-2.02
		c-0.9-2.61-1.41-4.64-0.12-6.14c2.45,1.85,6.75,2.41,5.45,6.14c-0.26,0.63-0.52,1.37,0.25,2.02c0.24,0.4,0.38,0.85,0.4,1.31V145.21
		z M561.93,203.79h-2.72v-9.85c0,0-0.14-0.12,0.12-0.58c0.06-0.13,0.09-0.28,0.09-0.43c0-0.15-0.03-0.29-0.09-0.43
		c-0.52-1.75,1.43-2.03,2.6-2.67c0.52,0.46,0.4,1.37,0,2.67c-0.06,0.05-0.11,0.12-0.15,0.19c-0.03,0.07-0.05,0.15-0.05,0.24
		c0,0.08,0.02,0.16,0.05,0.24c0.03,0.07,0.08,0.14,0.15,0.19c0.12,0.47,0,0.58,0,0.58V203.79z M555.69,203.79h-6.89v-9.85
		c0.05-0.21,0.14-0.41,0.25-0.58c0.28-0.25,0.13-0.58,0-0.86c-0.64-2.21,2.74-2.03,3.26-3.64c0.38,1.61,3.9,1.43,3,3.64
		c0,0.28-0.13,0.62,0.25,0.86c0.07,0.19,0.11,0.39,0.13,0.58V203.79z M545.29,203.79h-2.86v-9.85c0,0-0.14-0.12,0.26-0.58
		c0.06-0.13,0.09-0.28,0.09-0.43c0-0.15-0.03-0.29-0.09-0.43c-0.4-1.3-0.66-2.21,0-2.67c1.04,0.64,3,0.92,2.35,2.67
		c0,0.28-0.14,0.62,0,0.86c0.38,0.47,0.25,0.58,0.25,0.58V203.79z M790.97,266.84h4.17v-3.45c0,0,0-0.24-0.39-0.7
		c-0.13-0.6-0.13-0.98,0-1.26c0.78-2.41-1.95-2.73-3.38-3.74c-0.77,0.75-0.52,2.05,0,3.74c0,0.28,0.26,0.66-0.12,1.26
		c-0.4,0.46-0.28,0.7-0.28,0.7L790.97,266.84z M799.94,266.84h9.38v-3.45c0,0,0-0.24-0.4-0.7c-0.1-0.2-0.15-0.41-0.15-0.63
		c0-0.22,0.05-0.44,0.15-0.63c1.18-2.99-3.78-2.99-4.3-5.14c-0.52,2.15-5.46,2.15-4.3,5.14c0.1,0.2,0.15,0.43,0.12,0.65
		c-0.02,0.22-0.11,0.44-0.25,0.61c-0.39,0.46-0.27,0.7-0.27,0.7L799.94,266.84z M813.99,266.84h4.16v-3.45c0,0,0-0.24-0.4-0.7
		c-0.09-0.2-0.14-0.41-0.14-0.63c0-0.22,0.05-0.43,0.14-0.63c0.66-1.69,0.92-2.99,0-3.74c-1.41,1.01-4.16,1.33-3.24,3.74
		c0.14,0.28,0.4,0.66-0.26,1.26c-0.14,0.21-0.23,0.45-0.26,0.7V266.84z M691.92,266.84h4.04v-3.45c0,0,0.13-0.24-0.26-0.7
		c-0.1-0.2-0.15-0.41-0.15-0.63c0-0.22,0.05-0.43,0.15-0.63c0.78-2.41-1.94-2.73-3.51-3.74c-0.78,0.75-0.52,2.05,0,3.74
		c0.28,0.28,0.4,0.66,0,1.26c-0.14,0.21-0.23,0.45-0.26,0.7V266.84z M700.76,266.84h9.36v-3.45c0,0,0.14-0.24-0.12-0.7
		c-0.53-0.6-0.28-0.98-0.13-1.26c1.03-2.99-3.78-2.99-4.3-5.14c-0.52,2.15-5.46,2.15-4.42,5.14c0.12,0.28,0.38,0.66,0,1.26
		c-0.4,0.46-0.4,0.7-0.4,0.7L700.76,266.84z M715.05,266.84h4.04v-3.45c-0.01-0.24-0.06-0.47-0.12-0.7c-0.52-0.6-0.4-0.98-0.26-1.26
		c0.52-1.69,0.9-2.99,0-3.74c-1.43,1.01-4.16,1.33-3.26,3.74c0.1,0.2,0.14,0.43,0.12,0.65c-0.02,0.22-0.1,0.44-0.24,0.61
		c-0.4,0.46-0.28,0.7-0.28,0.7V266.84z M867.17,169.3h-3v-10.02c0.04-0.21,0.13-0.41,0.25-0.59c0.15-0.28,0-0.38,0-0.92
		c-0.52-1.62,1.43-1.88,2.49-2.65c0.5,0.58,0.37,1.54,0,2.65c-0.28,0.53-0.28,0.63,0,0.92c0.37,0.46,0.25,0.59,0.25,0.59V169.3z
		 M860.79,169.3h-6.88v-10.02c0.04-0.21,0.13-0.41,0.26-0.59c0.12-0.28,0-0.38,0-0.92c-0.65-2.08,2.73-1.88,3.12-3.58
		c0.37,1.7,3.9,1.5,3.12,3.58c0,0.53-0.13,0.63,0.12,0.92c0.12,0.18,0.21,0.38,0.26,0.59V169.3z M850.53,169.3h-3.01v-10.02
		c0,0-0.12-0.14,0.15-0.59c0.25-0.28,0.25-0.38,0-0.92c-0.4-1.1-0.52-2.08,0-2.65c1.03,0.77,2.98,1.03,2.6,2.65
		c-0.13,0.53-0.28,0.63,0,0.92c0.13,0.18,0.21,0.38,0.26,0.59V169.3z M974.54,196.74c-0.12,0.38-0.37,0.44-0.52,0.92v-0.92H974.54z
		 M974.8,87.67h-4.28v-4.68c0,0-0.13-0.4,0.26-1.12c0.51-0.31,0.25-0.62,0.12-1.18c-0.92-2.27,1.94-2.65,3.52-4.02
		c0.92,1.15,0.52,2.41,0,4.02c-0.26,0.58-0.4,0.86,0.12,1.18c0.15,0.36,0.23,0.74,0.26,1.12V87.67z M965.57,87.67h-9.62v-4.68
		c0.01-0.38,0.05-0.75,0.12-1.12c0.4-0.31,0.15-0.62,0.15-1.18c-1.16-2.87,3.91-2.87,4.41-5.2h0.13c0.65,2.33,5.46,2.33,4.41,5.2
		c-0.12,0.58-0.25,0.86,0.14,1.18c0.14,0.36,0.23,0.74,0.26,1.12L965.57,87.67z M950.76,87.67h-4.16v-4.68
		c0.04-0.4,0.17-0.78,0.38-1.12c0.25-0.31,0.25-0.62,0-1.18c-0.52-1.62-0.78-3.13,0-4.02c1.54,1.37,4.3,1.75,3.51,4.02
		c0,0.58-0.25,0.86,0,1.18c0.52,0.72,0.26,1.12,0.26,1.12V87.67z M660.57,196.04h-2.32v-2.68c0.01-0.2,0.05-0.39,0.12-0.58
		c0.14,0,0.14-0.47,0-0.66c-0.4-1.37,1.31-1.43,1.95-2.09c0.65,0.44,0.4,1.18,0,2.09c-0.12,0.18-0.12,0.66,0,0.66
		c0.4,0.32,0.25,0.58,0.25,0.58V196.04z M655.38,196.04h-5.22v-2.68c-0.07-0.19-0.07-0.39,0-0.58c0.14,0,0.14-0.47,0-0.66
		c-0.52-1.65,2.23-1.65,2.61-2.86c0.25,1.21,2.97,1.21,2.46,2.86c-0.11,0.18-0.11,0.66,0,0.66c0.08,0.18,0.13,0.38,0.14,0.58
		L655.38,196.04z M647.19,196.04h-2.34v-2.68c0.01-0.2,0.05-0.39,0.12-0.58c0.4,0,0.28-0.47,0.14-0.66c-0.38-0.92-0.65-1.83,0-2.09
		c0.78,0.44,2.35,0.72,1.84,2.09c0,0.18-0.14,0.66,0.12,0.66c0.07,0.07,0.12,0.17,0.15,0.27c0.02,0.1,0.02,0.21-0.01,0.31
		L647.19,196.04z"/>
</g>
<g>
	
		<linearGradient id="SVGID_00000072252128086934187980000000374540352149537923_" gradientUnits="userSpaceOnUse" x1="1216.709" y1="-820.8719" x2="-314.2515" y2="-820.8719" gradientTransform="matrix(1 0 0 -1 0 -498.3477)">
		<stop  offset="0.1512" style="stop-color:#BDDBBE"/>
		<stop  offset="0.6682" style="stop-color:#EAF3EA"/>
	</linearGradient>
	<path style="fill:url(#SVGID_00000072252128086934187980000000374540352149537923_);" d="M572.46,269.25
		c-163.88-156.79-433.9-113.34-548.42-72.02l-21.84,0l157.03,272.74l1200.15,16.53c-6.49-30.7-45.69-49.82-141.09-98
		C1099.04,328.29,777.3,465.24,572.46,269.25z"/>
	
		<linearGradient id="SVGID_00000134231105758921601540000001786105839497677753_" gradientUnits="userSpaceOnUse" x1="753.3648" y1="-820.8719" x2="-777.5957" y2="-820.8719" gradientTransform="matrix(-1 0 0 -1 2089.8735 -498.3477)">
		<stop  offset="0.1512" style="stop-color:#BDDBBE"/>
		<stop  offset="0.6682" style="stop-color:#EAF3EA"/>
	</linearGradient>
	<path style="fill:url(#SVGID_00000134231105758921601540000001786105839497677753_);" d="M1334.93,388.5
		c-95.4,48.17-134.6,67.3-141.09,98L2394,469.97l157.03-272.74l-21.84,0c-114.53-41.32-384.55-84.77-548.42,72.02
		C1775.91,465.24,1454.18,328.29,1334.93,388.5z"/>
</g>
</svg>
