<?xml version="1.0" encoding="iso-8859-1"?>
<!-- Generator: Adobe Illustrator 27.0.0, SVG Export Plug-In . SVG Version: 6.00 Build 0)  -->
<svg version="1.1" id="Layer_1" xmlns="http://www.w3.org/2000/svg" xmlns:xlink="http://www.w3.org/1999/xlink" x="0px" y="0px"
	 viewBox="0 0 2560 469.83" style="enable-background:new 0 0 2560 469.83;" xml:space="preserve">
<g>
	<g>
		<g>
			<defs>
				<rect id="SVGID_1_" x="2266.97" y="-361.34" width="25.56" height="540.21"/>
			</defs>
			<clipPath id="SVGID_00000036946001178868602150000016087035495648424089_">
				<use xlink:href="#SVGID_1_"  style="overflow:visible;"/>
			</clipPath>
			<g style="clip-path:url(#SVGID_00000036946001178868602150000016087035495648424089_);">
				<path style="fill-opacity:0.2;" d="M2277.9,132.34c-0.44,0.44-0.74,1.18-0.74,1.77c0,0.59,0.3,1.33,0.74,1.77
					c0.44,0.44,1.18,0.74,1.77,0.74c0.59,0,1.77-0.74,1.77-0.74c0.44-0.44,0.74-1.18,0.74-1.77c0-0.59-0.74-1.77-0.74-1.77
					c-0.44-0.44-1.77-0.74-1.77-0.74C2279.09,131.6,2277.9,132.34,2277.9,132.34z M2281.3,134.11c0,0.44-0.44,1.18-0.44,1.18
					c-0.3,0.3-0.74,0.44-1.18,0.44s-0.89-0.15-1.18-0.44c-0.3-0.3-0.44-0.74-0.44-1.18c0-0.44,0.44-1.18,0.44-1.18
					c0.3-0.3,0.74-0.44,1.18-0.44s1.18,0.44,1.18,0.44C2281.15,133.22,2281.3,133.67,2281.3,134.11z"/>
				<path style="fill-opacity:0.2;" d="M2280.12,131.75h-0.59v-493.08h0.59V131.75z"/>
				<path style="fill-rule:evenodd;clip-rule:evenodd;fill-opacity:0.2;" d="M2269.33,147.85c0,0-2.07-7.09,7.39-10.05
					c1.33-0.44,2.22-1.03,2.95-1.62c0.74,0.74,1.63,1.18,2.95,1.62c9.46,2.95,7.39,10.05,7.39,10.05c0.3,0,0.59,0.15,0.89,0.15
					h-1.77v-0.44c0-0.3,1.62-6.35-6.8-9.01c-1.03-0.44-1.92-0.74-2.66-1.33c-0.74,0.59-1.62,1.03-2.66,1.33
					c-8.42,2.66-6.65,9.01-6.65,9.01V148h-1.92C2268.74,147.85,2269.04,147.85,2269.33,147.85z"/>
				<path style="fill-opacity:0.2;" d="M2280.12,137.51c-0.44,0.59-1.03,1.03-1.62,1.33c-4.73,2.36-4.43,7.83-4.43,9.31h-0.89
					c-0.15-1.77-0.3-7.39,4.73-9.9c0.59-0.44,1.18-0.89,1.62-1.48l0.3-0.44L2280.12,137.51z"/>
				<path style="fill-opacity:0.2;" d="M2279.38,137.51c0.44,0.59,1.03,1.03,1.62,1.33c4.73,2.36,4.43,7.83,4.43,9.31h0.89
					c0.15-1.77,0.3-7.39-4.73-9.9c-0.59-0.44-1.18-0.89-1.62-1.48l-0.3-0.44L2279.38,137.51z"/>
				<path style="fill-rule:evenodd;clip-rule:evenodd;fill-opacity:0.2;" d="M2277.31,170.01c0,0-0.3,0-0.59,0
					c-0.3,0-0.74,0.3-0.89,0.59c-0.3,0.59-0.44,0.59-0.44,0.59s0.3,0.15,0.74-0.44c0.3-0.3,0.44-0.59,0.74-0.59c0.3,0,0.59,0,0.59,0
					L2277.31,170.01z"/>
				<path style="fill-rule:evenodd;clip-rule:evenodd;fill-opacity:0.2;" d="M2277.61,170.15c0.15,0-0.44-0.3-0.59-0.89
					c-0.15-0.59,0.15-1.33,0.15-2.22c0-0.44-0.59-0.74-0.89-0.44c0,0.15,0,0.59,0,0.59c0.15,0.15,0.3,0.15,0.3,0.15s-0.3,0-0.3-0.15
					s0-0.44,0-0.44c0.15,0,0.44,0,0.44,0.3c0,0.59-0.3,1.48,0,2.22c0.15,0.74,0.74,0.89,0.74,0.89H2277.61z"/>
				<path style="fill-rule:evenodd;clip-rule:evenodd;fill-opacity:0.2;" d="M2276.87,169.86c0,0-0.15-0.3-0.44-0.3s-0.3,0-0.3,0
					s0.15,0.3,0.3,0.3c0.3,0,0.59,0,0.59,0H2276.87z"/>
				<path style="fill-rule:evenodd;clip-rule:evenodd;fill-opacity:0.2;" d="M2276.72,168.82c0.15,0,0-0.59-0.74-0.59
					c-0.15,0-0.3,0.3-0.44,0.3c0,0.15,0,0.44,0,0.59c0,0.44,0,0.74,0,1.03c-0.15,0.59-0.44,0.89-0.59,0.89
					c-0.3,0.15-0.3,0.15-0.3,0.15s0,0,0.3,0c0.15,0,0.74-0.3,0.74-1.03c0.15-0.59-0.44-1.63,0.3-1.63c0.59-0.15,0.74,0.44,0.74,0.44
					V168.82z"/>
				<path style="fill-rule:evenodd;clip-rule:evenodd;fill-opacity:0.2;" d="M2276.57,168.68c0,0-0.15-0.15-0.44-0.3
					c-0.3-0.15-0.3-0.44-0.3-0.74h0.15c0,0,0.15-0.3,0-0.3c-0.15-0.15-0.59-0.15-0.59,0.15c-0.15,0.59,0.3,1.03,0.59,1.03
					s0.59,0,0.59,0V168.68z"/>
				<path style="fill-rule:evenodd;clip-rule:evenodd;fill-opacity:0.2;" d="M2276.87,168.82c0,0-0.15-0.15-0.3-0.15
					c-0.3-0.15-0.59,0.15-0.59,0.44c0,0.15,0.44,0.15,0.44,0.15c0-0.15-0.3,0-0.3-0.15c-0.15-0.3,0-0.3,0.15-0.3s0.3,0,0.3,0
					H2276.87z"/>
				<path style="fill-rule:evenodd;clip-rule:evenodd;fill-opacity:0.2;" d="M2275.54,168.53c0-0.15-0.15-0.3-0.44-0.3
					c-0.3-0.15-0.3,0-0.3,0s0,0.15,0.3,0.15s0.59,0,0.59,0L2275.54,168.53z"/>
				<path style="fill-rule:evenodd;clip-rule:evenodd;fill-opacity:0.2;" d="M2275.69,170.45c-0.15,0,0-0.44-0.44-0.59
					c-0.59-0.15-0.89,0.44-0.89,0.89c0,0.74-0.44,0.74-0.44,0.74s0,0,0.15,0s0.44-0.3,0.44-0.74c0-0.3,0.3-0.74,0.59-0.74
					c0.44,0.15,0.44,0.44,0.44,0.44H2275.69z"/>
				<path style="fill-rule:evenodd;clip-rule:evenodd;fill-opacity:0.2;" d="M2275.39,170.01c-0.3-0.3-0.74-0.44-0.74-0.74
					c0.3-0.59,0.3,0,0.3,0s0,0,0-0.15s0-0.3-0.3-0.3c-0.15,0-0.3,0.15-0.3,0.44c0.15,0.59,0.74,0.74,0.89,0.89
					c0.3,0.15,0.3,0.44,0.3,0.44S2275.69,170.3,2275.39,170.01z"/>
				<path style="fill-rule:evenodd;clip-rule:evenodd;fill-opacity:0.2;" d="M2277.31,171.63c-0.3,0.15-0.74,0-1.03-0.15
					c-0.59-0.3-0.74-0.3-0.74-0.3s0.3-0.44,0.89,0c0.3,0.3,0.59,0.3,0.89,0.3c0.15-0.15,0.44-0.15,0.44-0.15
					S2277.61,171.48,2277.31,171.63z"/>
				<path style="fill-rule:evenodd;clip-rule:evenodd;fill-opacity:0.2;" d="M2277.61,171.48c0.15,0.15-0.15,0.59-0.15,1.18
					s0.59,1.18,1.03,1.92c0.15,0.44-0.3,0.74-0.59,0.74c-0.3-0.15-0.3-0.44-0.3-0.59c0.15-0.3,0.3-0.3,0.3-0.3s0,0,0,0.3
					c0,0.15,0.15,0.3,0.3,0.3c0.3,0,0.3-0.15,0.3-0.44c-0.3-0.59-1.03-1.33-1.03-2.07c-0.15-0.74,0.3-1.18,0.3-1.18L2277.61,171.48z
					"/>
				<path style="fill-rule:evenodd;clip-rule:evenodd;fill-opacity:0.2;" d="M2277.61,171.93c0,0-0.15,0.3-0.3,0.44
					c-0.3,0-0.3,0-0.3,0s-0.15-0.3,0-0.3c0.15-0.3,0.44-0.3,0.44-0.3L2277.61,171.93z"/>
				<path style="fill-rule:evenodd;clip-rule:evenodd;fill-opacity:0.2;" d="M2277.46,172.37c0,0,0.3,0.59-0.44,0.89
					c-0.3,0-0.44,0-0.59,0c-0.15-0.15-0.3-0.3-0.3-0.44c-0.15-0.3-0.44-0.59-0.44-0.89c-0.3-0.59-0.59-0.59-0.89-0.59
					c0.3-0.15,0.89,0,1.18,0.59c0.44,0.59,0.3,1.62,1.03,1.48c0.59-0.15,0.59-0.74,0.59-0.74L2277.46,172.37z"/>
				<path style="fill-rule:evenodd;clip-rule:evenodd;fill-opacity:0.2;" d="M2277.9,173.25c0,0-0.3,0.15-0.3,0.44
					c0,0.15-0.15,0.59,0,0.74c0.3,0.15,0-0.15,0-0.15s0,0,0.15,0c0,0,0,0.15,0,0.3c-0.15,0.15-0.44,0.15-0.59,0
					c-0.44-0.44-0.15-1.04,0-1.18c0.15-0.3,0.44-0.3,0.44-0.3L2277.9,173.25z"/>
				<path style="fill-rule:evenodd;clip-rule:evenodd;fill-opacity:0.2;" d="M2277.61,173.11c0,0-0.15,0.15-0.15,0.3
					c-0.15,0.3-0.74,0.15-0.74-0.15c-0.15-0.44,0.3-0.44,0.3-0.44c0,0.15-0.15,0.15-0.15,0.3c0,0,0.15,0,0.3,0
					c0.3-0.15,0.3-0.15,0.3-0.15L2277.61,173.11z"/>
				<path style="fill-rule:evenodd;clip-rule:evenodd;fill-opacity:0.2;" d="M2276.72,173.55c0.15,0-0.15,0.44-0.3,0.44
					c-0.3,0-0.3,0-0.3,0s0-0.3,0.15-0.3c0.3-0.15,0.59-0.15,0.59-0.15H2276.72z"/>
				<path style="fill-rule:evenodd;clip-rule:evenodd;fill-opacity:0.2;" d="M2275.83,171.63c0-0.15,0.3,0.3,0,0.59
					c-0.44,0.3-1.03-0.15-1.18-0.44c-0.44-0.59-0.74-0.44-0.74-0.44s0,0,0.15,0s0.59,0,0.74,0.44c0.15,0.3,0.59,0.44,0.89,0.44
					c0.15-0.15,0.15-0.44,0.15-0.44V171.63z"/>
				<path style="fill-rule:evenodd;clip-rule:evenodd;fill-opacity:0.2;" d="M2275.98,171.78c0,0,0,0.15,0,0.59
					c-0.15,0.44-0.3,0.74-0.3,1.03c0.3,0.59,0.3,0,0.3,0l0.15,0.15c0,0,0.15,0.3-0.15,0.3c-0.3,0.15-0.59,0-0.59-0.3
					c-0.15-0.59,0.44-0.89,0.44-1.18s0-0.59,0-0.59H2275.98z"/>
				<path style="fill-rule:evenodd;clip-rule:evenodd;fill-opacity:0.2;" d="M2275.39,160.99c0,0-0.3,0-0.59,0s-0.74,0.3-0.89,0.59
					c-0.3,0.59-0.44,0.59-0.44,0.59s0.3,0.15,0.74-0.44c0.3-0.3,0.44-0.59,0.74-0.59c0.3,0,0.59,0,0.59,0L2275.39,160.99z"/>
				<path style="fill-rule:evenodd;clip-rule:evenodd;fill-opacity:0.2;" d="M2275.54,161.14c0.15,0-0.44-0.3-0.59-0.89
					c-0.3-0.59,0.15-1.33,0.15-2.22c0-0.44-0.59-0.74-0.89-0.44c0,0.15,0,0.59,0,0.59c0.15,0.15,0.3,0.15,0.3,0.15s-0.3,0-0.3-0.15
					c0-0.15,0-0.44,0-0.44c0.15,0,0.44,0,0.44,0.3c0,0.59-0.3,1.48,0,2.22c0.15,0.74,0.74,0.89,0.74,0.89H2275.54z"/>
				<path style="fill-rule:evenodd;clip-rule:evenodd;fill-opacity:0.2;" d="M2274.8,160.85c0,0-0.15-0.3-0.44-0.3
					c-0.3,0-0.3,0-0.3,0s0.15,0.3,0.3,0.3c0.3,0,0.59,0,0.59,0H2274.8z"/>
				<path style="fill-rule:evenodd;clip-rule:evenodd;fill-opacity:0.2;" d="M2274.65,159.96c0.15,0,0-0.59-0.74-0.59
					c-0.15,0-0.3,0.3-0.44,0.3c0,0.15,0,0.44,0,0.59c0,0.44,0,0.74,0,1.03c-0.15,0.59-0.44,0.89-0.59,0.89
					c-0.3,0.15-0.3,0.15-0.3,0.15s0,0,0.3,0c0.15,0,0.74-0.3,0.74-1.03c0.15-0.59-0.44-1.63,0.3-1.63c0.59-0.15,0.74,0.44,0.74,0.44
					V159.96z"/>
				<path style="fill-rule:evenodd;clip-rule:evenodd;fill-opacity:0.2;" d="M2274.5,159.81c0,0-0.15-0.15-0.44-0.3
					c-0.3-0.15-0.3-0.44-0.3-0.74h0.15c0,0,0.15-0.3,0-0.3c-0.3-0.15-0.59-0.15-0.59,0.15c-0.15,0.59,0.3,1.03,0.59,1.03
					c0.3,0,0.59,0,0.59,0V159.81z"/>
				<path style="fill-rule:evenodd;clip-rule:evenodd;fill-opacity:0.2;" d="M2274.65,159.81c0,0-0.15-0.15-0.3-0.15
					c-0.3-0.15-0.59,0.15-0.59,0.44c0,0.15,0.44,0.15,0.44,0.15c0-0.15-0.3,0-0.3-0.15c0-0.3,0.15-0.3,0.3-0.3s0.3,0,0.3,0H2274.65z
					"/>
				<path style="fill-rule:evenodd;clip-rule:evenodd;fill-opacity:0.2;" d="M2273.47,159.66c0-0.15-0.15-0.3-0.44-0.3
					c-0.3-0.15-0.3,0-0.3,0s0,0.15,0.3,0.15c0.3,0,0.59,0,0.59,0L2273.47,159.66z"/>
				<path style="fill-rule:evenodd;clip-rule:evenodd;fill-opacity:0.2;" d="M2273.62,161.59c-0.15,0,0-0.44-0.44-0.59
					c-0.59-0.15-0.89,0.44-0.89,0.89c0,0.74-0.44,0.74-0.44,0.74s0,0,0.15,0s0.44-0.3,0.44-0.74c0-0.3,0.3-0.74,0.59-0.74
					c0.44,0.15,0.44,0.44,0.44,0.44H2273.62z"/>
				<path style="fill-rule:evenodd;clip-rule:evenodd;fill-opacity:0.2;" d="M2273.32,160.99c-0.3-0.3-0.74-0.44-0.74-0.74
					c0.3-0.59,0.3,0,0.3,0s0,0,0-0.15s0-0.3-0.3-0.3c-0.15,0-0.3,0.15-0.3,0.44c0.15,0.59,0.74,0.74,0.89,0.89
					c0.3,0.15,0.3,0.44,0.3,0.44S2273.62,161.29,2273.32,160.99z"/>
				<path style="fill-rule:evenodd;clip-rule:evenodd;fill-opacity:0.2;" d="M2275.24,162.62c-0.3,0.15-0.74,0-1.03-0.15
					c-0.59-0.3-0.74-0.3-0.74-0.3s0.3-0.44,0.89,0c0.3,0.3,0.59,0.3,0.89,0.3c0.15-0.15,0.44-0.15,0.44-0.15
					S2275.54,162.47,2275.24,162.62z"/>
				<path style="fill-rule:evenodd;clip-rule:evenodd;fill-opacity:0.2;" d="M2275.54,162.47c0.15,0.15-0.15,0.59-0.15,1.18
					c0,0.59,0.59,1.18,1.03,1.92c0.15,0.44-0.3,0.74-0.59,0.74c-0.3-0.15-0.3-0.44-0.3-0.59c0.15-0.3,0.3-0.3,0.3-0.3s0,0,0,0.3
					c0,0.15,0.15,0.3,0.3,0.3c0.3,0,0.3-0.15,0.3-0.44c-0.3-0.59-1.03-1.33-1.03-2.07c-0.15-0.74,0.3-1.18,0.3-1.18L2275.54,162.47z
					"/>
				<path style="fill-rule:evenodd;clip-rule:evenodd;fill-opacity:0.2;" d="M2275.54,162.91c0,0-0.15,0.3-0.3,0.44
					c-0.3,0-0.3,0-0.3,0s-0.15-0.3,0-0.3c0.15-0.3,0.44-0.3,0.44-0.3L2275.54,162.91z"/>
				<path style="fill-rule:evenodd;clip-rule:evenodd;fill-opacity:0.2;" d="M2275.54,163.36c0.15,0,0.3,0.59-0.44,0.89
					c-0.15,0-0.44,0-0.59,0c-0.15-0.15-0.3-0.3-0.3-0.44c-0.15-0.3-0.44-0.59-0.44-0.89c-0.3-0.59-0.59-0.59-0.89-0.59
					c0.3-0.15,0.89,0,1.18,0.59c0.3,0.59,0.15,1.63,0.89,1.48c0.59-0.15,0.59-0.74,0.59-0.74V163.36z"/>
				<path style="fill-rule:evenodd;clip-rule:evenodd;fill-opacity:0.2;" d="M2275.83,164.24c0,0-0.3,0.15-0.3,0.44
					c0,0.15-0.15,0.59,0,0.74c0.3,0.15,0-0.15,0-0.15s0,0,0.15,0c0,0,0,0.15,0,0.3c-0.15,0.15-0.44,0.15-0.59,0
					c-0.44-0.44-0.15-1.03,0-1.18c0.15-0.3,0.44-0.3,0.44-0.3L2275.83,164.24z"/>
				<path style="fill-rule:evenodd;clip-rule:evenodd;fill-opacity:0.2;" d="M2275.69,164.1c0,0-0.15,0.15-0.15,0.3
					c-0.15,0.3-0.74,0.15-0.74-0.15c-0.15-0.44,0.3-0.44,0.3-0.44c0,0.15-0.15,0.15-0.15,0.3c0,0,0.15,0,0.3,0
					c0.3-0.15,0.3-0.15,0.3-0.15L2275.69,164.1z"/>
				<path style="fill-rule:evenodd;clip-rule:evenodd;fill-opacity:0.2;" d="M2274.36,165.13c-0.3,0-0.3,0-0.3,0s0-0.3,0.15-0.3
					c0.3-0.15,0.59-0.15,0.59-0.15S2274.51,165.13,2274.36,165.13z"/>
				<path style="fill-rule:evenodd;clip-rule:evenodd;fill-opacity:0.2;" d="M2273.77,163.36c-0.44,0.3-1.03-0.15-1.18-0.44
					c-0.44-0.59-0.74-0.44-0.74-0.44s0,0,0.15,0s0.59,0,0.74,0.44c0.15,0.3,0.59,0.44,0.89,0.44c0.15-0.3,0.15-0.59,0.15-0.59
					C2273.77,162.62,2274.06,163.06,2273.77,163.36z"/>
				<path style="fill-rule:evenodd;clip-rule:evenodd;fill-opacity:0.2;" d="M2273.92,162.62c0,0,0,0.15,0,0.59
					c-0.15,0.44-0.3,0.74-0.3,1.03c0.3,0.59,0.3,0,0.3,0l0.15,0.15c0,0.15,0.15,0.44-0.15,0.44c-0.3,0.15-0.59,0-0.59-0.3
					c-0.15-0.59,0.44-0.89,0.44-1.18c0-0.3,0-0.59,0-0.59L2273.92,162.62z"/>
				<path style="fill-rule:evenodd;clip-rule:evenodd;fill-opacity:0.2;" d="M2273.32,152.13c0,0-0.3,0-0.59,0
					c-0.44,0-0.74,0.3-0.89,0.59c-0.3,0.59-0.44,0.59-0.44,0.59s0.3,0.15,0.74-0.44c0.3-0.3,0.44-0.59,0.74-0.59s0.59,0,0.59,0
					L2273.32,152.13z"/>
				<path style="fill-rule:evenodd;clip-rule:evenodd;fill-opacity:0.2;" d="M2273.47,152.28c0.15,0-0.44-0.3-0.59-0.89
					c-0.3-0.59,0.15-1.33,0.15-2.22c0-0.44-0.59-0.74-0.89-0.44c0,0.15,0,0.59,0,0.59c0.3,0.15,0.3,0.15,0.3,0.15
					c0.15-0.15-0.15-0.15-0.15-0.3c0-0.15,0-0.44,0-0.44c0.15,0,0.44,0,0.44,0.3c0,0.59-0.3,1.62,0,2.22
					c0.15,0.74,0.74,0.89,0.74,0.89V152.28z"/>
				<path style="fill-rule:evenodd;clip-rule:evenodd;fill-opacity:0.2;" d="M2272.73,152.13c0,0-0.15-0.3-0.44-0.3
					c-0.3,0-0.3,0-0.3,0s0.15,0.15,0.3,0.15c0.3,0,0.59,0,0.59,0L2272.73,152.13z"/>
				<path style="fill-rule:evenodd;clip-rule:evenodd;fill-opacity:0.2;" d="M2272.58,150.95c0.15,0,0-0.59-0.74-0.59
					c-0.15,0-0.3,0.3-0.44,0.3c0,0.15,0,0.44,0,0.59c0,0.44,0,0.74,0,1.03c-0.15,0.59-0.44,0.89-0.59,0.89
					c-0.3,0.15-0.3,0.15-0.3,0.15s0,0,0.3,0c0.15,0,0.74-0.3,0.74-1.03c0.3-0.59-0.44-1.63,0.3-1.63c0.59-0.15,0.74,0.44,0.74,0.44
					V150.95z"/>
				<path style="fill-rule:evenodd;clip-rule:evenodd;fill-opacity:0.2;" d="M2272.58,150.8c0,0-0.15-0.15-0.44-0.3
					c-0.3-0.15-0.3-0.44-0.3-0.74h0.15c0,0,0.15-0.3,0-0.3c-0.15-0.15-0.59-0.15-0.59,0.15c-0.15,0.59,0.3,1.03,0.59,1.03
					c0.3,0,0.59,0,0.59,0V150.8z"/>
				<path style="fill-rule:evenodd;clip-rule:evenodd;fill-opacity:0.2;" d="M2272.73,150.8c0,0-0.15-0.15-0.3-0.15
					c-0.3-0.15-0.59,0.15-0.59,0.44c0,0.15,0.44,0.15,0.44,0.15c0-0.15-0.3,0-0.3-0.15c0-0.3,0.15-0.3,0.3-0.3c0.15,0,0.3,0,0.3,0
					H2272.73z"/>
				<path style="fill-rule:evenodd;clip-rule:evenodd;fill-opacity:0.2;" d="M2271.4,150.65c0-0.15-0.15-0.3-0.44-0.3
					c-0.3-0.15-0.3,0-0.3,0s0,0.15,0.3,0.15c0.3,0,0.59,0,0.59,0L2271.4,150.65z"/>
				<path style="fill-rule:evenodd;clip-rule:evenodd;fill-opacity:0.2;" d="M2271.55,152.57c-0.15,0,0-0.44-0.44-0.59
					c-0.59-0.15-0.89,0.44-0.89,0.89c0,0.74-0.44,0.74-0.44,0.74s0,0,0.15,0c0.15,0,0.44-0.3,0.44-0.74c0-0.3,0.3-0.74,0.59-0.74
					c0.44,0.15,0.44,0.44,0.44,0.44H2271.55z"/>
				<path style="fill-rule:evenodd;clip-rule:evenodd;fill-opacity:0.2;" d="M2271.25,151.98c-0.3-0.3-0.74-0.44-0.74-0.74
					c0.3-0.59,0.3,0,0.3,0s0,0,0-0.15s0-0.3-0.3-0.3c-0.15,0-0.3,0.15-0.3,0.44c0.15,0.59,0.74,0.74,0.89,0.89
					c0.3,0.15,0.3,0.44,0.3,0.44S2271.55,152.28,2271.25,151.98z"/>
				<path style="fill-rule:evenodd;clip-rule:evenodd;fill-opacity:0.2;" d="M2273.17,153.61c-0.3,0.15-0.74,0-1.03-0.15
					c-0.59-0.3-0.74-0.3-0.74-0.3s0.3-0.44,0.89,0c0.3,0.3,0.59,0.3,0.89,0.3c0.3-0.15,0.44-0.15,0.44-0.15
					S2273.47,153.46,2273.17,153.61z"/>
				<path style="fill-rule:evenodd;clip-rule:evenodd;fill-opacity:0.2;" d="M2273.47,153.61c0.15,0.15-0.15,0.59-0.15,1.18
					c0,0.59,0.59,1.18,1.03,1.92c0.15,0.44-0.3,0.74-0.59,0.74c-0.3-0.15-0.3-0.44-0.3-0.59c0.15-0.3,0.3-0.3,0.3-0.3s0,0.15,0,0.3
					c0,0.15,0.15,0.3,0.3,0.3c0.3,0,0.3-0.15,0.3-0.44c-0.3-0.59-1.03-1.33-1.03-2.07c-0.15-0.74,0.3-1.18,0.3-1.18L2273.47,153.61z
					"/>
				<path style="fill-rule:evenodd;clip-rule:evenodd;fill-opacity:0.2;" d="M2273.47,154.05c0,0-0.15,0.3-0.3,0.44
					c-0.3,0-0.3,0-0.3,0s-0.15-0.15,0-0.3c0.15-0.3,0.44-0.3,0.44-0.3L2273.47,154.05z"/>
				<path style="fill-rule:evenodd;clip-rule:evenodd;fill-opacity:0.2;" d="M2273.47,154.49c0,0,0.3,0.59-0.44,0.89
					c-0.3,0-0.44,0-0.59,0c-0.15-0.15-0.3-0.3-0.3-0.44c-0.15-0.3-0.44-0.59-0.44-0.89c-0.3-0.59-0.59-0.59-0.89-0.59
					c0.3-0.15,0.89,0,1.18,0.59s0.15,1.63,0.89,1.48c0.59-0.15,0.59-0.74,0.59-0.74V154.49z"/>
				<path style="fill-rule:evenodd;clip-rule:evenodd;fill-opacity:0.2;" d="M2273.76,155.23c0,0-0.3,0.15-0.3,0.44
					c0,0.15-0.15,0.59,0,0.74c0.3,0.15,0-0.15,0-0.15s0,0,0.15,0c0,0,0,0.15,0,0.3c-0.15,0-0.44,0.15-0.59,0
					c-0.44-0.44-0.15-1.03,0-1.18c0.15-0.3,0.44-0.3,0.44-0.3L2273.76,155.23z"/>
				<path style="fill-rule:evenodd;clip-rule:evenodd;fill-opacity:0.2;" d="M2273.62,155.09c0,0-0.15,0.15-0.15,0.3
					c-0.15,0.3-0.74,0.15-0.74-0.15c-0.15-0.44,0.3-0.44,0.3-0.44c0,0.15-0.15,0.15-0.15,0.3c0,0,0.15,0,0.3,0
					c0.3-0.15,0.3-0.15,0.3-0.15L2273.62,155.09z"/>
				<path style="fill-rule:evenodd;clip-rule:evenodd;fill-opacity:0.2;" d="M2272.29,156.12c-0.3,0-0.3,0-0.3,0s0-0.3,0.15-0.3
					c0.3-0.15,0.59-0.15,0.59-0.15S2272.44,156.12,2272.29,156.12z"/>
				<path style="fill-rule:evenodd;clip-rule:evenodd;fill-opacity:0.2;" d="M2271.7,153.76c0-0.15,0.3,0.3,0,0.59
					c-0.44,0.3-1.03-0.15-1.18-0.44c-0.44-0.59-0.74-0.44-0.74-0.44s0,0,0.15,0c0.15-0.15,0.59,0,0.74,0.44
					c0.15,0.3,0.59,0.44,0.89,0.44c0.15-0.15,0.15-0.44,0.15-0.44V153.76z"/>
				<path style="fill-rule:evenodd;clip-rule:evenodd;fill-opacity:0.2;" d="M2271.85,153.76c0,0,0,0.15,0,0.59
					c-0.15,0.44-0.3,0.74-0.3,1.03c0.3,0.59,0.3,0,0.3,0l0.15,0.15c0,0,0.15,0.3-0.15,0.3c-0.3,0.15-0.59,0-0.59-0.3
					c-0.15-0.59,0.44-0.89,0.44-1.18c0-0.3,0-0.59,0-0.59H2271.85z"/>
				<path style="fill-rule:evenodd;clip-rule:evenodd;fill-opacity:0.2;" d="M2282.04,170.01c0,0,0.3,0,0.59,0
					c0.3,0,0.74,0.3,0.89,0.59c0.3,0.59,0.44,0.59,0.44,0.59s-0.3,0.15-0.74-0.44c-0.3-0.3-0.44-0.59-0.74-0.59
					c-0.15,0-0.44,0-0.44,0V170.01z"/>
				<path style="fill-rule:evenodd;clip-rule:evenodd;fill-opacity:0.2;" d="M2281.89,170.15c-0.15,0,0.44-0.3,0.59-0.89
					c0.15-0.59-0.15-1.33-0.15-2.22c0-0.44,0.59-0.74,0.89-0.44c0,0.15,0,0.59,0,0.59c-0.15,0.15-0.3,0.15-0.3,0.15s0.3,0,0.3-0.15
					s0-0.44,0-0.44c-0.15,0-0.44,0-0.44,0.3c0,0.59,0.3,1.48,0,2.22c-0.15,0.74-0.74,0.89-0.74,0.89H2281.89z"/>
				<path style="fill-rule:evenodd;clip-rule:evenodd;fill-opacity:0.2;" d="M2282.63,169.86c0,0,0.15-0.3,0.44-0.3s0.3,0,0.3,0
					s-0.15,0.3-0.3,0.3c-0.3,0-0.59,0-0.59,0H2282.63z"/>
				<path style="fill-rule:evenodd;clip-rule:evenodd;fill-opacity:0.2;" d="M2282.78,168.82c-0.15,0,0-0.59,0.74-0.59
					c0.15,0,0.3,0.3,0.44,0.3c0,0.15,0,0.44,0,0.59c0,0.44,0,0.74,0,1.03c0.15,0.59,0.44,0.89,0.59,0.89c0.3,0.15,0.3,0.15,0.3,0.15
					s0,0-0.3,0c-0.15,0-0.74-0.3-0.74-1.03c-0.3-0.59,0.44-1.63-0.3-1.63c-0.59-0.15-0.74,0.44-0.74,0.44V168.82z"/>
				<path style="fill-rule:evenodd;clip-rule:evenodd;fill-opacity:0.2;" d="M2282.93,168.68c0,0,0.15-0.15,0.44-0.3
					c0.3-0.15,0.3-0.44,0.3-0.74h-0.15c0,0-0.15-0.3,0-0.3c0.15-0.15,0.59-0.15,0.59,0.15c0.15,0.59-0.3,1.03-0.59,1.03
					c-0.3,0-0.59,0-0.59,0V168.68z"/>
				<path style="fill-rule:evenodd;clip-rule:evenodd;fill-opacity:0.2;" d="M2282.63,168.82c0,0,0.15-0.15,0.3-0.15
					c0.3-0.15,0.59,0.15,0.59,0.44c0,0.15-0.44,0.15-0.44,0.15c0-0.15,0.3,0,0.3-0.15c0.15-0.3,0-0.3-0.15-0.3s-0.3,0-0.3,0H2282.63
					z"/>
				<path style="fill-rule:evenodd;clip-rule:evenodd;fill-opacity:0.2;" d="M2283.96,168.53c0-0.15,0.15-0.3,0.44-0.3
					c0.3-0.15,0.3,0,0.3,0s0,0.15-0.3,0.15c-0.3,0-0.59,0-0.59,0L2283.96,168.53z"/>
				<path style="fill-rule:evenodd;clip-rule:evenodd;fill-opacity:0.2;" d="M2283.81,170.45c0.15,0,0-0.44,0.44-0.59
					c0.59-0.15,0.89,0.44,0.89,0.89c0,0.74,0.44,0.74,0.44,0.74s0,0-0.15,0s-0.44-0.3-0.44-0.74c0-0.3-0.3-0.74-0.59-0.74
					c-0.44,0.15-0.44,0.44-0.44,0.44H2283.81z"/>
				<path style="fill-rule:evenodd;clip-rule:evenodd;fill-opacity:0.2;" d="M2284.11,170.01c0.3-0.3,0.74-0.44,0.74-0.74
					c-0.3-0.59-0.3,0-0.3,0s0,0,0-0.15s0-0.3,0.3-0.3c0.15,0,0.3,0.15,0.3,0.44c-0.15,0.59-0.74,0.74-0.89,0.89
					c-0.3,0.15-0.3,0.44-0.3,0.44S2283.81,170.3,2284.11,170.01z"/>
				<path style="fill-rule:evenodd;clip-rule:evenodd;fill-opacity:0.2;" d="M2282.18,171.63c0.3,0.15,0.74,0,1.03-0.15
					c0.59-0.3,0.74-0.3,0.74-0.3s-0.3-0.44-0.89,0c-0.3,0.3-0.59,0.3-0.89,0.3c-0.15-0.15-0.44-0.15-0.44-0.15
					S2281.89,171.48,2282.18,171.63z"/>
				<path style="fill-rule:evenodd;clip-rule:evenodd;fill-opacity:0.2;" d="M2281.89,171.48c-0.15,0.15,0.15,0.59,0.15,1.18
					c0,0.59-0.59,1.18-1.03,1.92c-0.15,0.44,0.3,0.74,0.59,0.74c0.3-0.15,0.3-0.44,0.3-0.59c-0.15-0.3-0.3-0.3-0.3-0.3s0,0,0,0.3
					c0,0.15-0.3,0.3-0.3,0.3c-0.3,0-0.3-0.15-0.3-0.44c0.3-0.59,1.03-1.33,1.03-2.07c0.15-0.74-0.3-1.18-0.3-1.18L2281.89,171.48z"
					/>
				<path style="fill-rule:evenodd;clip-rule:evenodd;fill-opacity:0.2;" d="M2281.89,171.93c0,0,0.15,0.3,0.3,0.44
					c0.3,0,0.3,0,0.3,0s0.15-0.3,0-0.3c-0.15-0.3-0.44-0.3-0.44-0.3L2281.89,171.93z"/>
				<path style="fill-rule:evenodd;clip-rule:evenodd;fill-opacity:0.2;" d="M2281.89,172.37c0,0-0.3,0.59,0.44,0.89
					c0.3,0,0.44,0,0.59,0c0.15-0.15,0.3-0.3,0.3-0.44c0.15-0.3,0.44-0.59,0.44-0.89c0.3-0.59,0.59-0.59,0.89-0.59
					c-0.3-0.15-0.89,0-1.18,0.59c-0.3,0.59-0.15,1.63-0.89,1.48c-0.59-0.15-0.59-0.74-0.59-0.74V172.37z"/>
				<path style="fill-rule:evenodd;clip-rule:evenodd;fill-opacity:0.2;" d="M2281.6,173.25c0,0,0.3,0.15,0.3,0.44
					c0,0.15,0.15,0.59,0,0.74c-0.3,0.15,0-0.15,0-0.15s0,0-0.15,0c0,0,0,0.15,0,0.3c0.15,0.15,0.44,0.15,0.59,0
					c0.44-0.44,0.15-1.04,0-1.18c-0.15-0.3-0.44-0.3-0.44-0.3L2281.6,173.25z"/>
				<path style="fill-rule:evenodd;clip-rule:evenodd;fill-opacity:0.2;" d="M2281.89,173.11c0,0,0.15,0.15,0.15,0.3
					c0.15,0.3,0.74,0.15,0.74-0.15c0.15-0.44-0.3-0.44-0.3-0.44c0,0.15,0.15,0.15,0.15,0.3c0,0-0.15,0-0.3,0
					c-0.3-0.15-0.3-0.15-0.3-0.15L2281.89,173.11z"/>
				<path style="fill-rule:evenodd;clip-rule:evenodd;fill-opacity:0.2;" d="M2282.78,173.55c-0.15,0,0.15,0.44,0.3,0.44
					c0.3,0,0.3,0,0.3,0s0-0.3-0.15-0.3c-0.3-0.15-0.59-0.15-0.59-0.15H2282.78z"/>
				<path style="fill-rule:evenodd;clip-rule:evenodd;fill-opacity:0.2;" d="M2283.66,171.63c0-0.15-0.3,0.3,0,0.59
					c0.44,0.3,1.03-0.15,1.18-0.44c0.44-0.59,0.74-0.44,0.74-0.44s0,0-0.15,0s-0.59,0-0.74,0.44c-0.15,0.3-0.59,0.44-0.89,0.44
					c-0.15-0.15-0.15-0.44-0.15-0.44V171.63z"/>
				<path style="fill-rule:evenodd;clip-rule:evenodd;fill-opacity:0.2;" d="M2283.51,171.78c0,0,0,0.15,0,0.59
					c0.15,0.44,0.3,0.74,0.3,1.03c-0.3,0.59-0.3,0-0.3,0l-0.15,0.15c0,0-0.15,0.3,0.15,0.3c0.3,0.15,0.59,0,0.59-0.3
					c0.15-0.59-0.44-0.89-0.44-1.18s0-0.59,0-0.59H2283.51z"/>
				<path style="fill-rule:evenodd;clip-rule:evenodd;fill-opacity:0.2;" d="M2283.96,160.99c0,0,0.3,0,0.59,0
					c0.3,0,0.74,0.3,0.89,0.59c0.3,0.59,0.44,0.59,0.44,0.59s-0.3,0.15-0.74-0.44c-0.3-0.3-0.44-0.59-0.74-0.59
					c-0.15,0-0.44,0-0.44,0V160.99z"/>
				<path style="fill-rule:evenodd;clip-rule:evenodd;fill-opacity:0.2;" d="M2283.96,161.14c-0.15,0,0.44-0.3,0.59-0.89
					c0.3-0.59-0.15-1.33-0.15-2.22c0-0.44,0.59-0.74,0.89-0.44c0,0.15,0,0.59,0,0.59c-0.15,0.15-0.3,0.15-0.3,0.15s0.3,0,0.3-0.15
					c0-0.15,0-0.44,0-0.44c-0.15,0-0.44,0-0.44,0.3c0,0.59,0.3,1.48,0,2.22c-0.15,0.74-0.74,0.89-0.74,0.89H2283.96z"/>
				<path style="fill-rule:evenodd;clip-rule:evenodd;fill-opacity:0.2;" d="M2284.7,160.85c0,0,0.15-0.3,0.44-0.3s0.3,0,0.3,0
					s-0.15,0.3-0.3,0.3c-0.3,0-0.59,0-0.59,0H2284.7z"/>
				<path style="fill-rule:evenodd;clip-rule:evenodd;fill-opacity:0.2;" d="M2284.85,159.96c-0.15,0,0-0.59,0.74-0.59
					c0.15,0,0.3,0.3,0.44,0.3c0,0.15,0,0.44,0,0.59c0,0.44,0,0.74,0,1.03c0.15,0.59,0.44,0.89,0.59,0.89c0.3,0.15,0.3,0.15,0.3,0.15
					s0,0-0.3,0c-0.15,0-0.74-0.3-0.74-1.03c-0.15-0.59,0.44-1.63-0.3-1.63c-0.59-0.15-0.74,0.44-0.74,0.44V159.96z"/>
				<path style="fill-rule:evenodd;clip-rule:evenodd;fill-opacity:0.2;" d="M2284.99,159.81c0,0,0.15-0.15,0.44-0.3
					c0.3-0.15,0.3-0.44,0.3-0.74h-0.15c0,0-0.15-0.3,0-0.3c0.3-0.15,0.59-0.15,0.59,0.15c0.15,0.59-0.3,1.03-0.59,1.03
					s-0.59,0-0.59,0V159.81z"/>
				<path style="fill-rule:evenodd;clip-rule:evenodd;fill-opacity:0.2;" d="M2284.85,159.81c0,0,0.15-0.15,0.3-0.15
					c0.3-0.15,0.59,0.15,0.59,0.44c0,0.15-0.44,0.15-0.44,0.15c0-0.15,0.3,0,0.3-0.15c0-0.3-0.15-0.3-0.3-0.3c-0.3,0-0.3,0-0.3,0
					H2284.85z"/>
				<path style="fill-rule:evenodd;clip-rule:evenodd;fill-opacity:0.2;" d="M2286.03,159.66c0-0.15,0.3-0.3,0.44-0.3
					c0.3-0.15,0.3,0,0.3,0s0,0.15-0.3,0.15c-0.3,0-0.59,0-0.59,0L2286.03,159.66z"/>
				<path style="fill-rule:evenodd;clip-rule:evenodd;fill-opacity:0.2;" d="M2285.88,161.59c0.15,0,0-0.44,0.44-0.59
					c0.59-0.15,0.89,0.44,0.89,0.89c0,0.74,0.44,0.74,0.44,0.74s0,0-0.15,0s-0.44-0.3-0.44-0.74c0-0.3-0.3-0.74-0.59-0.74
					c-0.44,0.15-0.44,0.44-0.44,0.44H2285.88z"/>
				<path style="fill-rule:evenodd;clip-rule:evenodd;fill-opacity:0.2;" d="M2286.18,160.99c0.3-0.3,0.74-0.44,0.74-0.74
					c-0.3-0.59-0.3,0-0.3,0s0,0,0-0.15s0-0.3,0.3-0.3c0.15,0,0.3,0.15,0.3,0.44c-0.15,0.59-0.74,0.74-0.89,0.89
					c-0.3,0.15-0.3,0.44-0.3,0.44S2285.88,161.29,2286.18,160.99z"/>
				<path style="fill-rule:evenodd;clip-rule:evenodd;fill-opacity:0.2;" d="M2284.25,162.62c0.3,0.15,0.74,0,1.03-0.15
					c0.59-0.3,0.74-0.3,0.74-0.3s-0.3-0.44-0.89,0c-0.3,0.3-0.59,0.3-0.89,0.3c-0.15-0.15-0.44-0.15-0.44-0.15
					S2283.96,162.47,2284.25,162.62z"/>
				<path style="fill-rule:evenodd;clip-rule:evenodd;fill-opacity:0.2;" d="M2283.96,162.47c-0.15,0.15,0.15,0.59,0.15,1.18
					c0,0.59-0.59,1.18-1.03,1.92c-0.15,0.44,0.3,0.74,0.59,0.74c0.3-0.15,0.3-0.44,0.3-0.59c-0.15-0.3-0.3-0.3-0.3-0.3s0,0,0,0.3
					c0,0.15-0.15,0.3-0.3,0.3c-0.3,0-0.3-0.15-0.3-0.44c0.3-0.59,1.03-1.33,1.03-2.07c0.15-0.74-0.3-1.18-0.3-1.18L2283.96,162.47z"
					/>
				<path style="fill-rule:evenodd;clip-rule:evenodd;fill-opacity:0.2;" d="M2283.96,162.91c0,0,0.15,0.3,0.3,0.44
					c0.3,0,0.3,0,0.3,0s0.15-0.3,0-0.3c-0.15-0.3-0.44-0.3-0.44-0.3L2283.96,162.91z"/>
				<path style="fill-rule:evenodd;clip-rule:evenodd;fill-opacity:0.2;" d="M2283.96,163.36c-0.15,0-0.3,0.59,0.44,0.89
					c0.15,0,0.44,0,0.59,0c0.15-0.15,0.3-0.3,0.3-0.44c0.15-0.3,0.44-0.59,0.44-0.89c0.3-0.59,0.59-0.59,0.89-0.59
					c-0.3-0.15-0.89,0-1.18,0.59c-0.3,0.59-0.15,1.63-0.89,1.48c-0.59-0.15-0.59-0.74-0.59-0.74V163.36z"/>
				<path style="fill-rule:evenodd;clip-rule:evenodd;fill-opacity:0.2;" d="M2283.67,164.24c0,0,0.3,0.15,0.3,0.44
					c0,0.15,0.15,0.59,0,0.74c-0.3,0.15,0-0.15,0-0.15s0,0-0.15,0c0,0,0,0.15,0,0.3c0.15,0.15,0.44,0.15,0.59,0
					c0.44-0.44,0.15-1.03,0-1.18c-0.15-0.3-0.44-0.3-0.44-0.3L2283.67,164.24z"/>
				<path style="fill-rule:evenodd;clip-rule:evenodd;fill-opacity:0.2;" d="M2283.81,164.1c0,0,0.15,0.15,0.15,0.3
					c0.15,0.3,0.74,0.15,0.74-0.15c0.15-0.44-0.3-0.44-0.3-0.44c0,0.15,0.15,0.15,0.15,0.3c0,0-0.15,0-0.3,0
					c-0.3-0.15-0.3-0.15-0.3-0.15L2283.81,164.1z"/>
				<path style="fill-rule:evenodd;clip-rule:evenodd;fill-opacity:0.2;" d="M2285.14,165.13c0.3,0,0.3,0,0.3,0s0-0.3-0.15-0.3
					c-0.3-0.15-0.59-0.15-0.59-0.15S2284.99,165.13,2285.14,165.13z"/>
				<path style="fill-rule:evenodd;clip-rule:evenodd;fill-opacity:0.2;" d="M2285.73,163.36c0.44,0.3,1.03-0.15,1.18-0.44
					c0.44-0.59,0.74-0.44,0.74-0.44s0,0-0.15,0s-0.59,0-0.74,0.44c-0.15,0.3-0.59,0.44-0.89,0.44c-0.15-0.3-0.15-0.59-0.15-0.59
					C2285.73,162.62,2285.44,163.06,2285.73,163.36z"/>
				<path style="fill-rule:evenodd;clip-rule:evenodd;fill-opacity:0.2;" d="M2285.58,162.62c0,0,0,0.15,0,0.59
					c0.15,0.44,0.3,0.74,0.3,1.03c-0.3,0.59-0.3,0-0.3,0l-0.15,0.15c0,0.15-0.15,0.44,0.15,0.44c0.3,0.15,0.59,0,0.59-0.3
					c0.15-0.59-0.44-0.89-0.44-1.18c0-0.3,0-0.59,0-0.59L2285.58,162.62z"/>
				<path style="fill-rule:evenodd;clip-rule:evenodd;fill-opacity:0.2;" d="M2286.18,152.13c0,0,0.3,0,0.59,0
					c0.44,0,0.74,0.3,0.89,0.59c0.3,0.59,0.44,0.59,0.44,0.59s-0.3,0.15-0.74-0.44c-0.3-0.3-0.44-0.59-0.74-0.59
					c-0.3,0-0.59,0-0.59,0L2286.18,152.13z"/>
				<path style="fill-rule:evenodd;clip-rule:evenodd;fill-opacity:0.2;" d="M2286.03,152.28c-0.15,0,0.44-0.3,0.59-0.89
					c0.3-0.59-0.15-1.33-0.15-2.22c0-0.44,0.59-0.74,0.89-0.44c0,0.15,0,0.59,0,0.59c-0.3,0.15-0.3,0.15-0.3,0.15
					c-0.15-0.15,0.15-0.15,0.15-0.3c0-0.15,0-0.44,0-0.44c-0.15,0-0.44,0-0.44,0.3c0,0.59,0.3,1.62,0,2.22
					c-0.15,0.74-0.74,0.89-0.74,0.89V152.28z"/>
				<path style="fill-rule:evenodd;clip-rule:evenodd;fill-opacity:0.2;" d="M2286.77,152.13c0,0,0.15-0.3,0.44-0.3
					c0.3,0,0.3,0,0.3,0s-0.15,0.15-0.3,0.15c-0.3,0-0.59,0-0.59,0L2286.77,152.13z"/>
				<path style="fill-rule:evenodd;clip-rule:evenodd;fill-opacity:0.2;" d="M2286.91,150.95c-0.15,0,0-0.59,0.74-0.59
					c0.15,0,0.3,0.3,0.44,0.3c0,0.15,0,0.44,0,0.59c0,0.44,0,0.74,0,1.03c0.15,0.59,0.44,0.89,0.59,0.89c0.3,0.15,0.3,0.15,0.3,0.15
					s0,0-0.3,0c-0.15,0-0.74-0.3-0.74-1.03c-0.15-0.59,0.44-1.63-0.3-1.63c-0.59-0.15-0.74,0.44-0.74,0.44V150.95z"/>
				<path style="fill-rule:evenodd;clip-rule:evenodd;fill-opacity:0.2;" d="M2286.91,150.8c0,0,0.15-0.15,0.44-0.3
					s0.3-0.44,0.3-0.74h-0.15c0,0-0.15-0.3,0-0.3c0.15-0.15,0.59-0.15,0.59,0.15c0.15,0.59-0.3,1.03-0.59,1.03c-0.3,0-0.59,0-0.59,0
					V150.8z"/>
				<path style="fill-rule:evenodd;clip-rule:evenodd;fill-opacity:0.2;" d="M2286.76,150.8c0,0,0.15-0.15,0.3-0.15
					c0.3-0.15,0.59,0.15,0.59,0.44c0,0.15-0.44,0.15-0.44,0.15c0-0.15,0.3,0,0.3-0.15c0-0.3-0.15-0.3-0.3-0.3s-0.3,0-0.3,0H2286.76z
					"/>
				<path style="fill-rule:evenodd;clip-rule:evenodd;fill-opacity:0.2;" d="M2288.09,150.65c0-0.15,0.15-0.3,0.44-0.3
					c0.3-0.15,0.3,0,0.3,0s0,0.15-0.3,0.15s-0.59,0-0.59,0L2288.09,150.65z"/>
				<path style="fill-rule:evenodd;clip-rule:evenodd;fill-opacity:0.2;" d="M2287.95,152.57c0.15,0,0-0.44,0.44-0.59
					c0.59-0.15,0.89,0.44,0.89,0.89c0,0.74,0.44,0.74,0.44,0.74s0,0-0.15,0s-0.44-0.3-0.44-0.74c0-0.3-0.3-0.74-0.59-0.74
					c-0.44,0.15-0.44,0.44-0.44,0.44H2287.95z"/>
				<path style="fill-rule:evenodd;clip-rule:evenodd;fill-opacity:0.2;" d="M2288.24,151.98c0.3-0.3,0.74-0.44,0.74-0.74
					c-0.3-0.59-0.3,0-0.3,0s0,0,0-0.15s0-0.3,0.3-0.3c0.15,0,0.3,0.15,0.3,0.44c-0.15,0.59-0.74,0.74-0.89,0.89
					c-0.3,0.15-0.3,0.44-0.3,0.44S2287.95,152.28,2288.24,151.98z"/>
				<path style="fill-rule:evenodd;clip-rule:evenodd;fill-opacity:0.2;" d="M2286.32,153.61c0.3,0.15,0.74,0,1.03-0.15
					c0.59-0.3,0.74-0.3,0.74-0.3s-0.3-0.44-0.89,0c-0.3,0.3-0.59,0.3-0.89,0.3c-0.3-0.15-0.44-0.15-0.44-0.15
					S2286.03,153.46,2286.32,153.61z"/>
				<path style="fill-rule:evenodd;clip-rule:evenodd;fill-opacity:0.2;" d="M2286.03,153.61c-0.15,0.15,0.15,0.59,0.15,1.18
					c0,0.59-0.59,1.18-1.03,1.92c-0.15,0.44,0.3,0.74,0.59,0.74c0.3-0.15,0.3-0.44,0.3-0.59c-0.15-0.3-0.3-0.3-0.3-0.3s0,0.15,0,0.3
					s-0.15,0.3-0.3,0.3c-0.3,0-0.3-0.15-0.3-0.44c0.3-0.59,1.03-1.33,1.03-2.07c0.15-0.74-0.3-1.18-0.3-1.18L2286.03,153.61z"/>
				<path style="fill-rule:evenodd;clip-rule:evenodd;fill-opacity:0.2;" d="M2286.03,154.05c0,0,0.15,0.3,0.3,0.44
					c0.3,0,0.3,0,0.3,0s0.15-0.15,0-0.3c-0.15-0.3-0.44-0.3-0.44-0.3L2286.03,154.05z"/>
				<path style="fill-rule:evenodd;clip-rule:evenodd;fill-opacity:0.2;" d="M2286.18,154.49c0,0-0.3,0.59,0.44,0.89
					c0.3,0,0.44,0,0.59,0c0.15-0.15,0.3-0.3,0.3-0.44c0.15-0.3,0.44-0.59,0.44-0.89c0.3-0.59,0.59-0.59,0.89-0.59
					c-0.3-0.15-0.89,0-1.18,0.59c-0.44,0.59-0.3,1.63-1.03,1.48c-0.59-0.15-0.59-0.74-0.59-0.74L2286.18,154.49z"/>
				<path style="fill-rule:evenodd;clip-rule:evenodd;fill-opacity:0.2;" d="M2285.73,155.23c0,0,0.3,0.15,0.3,0.44
					c0,0.15,0.3,0.59,0,0.74c-0.3,0.15,0-0.15,0-0.15h-0.15c0,0,0,0.15,0,0.3c0.15,0,0.44,0.15,0.59,0c0.44-0.44,0.15-1.03,0-1.18
					c-0.15-0.3-0.44-0.3-0.44-0.3L2285.73,155.23z"/>
				<path style="fill-rule:evenodd;clip-rule:evenodd;fill-opacity:0.2;" d="M2285.88,155.09c0,0,0.15,0.15,0.15,0.3
					c0.15,0.3,0.74,0.15,0.74-0.15c0.15-0.44-0.3-0.44-0.3-0.44c0,0.15,0.15,0.15,0.15,0.3c0,0-0.15,0-0.3,0
					c-0.3-0.15-0.3-0.15-0.3-0.15L2285.88,155.09z"/>
				<path style="fill-rule:evenodd;clip-rule:evenodd;fill-opacity:0.2;" d="M2287.21,156.12c0.3,0,0.3,0,0.3,0s0-0.3-0.15-0.3
					c-0.3-0.15-0.59-0.15-0.59-0.15S2287.06,156.12,2287.21,156.12z"/>
				<path style="fill-rule:evenodd;clip-rule:evenodd;fill-opacity:0.2;" d="M2287.8,153.76c0-0.15-0.3,0.3,0,0.59
					c0.44,0.3,1.03-0.15,1.18-0.44c0.44-0.59,0.74-0.44,0.74-0.44s0,0-0.15,0c-0.15-0.15-0.59,0-0.74,0.44
					c-0.15,0.3-0.59,0.44-0.89,0.44c-0.15-0.15-0.15-0.44-0.15-0.44V153.76z"/>
				<path style="fill-rule:evenodd;clip-rule:evenodd;fill-opacity:0.2;" d="M2287.65,153.76c0,0,0,0.15,0,0.59
					c0.15,0.44,0.3,0.74,0.3,1.03c-0.3,0.59-0.3,0-0.3,0l-0.15,0.15c0,0-0.15,0.3,0.15,0.3c0.3,0.15,0.59,0,0.59-0.3
					c0.15-0.59-0.44-0.89-0.44-1.18c0-0.3,0-0.59,0-0.59H2287.65z"/>
				<path style="fill-rule:evenodd;clip-rule:evenodd;fill-opacity:0.2;" d="M2273.47,174.73c-1.48,5.32,14.18,5.32,12.71,0H2273.47
					z"/>
				<path style="fill-opacity:0.2;" d="M2291.79,148.14c0.59,0.44,0.89,1.18,0.89,1.92l-5.17,22.6c0,0.74-0.44,1.48-0.89,1.92
					c-0.44,0.44-1.62,0.89-1.62,0.89h-9.9l-0.44-0.15c-0.59,0-1.18-0.15-1.62-0.59c-0.59-0.44-0.89-1.18-0.89-1.92l-5.17-22.6
					c0-0.74,0.44-1.48,0.89-1.92c0.44-0.59,1.18-0.89,1.92-0.89h19.94c0.74,0,1.92,0.89,1.92,0.89L2291.79,148.14z M2278.05,172.52
					l0.74-3.1l-4.43-19.35c0-0.44,0.59-1.33,0.59-1.33h-5.32c-0.44,0-0.74,0.15-1.03,0.44c-0.3,0.3-0.44,1.03-0.44,1.03l5.17,22.6
					c0,0.44,0.15,0.74,0.44,1.03c0.3,0.3,1.03,0.44,1.03,0.44h1.92c0.44,0,0.74-0.15,1.03-0.44c0.3-0.3,0.44-1.03,0.44-1.03
					L2278.05,172.52z M2279.68,172.81c0,0.44-0.59,1.33-0.59,1.33h1.18C2279.97,173.7,2279.68,173.4,2279.68,172.81z
					 M2282.19,156.12c0-0.3-0.15-0.59,0-0.89c0-0.3,0-0.44,0-0.44c0,0.15,0,0.15,0,0.15v-0.3v0.15c0-0.15,0-0.3,0-0.44
					c-0.15-0.3,0-0.59,0-0.89c0.59-2.07-2.22-1.92-2.51-3.4c-0.3,1.48-3.1,1.48-2.51,3.4c0,0.3,0.15,0.59,0,0.89
					c0,0.3,0,0.44,0,0.44c0-0.15,0-0.15,0-0.15v0.3v-0.15c0,0.15,0,0.3,0,0.44c0.15,0.3,0,0.59,0,0.89
					c-0.59,2.07,2.22,1.92,2.51,3.4C2279.97,158.04,2282.78,158.04,2282.19,156.12z M2285.73,172.96l5.17-22.6
					c0-0.44-0.15-0.74-0.44-1.03c-0.3-0.3-1.03-0.44-1.03-0.44h-5.32c0.3,0.44,0.59,1.33,0.59,1.33l-4.43,19.35l0.74,3.1
					c0,0.44,0.15,0.74,0.44,1.03c0.3,0.3,1.03,0.44,1.03,0.44h1.92c0.44,0,0.74-0.15,1.03-0.44c0.3-0.3,0.44-1.03,0.44-1.03
					L2285.73,172.96z"/>
				<path style="fill-opacity:0.2;" d="M2278.64,173.7l-5.76-25.11h-0.3l5.76,25.11H2278.64z"/>
				<path style="fill-opacity:0.2;" d="M2280.86,173.7l5.76-25.11h0.3l-5.76,25.11H2280.86z"/>
			</g>
		</g>
		<g>
			<defs>
				<rect id="SVGID_00000043435914389723540430000014706205188540004232_" x="2296.01" y="-357.85" width="27.88" height="594.81"/>
			</defs>
			<clipPath id="SVGID_00000179637156306742985010000014110395699838160825_">
				<use xlink:href="#SVGID_00000043435914389723540430000014706205188540004232_"  style="overflow:visible;"/>
			</clipPath>
			<g style="clip-path:url(#SVGID_00000179637156306742985010000014110395699838160825_);">
				<path style="fill-rule:evenodd;clip-rule:evenodd;fill-opacity:0.2;" d="M2309.95,174.47c1.33,0,2.32,1,2.32,2.33
					c0,1.33-1,2.33-2.32,2.33c-1.33,0-2.32-1-2.32-2.33C2307.63,175.46,2308.63,174.47,2309.95,174.47z"/>
				<path style="fill-rule:evenodd;clip-rule:evenodd;fill-opacity:0.2;" d="M2310.12,171.64c1,0,1.66,0.66,1.66,1.66
					c0,1-0.66,1.66-1.66,1.66c-1,0-1.66-0.83-1.66-1.66C2308.46,172.31,2309.12,171.64,2310.12,171.64z"/>
				<path style="fill-opacity:0.2;" d="M2310.32,167.15h-0.7v-525.01h0.7V167.15z"/>
				<path style="fill-opacity:0.2;" d="M2307.96,167.82c-0.5,0.5-0.83,1.16-0.83,1.99c0,0.83,0.83,1.99,0.83,1.99
					c0.5,0.5,1.16,0.83,1.99,0.83c0.83,0,1.49-0.33,1.99-0.83c0.5-0.5,0.83-1.16,0.83-1.99c0-0.83-0.83-1.99-0.83-1.99
					c-0.5-0.5-1.99-0.83-1.99-0.83C2309.13,166.99,2307.96,167.82,2307.96,167.82z M2309.95,167.98c0.5,0,1.33,0.5,1.33,0.5
					c0.33,0.33,0.5,0.83,0.5,1.33c0,0.5-0.17,1-0.5,1.33c-0.33,0.33-0.83,0.5-1.33,0.5c-0.5,0-1.33-0.5-1.33-0.5
					c-0.33-0.33-0.5-0.83-0.5-1.33c0-0.5,0.5-1.33,0.5-1.33C2308.96,168.15,2309.46,167.98,2309.95,167.98z"/>
				<path style="fill-rule:evenodd;clip-rule:evenodd;fill-opacity:0.2;" d="M2296.01,192.08c0,0.83,1.49,1.5,1.49,1.5h25.06
					c0.83,0,1.49-0.66,1.49-1.5c0-0.83-1.49-1.5-1.49-1.5h-25.06C2296.68,190.59,2296.01,191.25,2296.01,192.08z"/>
				<path style="fill-rule:evenodd;clip-rule:evenodd;fill-opacity:0.2;" d="M2296.01,222.33c0-0.83,1.49-1.5,1.49-1.5h25.06
					c0.83,0,1.49,0.66,1.49,1.5c0,0.83-1.49,1.5-1.49,1.5h-25.06C2296.68,223.83,2296.01,223.16,2296.01,222.33z"/>
				<path style="fill-rule:evenodd;clip-rule:evenodd;fill-opacity:0.2;" d="M2322.07,222.5c0.33,0,0.5-0.5,0.5-0.5v-29.75
					c0-0.33-0.17-0.5-0.5-0.5c-0.33,0-0.5,0.5-0.5,0.5V222C2321.57,222.33,2321.74,222.5,2322.07,222.5z"/>
				<path style="fill-rule:evenodd;clip-rule:evenodd;fill-opacity:0.2;" d="M2297.84,222.5c0.33,0,0.5-0.5,0.5-0.5v-29.75
					c0-0.33-0.17-0.5-0.5-0.5c-0.33,0-0.5,0.5-0.5,0.5V222C2297.34,222.33,2297.51,222.5,2297.84,222.5z"/>
				<path style="fill-rule:evenodd;clip-rule:evenodd;fill-opacity:0.2;" d="M2320.41,192.58v29.25h-5.48v-29.25H2320.41z
					 M2316.09,217.18c0,0.17,0,0.33,0,0.5c-0.33,1.16,1.33,1.16,1.49,1.99c0.17-0.83,1.83-0.83,1.49-1.99c0-0.17,0-0.33,0-0.5
					s0-0.17,0-0.17c0-0.17,0-0.17,0-0.17c0-0.17,0-0.33,0-0.5c0.33-1.16-1.33-1.16-1.49-1.99c-0.17,0.83-1.83,0.83-1.49,1.99
					c0,0.17,0,0.33,0,0.5c0,0.17,0,0.17,0,0.17V217.18z M2316.09,210.53v0.17c0,0.17,0,0.33,0,0.5c-0.33,1.16,1.33,1.16,1.49,1.99
					c0.17-0.83,1.83-0.83,1.49-1.99c0-0.17,0-0.33,0-0.5s0-0.17,0-0.17v-0.17c0-0.17,0-0.33,0-0.5c0.33-1.16-1.33-1.16-1.49-1.99
					c-0.17,0.83-1.83,0.83-1.49,1.99c0,0.17,0,0.33,0,0.5V210.53z M2316.09,203.88c0,0.17,0,0.33,0,0.5
					c-0.33,1.16,1.33,1.16,1.49,1.99c0.17-0.83,1.83-0.83,1.49-1.99c0-0.17,0-0.33,0-0.5v-0.17c0-0.17,0-0.33,0-0.5
					c0.33-1.16-1.33-1.16-1.49-1.99c-0.17,0.83-1.83,0.83-1.49,1.99c0,0.17,0,0.33,0,0.5V203.88z M2316.09,197.23v0.17
					c0,0.17,0,0.33,0,0.5c-0.33,1.16,1.33,1.16,1.49,1.99c0.17-0.83,1.83-0.83,1.49-1.99c0-0.17,0-0.33,0-0.5c0-0.17,0-0.17,0-0.17
					v-0.17c0-0.17,0-0.33,0-0.5c0.33-1.16-1.33-1.16-1.49-1.99c-0.17,0.83-1.83,0.83-1.49,1.99c0,0.17,0,0.33,0,0.5V197.23z"/>
				<path style="fill-rule:evenodd;clip-rule:evenodd;fill-opacity:0.2;" d="M2305.14,192.58v29.25h-5.48v-29.25H2305.14z
					 M2300.99,217.01v0.17c0,0.17,0,0.33,0,0.5c-0.33,1.16,1.33,1.16,1.49,1.99c0.17-0.83,1.83-0.83,1.49-1.99c0-0.17,0-0.33,0-0.5
					s0-0.17,0-0.17h-0.17c0-0.17,0-0.17,0-0.17c0-0.17,0-0.33,0-0.5c0.33-1.16-1.33-1.16-1.49-1.99c-0.17,0.83-1.83,0.83-1.49,1.99
					c0,0.17,0,0.33,0,0.5c0,0.17,0,0.17,0,0.17H2300.99z M2300.83,210.53v0.17c0,0.17,0,0.33,0,0.5c-0.33,1.16,1.33,1.16,1.49,1.99
					c0.17-0.83,1.83-0.83,1.49-1.99c0-0.17,0-0.33,0-0.5s0-0.17,0-0.17v-0.17c0-0.17,0-0.33,0-0.5c0.33-1.16-1.33-1.16-1.49-1.99
					c-0.17,0.83-1.83,0.83-1.49,1.99c0,0.17,0,0.33,0,0.5V210.53z M2300.83,203.88c0,0.17,0,0.33,0,0.5
					c-0.33,1.16,1.33,1.16,1.49,1.99c0.17-0.83,1.83-0.83,1.49-1.99c0-0.17,0-0.33,0-0.5v-0.17c0-0.17,0-0.33,0-0.5
					c0.33-1.16-1.33-1.16-1.49-1.99c-0.17,0.83-1.83,0.83-1.49,1.99c0,0.17,0,0.33,0,0.5V203.88z M2300.83,197.23v0.17
					c0,0.17,0,0.33,0,0.5c-0.33,1.16,1.33,1.16,1.49,1.99c0.17-0.83,1.83-0.83,1.49-1.99c0-0.17,0-0.33,0-0.5c0-0.17,0-0.17,0-0.17
					v-0.17c0-0.17,0-0.33,0-0.5c0.33-1.16-1.33-1.16-1.49-1.99c-0.17,0.83-1.83,0.83-1.49,1.99c0,0.17,0,0.33,0,0.5V197.23z"/>
				<path style="fill-rule:evenodd;clip-rule:evenodd;fill-opacity:0.2;" d="M2322.73,191.75c0,0,2.49-8.64-8.96-12.3
					c-1.66-0.5-2.82-1-3.65-1.83c-0.83,0.66-1.99,1.33-3.65,1.83c-11.45,3.49-8.96,12.3-8.96,12.3c-0.33,0-0.83,0.17-1.16,0.17h2.16
					v-0.5c-0.17-0.33-2.16-7.81,8.3-10.97c1.33-0.33,2.32-0.83,3.32-1.5c0.83,0.5,1.99,1.16,3.32,1.5
					c10.29,3.16,8.13,10.97,8.13,10.97v0.5h2.32C2323.56,191.75,2323.06,191.75,2322.73,191.75z"/>
				<path style="fill-opacity:0.2;" d="M2310.12,177.79l-0.33,1.33c0.5,0.66,1.16,1.33,1.99,1.66c5.64,2.83,5.48,9.47,5.31,11.3
					h1.16c0.17-2.16,0.33-8.97-5.81-12.13c-1-0.5-1.66-1.16-2.16-1.83l-0.33-0.5L2310.12,177.79z"/>
				<path style="fill-opacity:0.2;" d="M2309.79,177.79l0.33,1.33c-0.5,0.66-1.16,1.33-1.99,1.66c-5.64,2.83-5.48,9.47-5.31,11.3
					h-1.16c-0.17-2.16-0.33-8.97,5.81-12.13c1-0.5,1.66-1.16,2.16-1.83l0.33-0.5L2309.79,177.79z"/>
				<path style="fill-rule:evenodd;clip-rule:evenodd;fill-opacity:0.2;" d="M2322.73,222.66c0,0,2.49,8.64-8.96,12.3
					c-1.66,0.5-2.82,1-3.65,1.83c-0.83-0.66-1.99-1.33-3.65-1.83c-11.45-3.49-8.96-12.3-8.96-12.3c-0.33,0-0.83-0.17-1.16-0.17h2.16
					v0.5c-0.17,0.33-2.16,7.81,8.3,10.97c1.33,0.33,2.32,0.83,3.32,1.5c0.83-0.5,1.99-1.16,3.32-1.5
					c10.29-3.16,8.13-10.97,8.13-10.97v-0.5h2.32C2323.56,222.66,2323.06,222.66,2322.73,222.66z"/>
				<path style="fill-opacity:0.2;" d="M2310.12,236.62l-0.33-1.33c0.5-0.67,1.16-1.16,1.99-1.66c5.64-2.83,5.48-9.47,5.31-11.3
					h1.16c0.17,2.16,0.33,8.97-5.81,12.13c-1,0.5-1.66,1.16-2.16,1.83l-0.33,0.5L2310.12,236.62z"/>
				<path style="fill-opacity:0.2;" d="M2309.79,236.62l0.33-1.33c-0.5-0.67-1.16-1.16-1.99-1.66c-5.64-2.83-5.48-9.47-5.31-11.3
					h-1.16c-0.17,2.16-0.33,8.97,5.81,12.13c1,0.5,1.66,1.16,2.16,1.83l0.33,0.5L2309.79,236.62z"/>
				<path style="fill-opacity:0.2;" d="M2313.11,214.85c0,2.99-1.33,5.65-2.99,7.81h0.83c1.66-2.33,2.82-4.99,2.82-7.81
					c0-2.83-1.16-5.48-2.82-7.64c1.66-2.16,2.82-4.65,2.82-7.65c0-2.99-1.16-5.65-2.82-7.81h-0.83c1.83,2.16,2.99,4.99,2.99,7.81
					s-1.33,5.48-2.99,7.65C2311.95,209.2,2313.11,211.86,2313.11,214.85z"/>
				<path style="fill-opacity:0.2;" d="M2310.78,214.85c0,2.99,1.33,5.65,2.99,7.81h-0.83c-1.66-2.33-2.82-4.99-2.82-7.81
					c0-2.83,1.16-5.48,2.82-7.64c-1.66-2.16-2.82-4.65-2.82-7.65c0-2.99,1.16-5.65,2.82-7.81h0.83c-1.83,2.16-2.99,4.99-2.99,7.81
					s1.33,5.48,2.99,7.65C2311.95,209.2,2310.78,211.86,2310.78,214.85z"/>
				<path style="fill-opacity:0.2;" d="M2309.12,214.85c0,2.99-1.33,5.65-2.99,7.81h0.83c1.66-2.33,2.82-4.99,2.82-7.81
					c0-2.83-1.16-5.48-2.82-7.64c1.66-2.16,2.82-4.65,2.82-7.65c0-2.99-1.16-5.65-2.82-7.81h-0.83c1.83,2.16,2.99,4.99,2.99,7.81
					s-1.33,5.48-2.99,7.65C2307.96,209.2,2309.12,211.86,2309.12,214.85z"/>
				<path style="fill-opacity:0.2;" d="M2306.8,214.85c0,2.99,1.33,5.65,2.99,7.81h-0.83c-1.66-2.33-2.82-4.99-2.82-7.81
					c0-2.83,1.16-5.48,2.82-7.64c-1.66-2.16-2.82-4.65-2.82-7.65c0-2.99,1.16-5.65,2.82-7.81h0.83c-1.83,2.16-2.99,4.99-2.99,7.81
					s1.33,5.48,2.99,7.65C2307.96,209.2,2306.8,211.86,2306.8,214.85z"/>
			</g>
		</g>
		<g>
			<defs>
				<rect id="SVGID_00000031167049204194553910000003412495477243709883_" x="2332.03" y="-104.59" width="11.62" height="279.98"/>
			</defs>
			<clipPath id="SVGID_00000036952965925711303740000009067275934263119762_">
				<use xlink:href="#SVGID_00000031167049204194553910000003412495477243709883_"  style="overflow:visible;"/>
			</clipPath>
			<g style="clip-path:url(#SVGID_00000036952965925711303740000009067275934263119762_);">
				<path style="fill-opacity:0.2;" d="M2339.16,168.18h4.49l-3.68,2.69l1.38,4.52l-3.57-2.81l-3.57,2.81l1.38-4.52l-3.57-2.69h4.37
					l1.38-4.52L2339.16,168.18z"/>
				<path style="fill-opacity:0.2;" d="M2337.97,166.3h-0.58v-269.52h0.58V166.3z"/>
			</g>
		</g>
	</g>
	<g>
		<g>
			<defs>
				<rect id="SVGID_00000150102724129895786650000001145839193769889158_" x="380.79" y="-361.34" width="25.56" height="540.21"/>
			</defs>
			<clipPath id="SVGID_00000010269820018513450740000006339354272535080862_">
				<use xlink:href="#SVGID_00000150102724129895786650000001145839193769889158_"  style="overflow:visible;"/>
			</clipPath>
			<g style="clip-path:url(#SVGID_00000010269820018513450740000006339354272535080862_);">
				<path style="fill:#ABC9AB;fill-opacity:0.2;" d="M393.64,131.6c0,0-1.33,0.3-1.77,0.74c0,0-0.74,1.18-0.74,1.77
					c0,0.59,0.3,1.33,0.74,1.77c0,0,1.18,0.74,1.77,0.74c0.59,0,1.33-0.3,1.77-0.74c0.44-0.44,0.74-1.18,0.74-1.77
					c0-0.59-0.3-1.33-0.74-1.77C395.41,132.34,394.23,131.6,393.64,131.6z M392.46,132.93c0,0,0.74-0.44,1.18-0.44
					s0.89,0.15,1.18,0.44c0,0,0.44,0.74,0.44,1.18c0,0.44-0.15,0.89-0.44,1.18c-0.3,0.3-0.74,0.44-1.18,0.44s-0.89-0.15-1.18-0.44
					c0,0-0.44-0.74-0.44-1.18C392.02,133.67,392.16,133.22,392.46,132.93z"/>
				<path style="fill:#ABC9AB;fill-opacity:0.2;" d="M393.2-361.34h0.59v493.08h-0.59V-361.34z"/>
				<path style="fill-rule:evenodd;clip-rule:evenodd;fill:#ABC9AB;fill-opacity:0.2;" d="M404.87,148h-1.92v-0.44
					c0,0,1.77-6.35-6.65-9.01c-1.03-0.3-1.92-0.74-2.66-1.33c-0.74,0.59-1.63,0.89-2.66,1.33c-8.42,2.66-6.8,8.72-6.8,9.01V148
					h-1.77c0.3,0,0.59-0.15,0.89-0.15c0,0-2.07-7.09,7.39-10.05c1.33-0.44,2.22-0.89,2.95-1.62c0.74,0.59,1.63,1.18,2.95,1.62
					c9.46,2.95,7.39,10.05,7.39,10.05C404.28,147.85,404.57,147.85,404.87,148z"/>
				<path style="fill:#ABC9AB;fill-opacity:0.2;" d="M393.49,136.32l0.3,0.44c0.44,0.59,1.03,1.03,1.63,1.48
					c5.02,2.51,4.88,8.13,4.73,9.9h-0.89c0-1.48,0.3-6.94-4.43-9.31c-0.59-0.3-1.18-0.74-1.63-1.33L393.49,136.32z"/>
				<path style="fill:#ABC9AB;fill-opacity:0.2;" d="M393.64,136.32l-0.3,0.44c-0.44,0.59-1.03,1.03-1.63,1.48
					c-5.02,2.51-4.88,8.13-4.73,9.9h0.89c0-1.48-0.3-6.94,4.43-9.31c0.59-0.3,1.18-0.74,1.63-1.33L393.64,136.32z"/>
				<path style="fill-rule:evenodd;clip-rule:evenodd;fill:#ABC9AB;fill-opacity:0.2;" d="M395.86,170.15c0,0,0.3,0,0.59,0
					c0.3,0,0.44,0.3,0.74,0.59c0.44,0.59,0.74,0.44,0.74,0.44s-0.15,0-0.44-0.59c-0.15-0.3-0.59-0.59-0.89-0.59
					c-0.3,0-0.59,0-0.59,0L395.86,170.15z"/>
				<path style="fill-rule:evenodd;clip-rule:evenodd;fill:#ABC9AB;fill-opacity:0.2;" d="M395.86,170.15c0,0,0.59-0.15,0.74-0.89
					c0.3-0.74,0-1.63,0-2.22c0-0.3,0.3-0.3,0.44-0.3c0,0,0,0.3,0,0.44s-0.3,0.15-0.3,0.15s0.15,0,0.3-0.15c0,0,0-0.44,0-0.59
					c-0.3-0.3-0.89,0-0.89,0.44c0,0.89,0.3,1.62,0.15,2.22c-0.15,0.59-0.74,0.89-0.59,0.89H395.86z"/>
				<path style="fill-rule:evenodd;clip-rule:evenodd;fill:#ABC9AB;fill-opacity:0.2;" d="M396.3,169.86c0,0,0.3,0,0.59,0
					c0.15,0,0.3-0.3,0.3-0.3s0,0-0.3,0c-0.3,0-0.44,0.3-0.44,0.3H396.3z"/>
				<path style="fill-rule:evenodd;clip-rule:evenodd;fill:#ABC9AB;fill-opacity:0.2;" d="M396.6,168.97c0,0,0.15-0.59,0.74-0.44
					c0.74,0,0.15,1.03,0.3,1.63c0,0.74,0.59,1.03,0.74,1.03c0.3,0,0.3,0,0.3,0s0,0-0.3-0.15c-0.15,0-0.44-0.3-0.59-0.89
					c0-0.3,0-0.59,0-1.03c0-0.15,0-0.44,0-0.59c-0.15,0-0.3-0.3-0.44-0.3c-0.74,0-0.89,0.59-0.74,0.59V168.97z"/>
				<path style="fill-rule:evenodd;clip-rule:evenodd;fill:#ABC9AB;fill-opacity:0.2;" d="M396.74,168.53c0,0,0.3,0,0.59,0
					s0.74-0.44,0.59-1.03c0-0.3-0.44-0.3-0.59-0.15c-0.15,0,0,0.3,0,0.3h0.15c0,0.3,0,0.59-0.3,0.74c-0.3,0.15-0.44,0.3-0.44,0.3
					V168.53z"/>
				<path style="fill-rule:evenodd;clip-rule:evenodd;fill:#ABC9AB;fill-opacity:0.2;" d="M396.74,168.82c0,0,0.15,0,0.3,0
					c0.15,0,0.3,0,0.15,0.3c0,0.15-0.3,0-0.3,0.15c0,0,0.44,0,0.44-0.15c0-0.3-0.3-0.59-0.59-0.44c-0.15,0-0.3,0.15-0.3,0.15H396.74
					z"/>
				<path style="fill-rule:evenodd;clip-rule:evenodd;fill:#ABC9AB;fill-opacity:0.2;" d="M397.63,168.38c0,0,0.3,0,0.59,0
					c0.3,0,0.3-0.15,0.3-0.15s0-0.15-0.3,0c-0.3,0-0.44,0.15-0.44,0.3L397.63,168.38z"/>
				<path style="fill-rule:evenodd;clip-rule:evenodd;fill:#ABC9AB;fill-opacity:0.2;" d="M397.78,170.45c0,0,0-0.3,0.44-0.44
					c0.3,0,0.59,0.44,0.59,0.74c0,0.44,0.3,0.74,0.44,0.74c0.15,0,0.15,0,0.15,0s-0.44,0-0.44-0.74c0-0.44-0.3-1.03-0.89-0.89
					c-0.44,0.15-0.3,0.59-0.44,0.59H397.78z"/>
				<path style="fill-rule:evenodd;clip-rule:evenodd;fill:#ABC9AB;fill-opacity:0.2;" d="M397.78,170.6c0,0,0-0.3,0.3-0.44
					c0.15-0.15,0.74-0.3,0.89-0.89c0-0.3-0.15-0.44-0.3-0.44c-0.3,0-0.3,0.15-0.3,0.3s0,0.15,0,0.15s0-0.59,0.3,0
					c0,0.3-0.44,0.44-0.74,0.74C397.63,170.3,397.78,170.6,397.78,170.6z"/>
				<path style="fill-rule:evenodd;clip-rule:evenodd;fill:#ABC9AB;fill-opacity:0.2;" d="M395.56,171.33c0,0,0.3,0,0.44,0.15
					c0.3,0,0.59,0,0.89-0.3c0.59-0.44,0.89,0,0.89,0s-0.15,0-0.74,0.3c-0.3,0.15-0.74,0.3-1.03,0.15
					C395.71,171.48,395.56,171.33,395.56,171.33z"/>
				<path style="fill-rule:evenodd;clip-rule:evenodd;fill:#ABC9AB;fill-opacity:0.2;" d="M395.56,171.33c0,0,0.44,0.44,0.3,1.18
					c0,0.74-0.74,1.48-1.03,2.07c0,0.3,0,0.44,0.3,0.44c0.15,0,0.3-0.15,0.3-0.3c0-0.3,0-0.3,0-0.3s0.15,0,0.3,0.3
					c0,0.15,0,0.44-0.3,0.59c-0.3,0-0.74-0.3-0.59-0.74c0.44-0.74,1.03-1.33,1.03-1.92s-0.3-1.03-0.15-1.18L395.56,171.33z"/>
				<path style="fill-rule:evenodd;clip-rule:evenodd;fill:#ABC9AB;fill-opacity:0.2;" d="M395.86,171.78c0,0,0.3,0,0.44,0.3
					c0.15,0,0,0.3,0,0.3s0,0-0.3,0c-0.15-0.15-0.3-0.44-0.3-0.44L395.86,171.78z"/>
				<path style="fill-rule:evenodd;clip-rule:evenodd;fill:#ABC9AB;fill-opacity:0.2;" d="M395.71,172.66c0,0,0,0.59,0.59,0.74
					c0.74,0.15,0.59-0.89,1.03-1.48c0.3-0.59,0.89-0.74,1.18-0.59c-0.3,0-0.59,0-0.89,0.59c0,0.3-0.3,0.59-0.44,0.89
					c0,0.15-0.15,0.3-0.3,0.44c-0.15,0-0.3,0-0.59,0c-0.74-0.3-0.44-0.89-0.44-0.89L395.71,172.66z"/>
				<path style="fill-rule:evenodd;clip-rule:evenodd;fill:#ABC9AB;fill-opacity:0.2;" d="M395.71,173.11c0,0,0.3,0,0.44,0.3
					c0.15,0.15,0.44,0.74,0,1.18c-0.15,0.15-0.44,0.15-0.59,0c0-0.15,0-0.3,0-0.3c0.15,0,0.15,0,0.15,0s-0.3,0.3,0,0.15
					c0.15-0.15,0-0.59,0-0.74c0-0.3-0.3-0.44-0.3-0.44L395.71,173.11z"/>
				<path style="fill-rule:evenodd;clip-rule:evenodd;fill:#ABC9AB;fill-opacity:0.2;" d="M395.86,172.96c0,0,0,0,0.3,0.15
					c0.15,0,0.3,0,0.3,0c0-0.15-0.15-0.15-0.15-0.3c0,0,0.44,0,0.3,0.44c0,0.3-0.59,0.44-0.74,0.15c0-0.15-0.15-0.3-0.15-0.3
					L395.86,172.96z"/>
				<path style="fill-rule:evenodd;clip-rule:evenodd;fill:#ABC9AB;fill-opacity:0.2;" d="M396.45,173.55c0,0,0.3,0,0.59,0.15
					c0.15,0,0.15,0.3,0.15,0.3s0,0-0.3,0c-0.15,0-0.44-0.44-0.3-0.44H396.45z"/>
				<path style="fill-rule:evenodd;clip-rule:evenodd;fill:#ABC9AB;fill-opacity:0.2;" d="M397.48,171.78c0,0,0,0.3,0.15,0.44
					c0.3,0,0.74-0.15,0.89-0.44c0.15-0.44,0.59-0.44,0.74-0.44c0.15,0,0.15,0,0.15,0s-0.3-0.15-0.74,0.44
					c-0.15,0.3-0.74,0.74-1.18,0.44c-0.3-0.3,0-0.74,0-0.59V171.78z"/>
				<path style="fill-rule:evenodd;clip-rule:evenodd;fill:#ABC9AB;fill-opacity:0.2;" d="M397.48,171.78c0,0,0,0.3,0,0.59
					s0.59,0.59,0.44,1.18c0,0.3-0.3,0.44-0.59,0.3c-0.3,0-0.15-0.3-0.15-0.3l0.15-0.15c0,0,0,0.59,0.3,0c0-0.3-0.15-0.59-0.3-1.03
					c0-0.44,0-0.59,0-0.59H397.48z"/>
				<path style="fill-rule:evenodd;clip-rule:evenodd;fill:#ABC9AB;fill-opacity:0.2;" d="M397.78,161.14c0,0,0.3,0,0.59,0
					c0.3,0,0.44,0.3,0.74,0.59c0.44,0.59,0.74,0.44,0.74,0.44s-0.15,0-0.44-0.59c-0.15-0.3-0.59-0.59-0.89-0.59
					c-0.3,0-0.59,0-0.59,0L397.78,161.14z"/>
				<path style="fill-rule:evenodd;clip-rule:evenodd;fill:#ABC9AB;fill-opacity:0.2;" d="M397.92,161.14c0,0,0.59-0.15,0.74-0.89
					c0.3-0.74,0-1.63,0-2.22c0-0.3,0.3-0.3,0.44-0.3c0,0,0,0.3,0,0.44c0,0.15-0.3,0.15-0.3,0.15s0.15,0,0.3-0.15c0,0,0-0.44,0-0.59
					c-0.3-0.3-0.89,0-0.89,0.44c0,0.89,0.44,1.63,0.15,2.22c-0.15,0.59-0.74,0.89-0.59,0.89H397.92z"/>
				<path style="fill-rule:evenodd;clip-rule:evenodd;fill:#ABC9AB;fill-opacity:0.2;" d="M398.37,160.85c0,0,0.3,0,0.59,0
					c0.15,0,0.3-0.3,0.3-0.3s0,0-0.3,0c-0.3,0-0.44,0.3-0.44,0.3H398.37z"/>
				<path style="fill-rule:evenodd;clip-rule:evenodd;fill:#ABC9AB;fill-opacity:0.2;" d="M398.66,160.11c0,0,0.15-0.59,0.74-0.44
					c0.74,0,0.15,1.03,0.3,1.63c0,0.74,0.59,1.03,0.74,1.03c0.3,0,0.3,0,0.3,0s0,0-0.3-0.15c-0.15,0-0.44-0.3-0.59-0.89
					c0-0.3,0-0.59,0-1.03c0-0.15,0-0.44,0-0.59c-0.15,0-0.3-0.3-0.44-0.3c-0.74,0-0.89,0.59-0.74,0.59V160.11z"/>
				<path style="fill-rule:evenodd;clip-rule:evenodd;fill:#ABC9AB;fill-opacity:0.2;" d="M398.81,159.66c0,0,0.3,0,0.59,0
					c0.3,0,0.74-0.44,0.59-1.03c0-0.3-0.3-0.3-0.59-0.15c-0.15,0,0,0.3,0,0.3h0.15c0,0.3,0,0.59-0.3,0.74
					c-0.3,0.15-0.44,0.3-0.44,0.3V159.66z"/>
				<path style="fill-rule:evenodd;clip-rule:evenodd;fill:#ABC9AB;fill-opacity:0.2;" d="M398.81,159.81c0,0,0.15,0,0.3,0
					s0.3,0,0.3,0.3c0,0.15-0.3,0-0.3,0.15c0,0,0.44,0,0.44-0.15c0-0.3-0.3-0.59-0.59-0.44c-0.15,0-0.3,0.15-0.3,0.15H398.81z"/>
				<path style="fill-rule:evenodd;clip-rule:evenodd;fill:#ABC9AB;fill-opacity:0.2;" d="M399.7,159.52c0,0,0.3,0,0.59,0
					c0.3,0,0.3-0.15,0.3-0.15s0-0.15-0.3,0c-0.3,0-0.44,0.15-0.44,0.3L399.7,159.52z"/>
				<path style="fill-rule:evenodd;clip-rule:evenodd;fill:#ABC9AB;fill-opacity:0.2;" d="M399.85,161.59c0,0,0-0.3,0.44-0.44
					c0.3,0,0.59,0.44,0.59,0.74c0,0.44,0.3,0.74,0.44,0.74c0.15,0,0.15,0,0.15,0s-0.44,0-0.44-0.74c0-0.44-0.3-1.03-0.89-0.89
					c-0.44,0.15-0.3,0.59-0.44,0.59H399.85z"/>
				<path style="fill-rule:evenodd;clip-rule:evenodd;fill:#ABC9AB;fill-opacity:0.2;" d="M399.85,161.59c0,0,0-0.3,0.3-0.44
					c0.15-0.15,0.74-0.3,0.89-0.89c0-0.3-0.15-0.44-0.3-0.44c-0.3,0-0.3,0.15-0.3,0.3s0,0.15,0,0.15s0-0.59,0.3,0
					c0,0.3-0.44,0.44-0.74,0.74C399.7,161.29,399.85,161.59,399.85,161.59z"/>
				<path style="fill-rule:evenodd;clip-rule:evenodd;fill:#ABC9AB;fill-opacity:0.2;" d="M397.63,162.32c0,0,0.3,0,0.44,0.15
					c0.3,0,0.59,0,0.89-0.3c0.59-0.44,0.89,0,0.89,0s-0.15,0-0.74,0.3c-0.3,0.15-0.74,0.3-1.03,0.15
					C397.78,162.47,397.63,162.32,397.63,162.32z"/>
				<path style="fill-rule:evenodd;clip-rule:evenodd;fill:#ABC9AB;fill-opacity:0.2;" d="M397.63,162.32c0,0,0.44,0.44,0.3,1.18
					c0,0.74-0.74,1.48-1.03,2.07c0,0.3,0,0.44,0.3,0.44c0.15,0,0.3-0.15,0.3-0.3c0-0.3,0-0.3,0-0.3s0.15,0,0.3,0.3
					c0,0.15,0,0.44-0.3,0.59c-0.3,0-0.74-0.3-0.59-0.74c0.44-0.74,1.03-1.33,1.03-1.92c0-0.59-0.3-1.03-0.15-1.18L397.63,162.32z"/>
				<path style="fill-rule:evenodd;clip-rule:evenodd;fill:#ABC9AB;fill-opacity:0.2;" d="M397.92,162.77c0,0,0.3,0,0.44,0.3
					c0.15,0,0,0.3,0,0.3s0,0-0.3,0c-0.15-0.15-0.3-0.44-0.3-0.44L397.92,162.77z"/>
				<path style="fill-rule:evenodd;clip-rule:evenodd;fill:#ABC9AB;fill-opacity:0.2;" d="M397.78,163.65c0,0,0,0.59,0.59,0.74
					c0.74,0.15,0.59-0.89,0.89-1.48c0.3-0.59,0.89-0.74,1.18-0.59c-0.3,0-0.59,0-0.89,0.59c0,0.3-0.3,0.59-0.44,0.89
					c0,0.15-0.15,0.3-0.3,0.44c-0.15,0-0.44,0-0.59,0c-0.74-0.3-0.59-0.89-0.44-0.89V163.65z"/>
				<path style="fill-rule:evenodd;clip-rule:evenodd;fill:#ABC9AB;fill-opacity:0.2;" d="M397.78,164.1c0,0,0.3,0,0.44,0.3
					c0.15,0.15,0.44,0.74,0,1.18c-0.15,0.15-0.44,0.15-0.59,0c0-0.15,0-0.3,0-0.3c0.15,0,0.15,0,0.15,0s-0.3,0.3,0,0.15
					c0.15-0.15,0-0.59,0-0.74c0-0.3-0.3-0.44-0.3-0.44L397.78,164.1z"/>
				<path style="fill-rule:evenodd;clip-rule:evenodd;fill:#ABC9AB;fill-opacity:0.2;" d="M397.78,163.95c0,0,0,0,0.3,0.15
					c0.15,0,0.3,0,0.3,0c0-0.15-0.15-0.15-0.15-0.3c0,0,0.44,0,0.3,0.44c0,0.3-0.59,0.44-0.74,0.15c0-0.15-0.15-0.3-0.15-0.3
					L397.78,163.95z"/>
				<path style="fill-rule:evenodd;clip-rule:evenodd;fill:#ABC9AB;fill-opacity:0.2;" d="M398.51,164.69c0,0,0.3,0,0.59,0.15
					c0.15,0,0.15,0.3,0.15,0.3s0,0-0.3,0C398.81,165.13,398.51,164.69,398.51,164.69z"/>
				<path style="fill-rule:evenodd;clip-rule:evenodd;fill:#ABC9AB;fill-opacity:0.2;" d="M399.55,162.77c0,0,0,0.3,0.15,0.59
					c0.3,0,0.74-0.15,0.89-0.44c0.15-0.44,0.59-0.44,0.74-0.44c0.15,0,0.15,0,0.15,0s-0.3-0.15-0.74,0.44
					c-0.15,0.3-0.74,0.74-1.18,0.44C399.25,163.06,399.55,162.62,399.55,162.77z"/>
				<path style="fill-rule:evenodd;clip-rule:evenodd;fill:#ABC9AB;fill-opacity:0.2;" d="M399.55,162.77c0,0,0,0.3,0,0.59
					c0,0.3,0.59,0.59,0.44,1.18c0,0.3-0.3,0.44-0.59,0.3c-0.3,0-0.15-0.3-0.15-0.44l0.15-0.15c0,0,0,0.59,0.3,0
					c0-0.3-0.15-0.59-0.3-1.03c0-0.44,0-0.59,0-0.59L399.55,162.77z"/>
				<path style="fill-rule:evenodd;clip-rule:evenodd;fill:#ABC9AB;fill-opacity:0.2;" d="M399.85,152.28c0,0,0.3,0,0.59,0
					c0.3,0,0.44,0.3,0.74,0.59c0.44,0.59,0.74,0.44,0.74,0.44s-0.15,0-0.44-0.59c-0.15-0.3-0.44-0.59-0.89-0.59
					c-0.3,0-0.59,0-0.59,0L399.85,152.28z"/>
				<path style="fill-rule:evenodd;clip-rule:evenodd;fill:#ABC9AB;fill-opacity:0.2;" d="M399.85,152.13c0,0,0.59-0.15,0.74-0.89
					c0.3-0.59,0-1.63,0-2.22c0-0.3,0.3-0.3,0.44-0.3c0,0,0,0.3,0,0.44c0,0.15-0.3,0.15-0.15,0.3c0,0,0,0,0.3-0.15c0,0,0-0.44,0-0.59
					c-0.3-0.3-0.89,0-0.89,0.44c0,0.89,0.44,1.63,0.15,2.22c-0.15,0.59-0.74,0.89-0.59,0.89V152.13z"/>
				<path style="fill-rule:evenodd;clip-rule:evenodd;fill:#ABC9AB;fill-opacity:0.2;" d="M400.44,151.98c0,0,0.3,0,0.59,0
					c0.15,0,0.3-0.15,0.3-0.15s0,0-0.3,0c-0.3,0-0.44,0.3-0.44,0.3L400.44,151.98z"/>
				<path style="fill-rule:evenodd;clip-rule:evenodd;fill:#ABC9AB;fill-opacity:0.2;" d="M400.73,151.1c0,0,0.15-0.59,0.74-0.44
					c0.74,0,0,1.03,0.3,1.63c0,0.74,0.59,1.03,0.74,1.03c0.3,0,0.3,0,0.3,0s0,0-0.3-0.15c-0.15,0-0.44-0.3-0.59-0.89
					c0-0.3,0-0.59,0-1.03c0-0.15,0-0.44,0-0.59c-0.15,0-0.3-0.3-0.44-0.3c-0.74,0-0.89,0.59-0.74,0.59V151.1z"/>
				<path style="fill-rule:evenodd;clip-rule:evenodd;fill:#ABC9AB;fill-opacity:0.2;" d="M400.73,150.65c0,0,0.3,0,0.59,0
					s0.74-0.44,0.59-1.03c0-0.3-0.44-0.3-0.59-0.15c-0.15,0,0,0.3,0,0.3h0.15c0,0.3,0,0.59-0.3,0.74c-0.3,0.15-0.44,0.3-0.44,0.3
					V150.65z"/>
				<path style="fill-rule:evenodd;clip-rule:evenodd;fill:#ABC9AB;fill-opacity:0.2;" d="M400.73,150.8c0,0,0.15,0,0.3,0
					c0.15,0,0.3,0,0.3,0.3c0,0.15-0.3,0-0.3,0.15c0,0,0.44,0,0.44-0.15c0-0.3-0.3-0.59-0.59-0.44c-0.15,0-0.3,0.15-0.3,0.15H400.73z
					"/>
				<path style="fill-rule:evenodd;clip-rule:evenodd;fill:#ABC9AB;fill-opacity:0.2;" d="M401.77,150.51c0,0,0.3,0,0.59,0
					c0.3,0,0.3-0.15,0.3-0.15s0-0.15-0.3,0c-0.3,0-0.44,0.15-0.44,0.3L401.77,150.51z"/>
				<path style="fill-rule:evenodd;clip-rule:evenodd;fill:#ABC9AB;fill-opacity:0.2;" d="M401.91,152.57c0,0,0-0.3,0.44-0.44
					c0.3,0,0.59,0.44,0.59,0.74c0,0.44,0.3,0.74,0.44,0.74s0.15,0,0.15,0s-0.44,0-0.44-0.74c0-0.44-0.3-1.03-0.89-0.89
					c-0.44,0.15-0.3,0.59-0.44,0.59H401.91z"/>
				<path style="fill-rule:evenodd;clip-rule:evenodd;fill:#ABC9AB;fill-opacity:0.2;" d="M401.92,152.57c0,0,0-0.3,0.3-0.44
					c0.15-0.15,0.74-0.3,0.89-0.89c0-0.3-0.15-0.44-0.3-0.44c-0.3,0-0.3,0.15-0.3,0.3s0,0.15,0,0.15s0-0.59,0.3,0
					c0,0.3-0.44,0.44-0.74,0.74C401.77,152.28,401.92,152.57,401.92,152.57z"/>
				<path style="fill-rule:evenodd;clip-rule:evenodd;fill:#ABC9AB;fill-opacity:0.2;" d="M399.7,153.31c0,0,0.15,0,0.44,0.15
					c0.3,0,0.59,0,0.89-0.3c0.59-0.44,0.89,0,0.89,0s-0.15,0-0.74,0.3c-0.3,0.15-0.74,0.3-1.03,0.15
					C399.85,153.46,399.7,153.31,399.7,153.31z"/>
				<path style="fill-rule:evenodd;clip-rule:evenodd;fill:#ABC9AB;fill-opacity:0.2;" d="M399.7,153.46c0,0,0.44,0.44,0.3,1.18
					c0,0.74-0.74,1.48-1.03,2.07c0,0.3,0,0.44,0.3,0.44c0.15,0,0.3-0.15,0.3-0.3c0-0.15,0-0.3,0-0.3s0.15,0,0.3,0.3
					c0,0.15,0,0.44-0.3,0.59c-0.3,0-0.74-0.3-0.59-0.74c0.44-0.74,1.03-1.33,1.03-1.92c0-0.59-0.3-1.03-0.15-1.18L399.7,153.46z"/>
				<path style="fill-rule:evenodd;clip-rule:evenodd;fill:#ABC9AB;fill-opacity:0.2;" d="M399.99,153.9c0,0,0.3,0,0.44,0.3
					c0.15,0.15,0,0.3,0,0.3s0,0-0.3,0c-0.15-0.15-0.3-0.44-0.3-0.44L399.99,153.9z"/>
				<path style="fill-rule:evenodd;clip-rule:evenodd;fill:#ABC9AB;fill-opacity:0.2;" d="M399.85,154.79c0,0,0,0.59,0.59,0.74
					c0.74,0.15,0.59-0.89,0.89-1.48c0.3-0.59,0.89-0.74,1.18-0.59c-0.3,0-0.59,0-0.89,0.59c0,0.3-0.3,0.59-0.44,0.89
					c0,0.15-0.15,0.3-0.3,0.44c-0.15,0-0.3,0-0.59,0c-0.74-0.3-0.44-0.89-0.44-0.89V154.79z"/>
				<path style="fill-rule:evenodd;clip-rule:evenodd;fill:#ABC9AB;fill-opacity:0.2;" d="M399.85,155.09c0,0,0.3,0,0.44,0.3
					c0.15,0.15,0.44,0.74,0,1.18c-0.15,0.15-0.44,0-0.59,0c0-0.15,0-0.3,0-0.3c0.15,0,0.15,0,0.15,0s-0.3,0.3,0,0.15
					c0.15-0.15,0-0.59,0-0.74c0-0.3-0.3-0.44-0.3-0.44L399.85,155.09z"/>
				<path style="fill-rule:evenodd;clip-rule:evenodd;fill:#ABC9AB;fill-opacity:0.2;" d="M399.85,154.94c0,0,0,0,0.3,0.15
					c0.15,0,0.3,0,0.3,0c0-0.15-0.15-0.15-0.15-0.3c0,0,0.44,0,0.3,0.44c0,0.3-0.59,0.44-0.74,0.15c0-0.15-0.15-0.3-0.15-0.3
					L399.85,154.94z"/>
				<path style="fill-rule:evenodd;clip-rule:evenodd;fill:#ABC9AB;fill-opacity:0.2;" d="M400.58,155.68c0,0,0.3,0,0.59,0.15
					c0.15,0,0.15,0.3,0.15,0.3s0,0-0.3,0C400.88,156.12,400.58,155.68,400.58,155.68z"/>
				<path style="fill-rule:evenodd;clip-rule:evenodd;fill:#ABC9AB;fill-opacity:0.2;" d="M401.62,153.9c0,0,0,0.3,0.15,0.44
					c0.3,0,0.74-0.15,0.89-0.44c0.15-0.44,0.59-0.59,0.74-0.44c0.15,0,0.15,0,0.15,0s-0.3-0.15-0.74,0.44
					c-0.15,0.3-0.74,0.74-1.18,0.44c-0.3-0.3,0-0.74,0-0.59V153.9z"/>
				<path style="fill-rule:evenodd;clip-rule:evenodd;fill:#ABC9AB;fill-opacity:0.2;" d="M401.62,153.76c0,0,0,0.3,0,0.59
					c0,0.3,0.59,0.59,0.44,1.18c0,0.3-0.3,0.44-0.59,0.3c-0.3,0-0.15-0.3-0.15-0.3l0.15-0.15c0,0,0,0.59,0.3,0
					c0-0.3-0.15-0.59-0.3-1.03c0-0.44,0-0.59,0-0.59H401.62z"/>
				<path style="fill-rule:evenodd;clip-rule:evenodd;fill:#ABC9AB;fill-opacity:0.2;" d="M391.28,170.15c0,0-0.3,0-0.44,0
					c-0.3,0-0.44,0.3-0.74,0.59c-0.44,0.59-0.74,0.44-0.74,0.44s0.15,0,0.44-0.59c0.15-0.3,0.59-0.59,0.89-0.59c0.3,0,0.59,0,0.59,0
					V170.15z"/>
				<path style="fill-rule:evenodd;clip-rule:evenodd;fill:#ABC9AB;fill-opacity:0.2;" d="M391.28,170.15c0,0-0.59-0.15-0.74-0.89
					c-0.3-0.74,0-1.63,0-2.22c0-0.3-0.3-0.3-0.44-0.3c0,0,0,0.3,0,0.44s0.3,0.15,0.3,0.15s-0.15,0-0.3-0.15c0,0,0-0.44,0-0.59
					c0.3-0.3,0.89,0,0.89,0.44c0,0.89-0.3,1.62-0.15,2.22c0.15,0.59,0.74,0.89,0.59,0.89H391.28z"/>
				<path style="fill-rule:evenodd;clip-rule:evenodd;fill:#ABC9AB;fill-opacity:0.2;" d="M390.84,169.86c0,0-0.3,0-0.59,0
					c-0.15,0-0.3-0.3-0.3-0.3s0,0,0.3,0c0.3,0,0.44,0.3,0.44,0.3H390.84z"/>
				<path style="fill-rule:evenodd;clip-rule:evenodd;fill:#ABC9AB;fill-opacity:0.2;" d="M390.54,168.97c0,0-0.15-0.59-0.74-0.44
					c-0.74,0,0,1.03-0.3,1.63c0,0.74-0.59,1.03-0.74,1.03c-0.3,0-0.3,0-0.3,0s0,0,0.3-0.15c0.15,0,0.44-0.3,0.59-0.89
					c0-0.3,0-0.59,0-1.03c0-0.15,0-0.44,0-0.59c0.15,0,0.3-0.3,0.44-0.3c0.74,0,0.89,0.59,0.74,0.59V168.97z"/>
				<path style="fill-rule:evenodd;clip-rule:evenodd;fill:#ABC9AB;fill-opacity:0.2;" d="M390.39,168.53c0,0-0.3,0-0.59,0
					c-0.3,0-0.74-0.44-0.59-1.03c0-0.3,0.44-0.3,0.59-0.15c0.15,0,0,0.3,0,0.3h-0.15c0,0.3,0,0.59,0.3,0.74
					c0.3,0.15,0.44,0.3,0.44,0.3V168.53z"/>
				<path style="fill-rule:evenodd;clip-rule:evenodd;fill:#ABC9AB;fill-opacity:0.2;" d="M390.39,168.82c0,0-0.15,0-0.3,0
					c-0.15,0-0.3,0-0.15,0.3c0,0.15,0.3,0,0.3,0.15c0,0-0.44,0-0.44-0.15c0-0.3,0.3-0.59,0.59-0.44c0.15,0,0.3,0.15,0.3,0.15H390.39
					z"/>
				<path style="fill-rule:evenodd;clip-rule:evenodd;fill:#ABC9AB;fill-opacity:0.2;" d="M389.51,168.38c0,0-0.3,0-0.59,0
					c-0.3,0-0.3-0.15-0.3-0.15s0-0.15,0.3,0c0.3,0,0.44,0.15,0.44,0.3L389.51,168.38z"/>
				<path style="fill-rule:evenodd;clip-rule:evenodd;fill:#ABC9AB;fill-opacity:0.2;" d="M389.36,170.45c0,0,0-0.3-0.44-0.44
					c-0.3,0-0.59,0.44-0.59,0.74c0,0.44-0.3,0.74-0.44,0.74c-0.15,0-0.15,0-0.15,0s0.44,0,0.44-0.74c0-0.44,0.3-1.03,0.89-0.89
					c0.44,0.15,0.3,0.59,0.44,0.59H389.36z"/>
				<path style="fill-rule:evenodd;clip-rule:evenodd;fill:#ABC9AB;fill-opacity:0.2;" d="M389.36,170.6c0,0,0-0.3-0.3-0.44
					c-0.15-0.15-0.74-0.3-0.89-0.89c0-0.3,0.15-0.44,0.3-0.44c0.3,0,0.3,0.15,0.3,0.3s0,0.15,0,0.15s0-0.59-0.3,0
					c0,0.3,0.44,0.44,0.74,0.74C389.51,170.3,389.36,170.6,389.36,170.6z"/>
				<path style="fill-rule:evenodd;clip-rule:evenodd;fill:#ABC9AB;fill-opacity:0.2;" d="M391.58,171.33c0,0-0.3,0-0.44,0.15
					c-0.3,0-0.59,0-0.89-0.3c-0.59-0.44-0.89,0-0.89,0s0.15,0,0.74,0.3c0.3,0.15,0.74,0.3,1.03,0.15
					C391.43,171.48,391.58,171.33,391.58,171.33z"/>
				<path style="fill-rule:evenodd;clip-rule:evenodd;fill:#ABC9AB;fill-opacity:0.2;" d="M391.57,171.33c0,0-0.44,0.44-0.3,1.18
					c0,0.74,0.74,1.48,1.03,2.07c0,0.3,0,0.44-0.3,0.44c0,0-0.3-0.15-0.3-0.3c0-0.3,0-0.3,0-0.3s-0.15,0-0.3,0.3
					c0,0.15,0,0.44,0.3,0.59c0.3,0,0.74-0.3,0.59-0.74c-0.44-0.74-1.03-1.33-1.03-1.92c0-0.59,0.3-1.04,0.15-1.18L391.57,171.33z"/>
				<path style="fill-rule:evenodd;clip-rule:evenodd;fill:#ABC9AB;fill-opacity:0.2;" d="M391.28,171.78c0,0-0.3,0-0.44,0.3
					c-0.15,0,0,0.3,0,0.3s0,0,0.3,0c0.15-0.15,0.3-0.44,0.3-0.44L391.28,171.78z"/>
				<path style="fill-rule:evenodd;clip-rule:evenodd;fill:#ABC9AB;fill-opacity:0.2;" d="M391.43,172.66c0,0,0,0.59-0.59,0.74
					c-0.74,0.15-0.59-0.89-0.89-1.48c-0.3-0.59-0.89-0.74-1.18-0.59c0.3,0,0.59,0,0.89,0.59c0,0.3,0.3,0.59,0.44,0.89
					c0,0.15,0.15,0.3,0.3,0.44c0.15,0,0.3,0,0.59,0c0.74-0.3,0.44-0.89,0.44-0.89V172.66z"/>
				<path style="fill-rule:evenodd;clip-rule:evenodd;fill:#ABC9AB;fill-opacity:0.2;" d="M391.42,173.11c0,0-0.3,0-0.44,0.3
					c-0.15,0.15-0.44,0.74,0,1.18c0.15,0.15,0.44,0.15,0.59,0c0-0.15,0-0.3,0-0.3c-0.15,0-0.15,0-0.15,0s0.3,0.3,0,0.15
					c-0.15-0.15,0-0.59,0-0.74c0-0.3,0.3-0.44,0.3-0.44L391.42,173.11z"/>
				<path style="fill-rule:evenodd;clip-rule:evenodd;fill:#ABC9AB;fill-opacity:0.2;" d="M391.28,172.96c0,0,0,0-0.3,0.15
					c-0.15,0-0.3,0-0.3,0c0-0.15,0.15-0.15,0.15-0.3c0,0-0.44,0-0.3,0.44c0,0.3,0.59,0.44,0.74,0.15c0-0.15,0.15-0.3,0.15-0.3
					L391.28,172.96z"/>
				<path style="fill-rule:evenodd;clip-rule:evenodd;fill:#ABC9AB;fill-opacity:0.2;" d="M390.69,173.55c0,0-0.3,0-0.59,0.15
					c-0.15,0-0.15,0.3-0.15,0.3s0,0,0.3,0c0.15,0,0.44-0.44,0.3-0.44H390.69z"/>
				<path style="fill-rule:evenodd;clip-rule:evenodd;fill:#ABC9AB;fill-opacity:0.2;" d="M389.65,171.78c0,0,0,0.3-0.15,0.44
					c-0.3,0-0.74-0.15-0.89-0.44c-0.15-0.44-0.59-0.44-0.74-0.44s-0.15,0-0.15,0s0.3-0.15,0.74,0.44c0.15,0.3,0.74,0.74,1.18,0.44
					c0.3-0.3,0-0.74,0-0.59V171.78z"/>
				<path style="fill-rule:evenodd;clip-rule:evenodd;fill:#ABC9AB;fill-opacity:0.2;" d="M389.65,171.78c0,0,0,0.3,0,0.59
					s-0.59,0.59-0.44,1.18c0,0.3,0.3,0.44,0.59,0.3c0.3,0,0.15-0.3,0.15-0.3l-0.15-0.15c0,0,0,0.59-0.3,0c0-0.3,0.15-0.59,0.3-1.03
					c0-0.44,0-0.59,0-0.59H389.65z"/>
				<path style="fill-rule:evenodd;clip-rule:evenodd;fill:#ABC9AB;fill-opacity:0.2;" d="M389.36,161.14c0,0-0.3,0-0.44,0
					c-0.3,0-0.44,0.3-0.74,0.59c-0.44,0.59-0.74,0.44-0.74,0.44s0.15,0,0.44-0.59c0.15-0.3,0.59-0.59,0.89-0.59c0.3,0,0.59,0,0.59,0
					V161.14z"/>
				<path style="fill-rule:evenodd;clip-rule:evenodd;fill:#ABC9AB;fill-opacity:0.2;" d="M389.21,161.14c0,0-0.59-0.15-0.74-0.89
					c-0.3-0.74,0-1.63,0-2.22c0-0.3-0.3-0.3-0.44-0.3c0,0,0,0.3,0,0.44c0,0.15,0.3,0.15,0.3,0.15s-0.15,0-0.3-0.15
					c0,0,0-0.44,0-0.59c0.3-0.3,0.89,0,0.89,0.44c0,0.89-0.44,1.63-0.15,2.22c0.15,0.59,0.74,0.89,0.59,0.89H389.21z"/>
				<path style="fill-rule:evenodd;clip-rule:evenodd;fill:#ABC9AB;fill-opacity:0.2;" d="M388.77,160.85c0,0-0.3,0-0.59,0
					c-0.15,0-0.3-0.3-0.3-0.3s0,0,0.3,0c0.3,0,0.44,0.3,0.44,0.3H388.77z"/>
				<path style="fill-rule:evenodd;clip-rule:evenodd;fill:#ABC9AB;fill-opacity:0.2;" d="M388.47,160.11c0,0-0.15-0.59-0.74-0.44
					c-0.74,0-0.15,1.03-0.3,1.63c0,0.74-0.59,1.03-0.74,1.03c-0.3,0-0.3,0-0.3,0s0,0,0.3-0.15c0.15,0,0.44-0.3,0.59-0.89
					c0-0.3,0-0.59,0-1.03c0-0.15,0-0.44,0-0.59c0.15,0,0.3-0.3,0.44-0.3c0.74,0,0.89,0.59,0.74,0.59V160.11z"/>
				<path style="fill-rule:evenodd;clip-rule:evenodd;fill:#ABC9AB;fill-opacity:0.2;" d="M388.32,159.66c0,0-0.3,0-0.59,0
					c-0.3,0-0.74-0.44-0.59-1.03c0-0.3,0.3-0.3,0.59-0.15c0.15,0,0,0.3,0,0.3h-0.15c0,0.3,0,0.59,0.3,0.74
					c0.3,0.15,0.44,0.3,0.44,0.3V159.66z"/>
				<path style="fill-rule:evenodd;clip-rule:evenodd;fill:#ABC9AB;fill-opacity:0.2;" d="M388.32,159.81c0,0,0,0-0.3,0
					c-0.15,0-0.3,0-0.3,0.3c0,0.15,0.3,0,0.3,0.15c0,0-0.44,0-0.44-0.15c0-0.3,0.3-0.59,0.59-0.44c0.15,0,0.3,0.15,0.3,0.15H388.32z
					"/>
				<path style="fill-rule:evenodd;clip-rule:evenodd;fill:#ABC9AB;fill-opacity:0.2;" d="M387.44,159.52c0,0-0.3,0-0.59,0
					c-0.3,0-0.3-0.15-0.3-0.15s0-0.15,0.3,0c0.15,0,0.44,0.15,0.44,0.3L387.44,159.52z"/>
				<path style="fill-rule:evenodd;clip-rule:evenodd;fill:#ABC9AB;fill-opacity:0.2;" d="M387.29,161.59c0,0,0-0.3-0.44-0.44
					c-0.3,0-0.59,0.44-0.59,0.74c0,0.44-0.3,0.74-0.44,0.74s-0.15,0-0.15,0s0.44,0,0.44-0.74c0-0.44,0.3-1.03,0.89-0.89
					c0.44,0.15,0.3,0.59,0.44,0.59H387.29z"/>
				<path style="fill-rule:evenodd;clip-rule:evenodd;fill:#ABC9AB;fill-opacity:0.2;" d="M387.29,161.59c0,0,0-0.3-0.3-0.44
					c-0.15-0.15-0.74-0.3-0.89-0.89c0-0.3,0.15-0.44,0.3-0.44c0.3,0,0.3,0.15,0.3,0.3s0,0.15,0,0.15s0-0.59-0.3,0
					c0,0.3,0.44,0.44,0.74,0.74S387.29,161.59,387.29,161.59z"/>
				<path style="fill-rule:evenodd;clip-rule:evenodd;fill:#ABC9AB;fill-opacity:0.2;" d="M389.51,162.32c0,0-0.3,0-0.44,0.15
					c-0.3,0-0.59,0-0.89-0.3c-0.59-0.44-0.89,0-0.89,0s0.15,0,0.74,0.3c0.3,0.15,0.74,0.3,1.03,0.15
					C389.36,162.47,389.51,162.32,389.51,162.32z"/>
				<path style="fill-rule:evenodd;clip-rule:evenodd;fill:#ABC9AB;fill-opacity:0.2;" d="M389.5,162.32c0,0-0.44,0.44-0.3,1.18
					c0,0.74,0.74,1.48,1.03,2.07c0,0.3,0,0.44-0.3,0.44c-0.15,0-0.3-0.15-0.3-0.3c0-0.3,0-0.3,0-0.3s-0.15,0-0.3,0.3
					c0,0.15,0,0.44,0.3,0.59c0.3,0,0.74-0.3,0.59-0.74c-0.44-0.74-1.03-1.33-1.03-1.92c0-0.59,0.3-1.03,0.15-1.18L389.5,162.32z"/>
				<path style="fill-rule:evenodd;clip-rule:evenodd;fill:#ABC9AB;fill-opacity:0.2;" d="M389.21,162.77c0,0-0.3,0-0.44,0.3
					c-0.15,0,0,0.3,0,0.3s0,0,0.3,0c0.15-0.15,0.3-0.44,0.3-0.44L389.21,162.77z"/>
				<path style="fill-rule:evenodd;clip-rule:evenodd;fill:#ABC9AB;fill-opacity:0.2;" d="M389.36,163.65c0,0,0,0.59-0.59,0.74
					c-0.74,0.15-0.59-0.89-0.89-1.48c-0.3-0.59-0.89-0.74-1.18-0.59c0.3,0,0.59,0,0.89,0.59c0,0.3,0.3,0.59,0.44,0.89
					c0,0.15,0.15,0.3,0.3,0.44c0.15,0,0.44,0,0.59,0c0.74-0.3,0.59-0.89,0.44-0.89V163.65z"/>
				<path style="fill-rule:evenodd;clip-rule:evenodd;fill:#ABC9AB;fill-opacity:0.2;" d="M389.36,164.1c0,0-0.3,0-0.44,0.3
					c-0.15,0.15-0.44,0.74,0,1.18c0.15,0.15,0.44,0.15,0.59,0c0-0.15,0-0.3,0-0.3c-0.15,0-0.15,0-0.15,0s0.3,0.3,0,0.15
					c-0.15-0.15,0-0.59,0-0.74c0-0.3,0.3-0.44,0.3-0.44L389.36,164.1z"/>
				<path style="fill-rule:evenodd;clip-rule:evenodd;fill:#ABC9AB;fill-opacity:0.2;" d="M389.36,163.95c0,0,0,0-0.3,0.15
					c-0.15,0-0.3,0-0.3,0c0-0.15,0.15-0.15,0.15-0.3c0,0-0.44,0-0.3,0.44c0,0.3,0.59,0.44,0.74,0.15c0-0.15,0.15-0.3,0.15-0.3
					L389.36,163.95z"/>
				<path style="fill-rule:evenodd;clip-rule:evenodd;fill:#ABC9AB;fill-opacity:0.2;" d="M388.62,164.69c0,0-0.3,0-0.59,0.15
					c-0.15,0-0.15,0.3-0.15,0.3s0,0,0.3,0C388.32,165.13,388.62,164.69,388.62,164.69z"/>
				<path style="fill-rule:evenodd;clip-rule:evenodd;fill:#ABC9AB;fill-opacity:0.2;" d="M387.58,162.77c0,0,0,0.3-0.15,0.59
					c-0.3,0-0.74-0.15-0.89-0.44c-0.15-0.44-0.59-0.44-0.74-0.44c-0.15,0-0.15,0-0.15,0s0.3-0.15,0.74,0.44
					c0.15,0.3,0.74,0.74,1.18,0.44C387.88,163.06,387.58,162.62,387.58,162.77z"/>
				<path style="fill-rule:evenodd;clip-rule:evenodd;fill:#ABC9AB;fill-opacity:0.2;" d="M387.59,162.77c0,0,0,0.3,0,0.59
					c0,0.3-0.59,0.59-0.44,1.18c0,0.3,0.3,0.44,0.59,0.3c0.3,0,0.15-0.3,0.15-0.44l-0.15-0.15c0,0,0,0.59-0.3,0
					c0-0.3,0.15-0.59,0.3-1.03c0-0.44,0-0.59,0-0.59L387.59,162.77z"/>
				<path style="fill-rule:evenodd;clip-rule:evenodd;fill:#ABC9AB;fill-opacity:0.2;" d="M387.29,152.28c0,0-0.3,0-0.59,0
					c-0.3,0-0.44,0.3-0.74,0.59c-0.44,0.59-0.74,0.44-0.74,0.44s0.15,0,0.44-0.59c0.15-0.3,0.44-0.59,0.89-0.59c0.3,0,0.59,0,0.59,0
					L387.29,152.28z"/>
				<path style="fill-rule:evenodd;clip-rule:evenodd;fill:#ABC9AB;fill-opacity:0.2;" d="M387.29,152.13c0,0-0.59-0.15-0.74-0.89
					c-0.3-0.59,0-1.63,0-2.22c0-0.3-0.3-0.3-0.44-0.3c0,0,0,0.3,0,0.44c0,0.15,0.3,0.15,0.15,0.3c0,0,0,0-0.3-0.15
					c0,0,0-0.44,0-0.59c0.3-0.3,0.89,0,0.89,0.44c0,0.89-0.44,1.63-0.15,2.22c0.15,0.59,0.74,0.89,0.59,0.89V152.13z"/>
				<path style="fill-rule:evenodd;clip-rule:evenodd;fill:#ABC9AB;fill-opacity:0.2;" d="M386.7,151.98c0,0-0.3,0-0.59,0
					c-0.15,0-0.3-0.15-0.3-0.15s0,0,0.3,0c0.3,0,0.44,0.3,0.44,0.3L386.7,151.98z"/>
				<path style="fill-rule:evenodd;clip-rule:evenodd;fill:#ABC9AB;fill-opacity:0.2;" d="M386.4,151.1c0,0-0.15-0.59-0.74-0.44
					c-0.74,0-0.15,1.03-0.3,1.63c0,0.74-0.59,1.03-0.74,1.03c-0.3,0-0.3,0-0.3,0s0,0,0.3-0.15c0.15,0,0.44-0.3,0.59-0.89
					c0-0.3,0-0.59,0-1.03c0-0.15,0-0.44,0-0.59c0.15,0,0.3-0.3,0.44-0.3c0.74,0,0.89,0.59,0.74,0.59V151.1z"/>
				<path style="fill-rule:evenodd;clip-rule:evenodd;fill:#ABC9AB;fill-opacity:0.2;" d="M386.4,150.65c0,0-0.3,0-0.59,0
					c-0.3,0-0.74-0.44-0.59-1.03c0-0.3,0.44-0.3,0.59-0.15c0.15,0,0,0.3,0,0.3h-0.15c0,0.3,0,0.59,0.3,0.74
					c0.3,0.15,0.44,0.3,0.44,0.3V150.65z"/>
				<path style="fill-rule:evenodd;clip-rule:evenodd;fill:#ABC9AB;fill-opacity:0.2;" d="M386.4,150.8c0,0-0.15,0-0.3,0
					c-0.15,0-0.3,0-0.3,0.3c0,0.15,0.3,0,0.3,0.15c0,0-0.44,0-0.44-0.15c0-0.3,0.3-0.59,0.59-0.44c0.15,0,0.3,0.15,0.3,0.15H386.4z"
					/>
				<path style="fill-rule:evenodd;clip-rule:evenodd;fill:#ABC9AB;fill-opacity:0.2;" d="M385.37,150.51c0,0-0.3,0-0.59,0
					s-0.3-0.15-0.3-0.15s0-0.15,0.3,0c0.3,0,0.44,0.15,0.44,0.3L385.37,150.51z"/>
				<path style="fill-rule:evenodd;clip-rule:evenodd;fill:#ABC9AB;fill-opacity:0.2;" d="M385.22,152.57c0,0,0-0.3-0.44-0.44
					c-0.3,0-0.59,0.44-0.59,0.74c0,0.44-0.3,0.74-0.44,0.74s-0.15,0-0.15,0s0.44,0,0.44-0.74c0-0.44,0.3-1.03,0.89-0.89
					c0.44,0.15,0.3,0.59,0.44,0.59H385.22z"/>
				<path style="fill-rule:evenodd;clip-rule:evenodd;fill:#ABC9AB;fill-opacity:0.2;" d="M385.22,152.57c0,0,0-0.3-0.3-0.44
					c-0.15-0.15-0.74-0.3-0.89-0.89c0-0.3,0.15-0.44,0.3-0.44c0.3,0,0.3,0.15,0.3,0.3s0,0.15,0,0.15s0-0.59-0.3,0
					c0,0.3,0.44,0.44,0.74,0.74C385.37,152.28,385.22,152.57,385.22,152.57z"/>
				<path style="fill-rule:evenodd;clip-rule:evenodd;fill:#ABC9AB;fill-opacity:0.2;" d="M387.44,153.31c0,0-0.15,0-0.44,0.15
					c-0.3,0-0.59,0-0.89-0.3c-0.59-0.44-0.89,0-0.89,0s0.15,0,0.74,0.3c0.3,0.15,0.74,0.3,1.03,0.15
					C387.29,153.46,387.44,153.31,387.44,153.31z"/>
				<path style="fill-rule:evenodd;clip-rule:evenodd;fill:#ABC9AB;fill-opacity:0.2;" d="M387.44,153.46c0,0-0.44,0.44-0.3,1.18
					c0,0.74,0.74,1.48,1.03,2.07c0,0.3,0,0.44-0.3,0.44c-0.15,0-0.3-0.15-0.3-0.3s0-0.3,0-0.3s-0.15,0-0.3,0.3
					c0,0.15,0,0.44,0.3,0.59c0.3,0,0.74-0.3,0.59-0.74c-0.44-0.74-1.03-1.33-1.03-1.92c0-0.59,0.3-1.03,0.15-1.18L387.44,153.46z"/>
				<path style="fill-rule:evenodd;clip-rule:evenodd;fill:#ABC9AB;fill-opacity:0.2;" d="M387.14,153.9c0,0-0.3,0-0.44,0.3
					c-0.15,0.15,0,0.3,0,0.3s0,0,0.3,0c0.15-0.15,0.3-0.44,0.3-0.44L387.14,153.9z"/>
				<path style="fill-rule:evenodd;clip-rule:evenodd;fill:#ABC9AB;fill-opacity:0.2;" d="M387.29,154.79c0,0,0,0.59-0.59,0.74
					c-0.74,0.15-0.59-0.89-1.03-1.48c-0.3-0.59-0.89-0.74-1.18-0.59c0.3,0,0.59,0,0.89,0.59c0,0.3,0.3,0.59,0.44,0.89
					c0,0.15,0.15,0.3,0.3,0.44c0.15,0,0.3,0,0.59,0c0.74-0.3,0.44-0.89,0.44-0.89L387.29,154.79z"/>
				<path style="fill-rule:evenodd;clip-rule:evenodd;fill:#ABC9AB;fill-opacity:0.2;" d="M387.29,155.09c0,0-0.3,0-0.44,0.3
					c-0.15,0.15-0.44,0.74,0,1.18c0.15,0.15,0.44,0,0.59,0c0-0.15,0-0.3,0-0.3h-0.15c0,0,0.3,0.3,0,0.15c-0.3-0.15,0-0.59,0-0.74
					c0-0.3,0.3-0.44,0.3-0.44L387.29,155.09z"/>
				<path style="fill-rule:evenodd;clip-rule:evenodd;fill:#ABC9AB;fill-opacity:0.2;" d="M387.29,154.94c0,0,0,0-0.3,0.15
					c-0.15,0-0.3,0-0.3,0c0-0.15,0.15-0.15,0.15-0.3c0,0-0.44,0-0.3,0.44c0,0.3,0.59,0.44,0.74,0.15c0-0.15,0.15-0.3,0.15-0.3
					L387.29,154.94z"/>
				<path style="fill-rule:evenodd;clip-rule:evenodd;fill:#ABC9AB;fill-opacity:0.2;" d="M386.55,155.68c0,0-0.3,0-0.59,0.15
					c-0.15,0-0.15,0.3-0.15,0.3s0,0,0.3,0C386.26,156.12,386.55,155.68,386.55,155.68z"/>
				<path style="fill-rule:evenodd;clip-rule:evenodd;fill:#ABC9AB;fill-opacity:0.2;" d="M385.52,153.9c0,0,0,0.3-0.15,0.44
					c-0.3,0-0.74-0.15-0.89-0.44c-0.15-0.44-0.59-0.59-0.74-0.44c-0.15,0-0.15,0-0.15,0s0.3-0.15,0.74,0.44
					c0.15,0.3,0.74,0.74,1.18,0.44c0.3-0.3,0-0.74,0-0.59V153.9z"/>
				<path style="fill-rule:evenodd;clip-rule:evenodd;fill:#ABC9AB;fill-opacity:0.2;" d="M385.52,153.76c0,0,0,0.3,0,0.59
					c0,0.3-0.59,0.59-0.44,1.18c0,0.3,0.3,0.44,0.59,0.3c0.3,0,0.15-0.3,0.15-0.3l-0.15-0.15c0,0,0,0.59-0.3,0
					c0-0.3,0.15-0.59,0.3-1.03c0-0.44,0-0.59,0-0.59H385.52z"/>
				<path style="fill-rule:evenodd;clip-rule:evenodd;fill:#ABC9AB;fill-opacity:0.2;" d="M387.14,174.73
					c-1.48,5.32,14.18,5.32,12.71,0H387.14z"/>
				<path style="fill:#ABC9AB;fill-opacity:0.2;" d="M381.67,148.29c0,0,1.18-0.89,1.92-0.89h19.94c0.74,0,1.48,0.3,1.92,0.89
					c0.44,0.44,0.89,1.18,0.89,1.92l-5.17,22.6c0,0.74-0.3,1.48-0.89,1.92c-0.44,0.44-1.03,0.59-1.63,0.59l-0.44,0.15h-9.9
					c0,0-1.18-0.44-1.63-0.89c-0.44-0.44-0.89-1.18-0.89-1.92l-5.17-22.6c0-0.74,0.3-1.48,0.89-1.92L381.67,148.29z M395.12,172.81
					c0,0,0.15,0.74,0.44,1.03c0.3,0.3,0.59,0.44,1.03,0.44h1.92c0,0,0.74-0.15,1.03-0.44c0.3-0.3,0.44-0.59,0.44-1.03l5.17-22.6
					c0,0-0.15-0.74-0.44-1.03c-0.3-0.3-0.59-0.44-1.03-0.44h-5.32c0,0,0.59,0.89,0.59,1.33l-4.43,19.35l0.74,3.1L395.12,172.81z
					 M393.05,174.14h1.18c0,0-0.59-0.89-0.59-1.33C393.64,173.4,393.35,173.7,393.05,174.14z M393.64,159.52
					c0.3-1.48,3.1-1.33,2.51-3.4c0-0.3-0.15-0.59,0-0.89c0-0.15,0-0.3,0-0.44v0.15v-0.3c0,0,0,0,0,0.15c0,0,0-0.15,0-0.44
					c-0.15-0.3,0-0.59,0-0.89c0.59-1.92-2.22-1.92-2.51-3.4c-0.3,1.48-3.1,1.33-2.51,3.4c0,0.3,0.15,0.59,0,0.89
					c0,0.15,0,0.3,0,0.44v-0.15v0.3c0,0,0,0,0-0.15c0,0,0,0.15,0,0.44c0.15,0.3,0,0.59,0,0.89
					C390.54,158.04,393.35,158.04,393.64,159.52z M387.44,172.66c0,0,0.15,0.74,0.44,1.03c0.3,0.3,0.59,0.44,1.03,0.44h1.92
					c0,0,0.74-0.15,1.03-0.44c0.3-0.3,0.44-0.59,0.44-1.03l0.74-3.1l-4.43-19.35c0,0,0.3-0.89,0.59-1.33h-5.32
					c0,0-0.74,0.15-1.03,0.44c-0.3,0.3-0.44,0.59-0.44,1.03l5.17,22.6L387.44,172.66z"/>
				<path style="fill:#ABC9AB;fill-opacity:0.2;" d="M394.97,173.7l5.76-25.11h-0.3l-5.76,25.11H394.97z"/>
				<path style="fill:#ABC9AB;fill-opacity:0.2;" d="M392.16,173.7l-5.76-25.11h0.3l5.76,25.11H392.16z"/>
			</g>
		</g>
		<g>
			<defs>
				<rect id="SVGID_00000156589738464180422200000015576502146756624535_" x="349.42" y="-357.85" width="27.88" height="594.81"/>
			</defs>
			<clipPath id="SVGID_00000140009754334424796170000007751225993677632951_">
				<use xlink:href="#SVGID_00000156589738464180422200000015576502146756624535_"  style="overflow:visible;"/>
			</clipPath>
			<g style="clip-path:url(#SVGID_00000140009754334424796170000007751225993677632951_);">
				<path style="fill-rule:evenodd;clip-rule:evenodd;fill:#ABC9AB;fill-opacity:0.2;" d="M365.69,176.79c0,1.33-1,2.33-2.32,2.33
					c-1.33,0-2.32-1-2.32-2.33c0-1.33,1-2.33,2.32-2.33C364.69,174.47,365.69,175.46,365.69,176.79z"/>
				<path style="fill-rule:evenodd;clip-rule:evenodd;fill:#ABC9AB;fill-opacity:0.2;" d="M364.86,173.3c0,0.83-0.66,1.66-1.66,1.66
					c-1,0-1.66-0.66-1.66-1.66c0-1,0.66-1.66,1.66-1.66C364.19,171.64,364.86,172.31,364.86,173.3z"/>
				<path style="fill:#ABC9AB;fill-opacity:0.2;" d="M363-357.85h0.7v525.01H363V-357.85z"/>
				<path style="fill:#ABC9AB;fill-opacity:0.2;" d="M363.36,166.99c0,0-1.49,0.33-1.99,0.83c0,0-0.83,1.16-0.83,1.99
					c0,0.83,0.33,1.5,0.83,1.99c0.5,0.5,1.16,0.83,1.99,0.83c0.83,0,1.49-0.33,1.99-0.83c0,0,0.83-1.16,0.83-1.99
					c0-0.83-0.33-1.5-0.83-1.99C365.35,167.82,364.19,166.99,363.36,166.99z M364.69,168.48c0,0,0.5,0.83,0.5,1.33
					c0,0.5-0.17,1-0.5,1.33c0,0-0.83,0.5-1.33,0.5c-0.5,0-1-0.17-1.33-0.5s-0.5-0.83-0.5-1.33c0-0.5,0.17-1,0.5-1.33
					c0,0,0.83-0.5,1.33-0.5C363.86,167.98,364.36,168.15,364.69,168.48z"/>
				<path style="fill-rule:evenodd;clip-rule:evenodd;fill:#ABC9AB;fill-opacity:0.2;" d="M375.81,190.59h-25.06
					c0,0-1.49,0.66-1.49,1.5c0,0.83,0.66,1.5,1.49,1.5h25.06c0,0,1.49-0.66,1.49-1.5C377.3,191.25,376.64,190.59,375.81,190.59z"/>
				<path style="fill-rule:evenodd;clip-rule:evenodd;fill:#ABC9AB;fill-opacity:0.2;" d="M375.81,223.83h-25.06
					c0,0-1.49-0.66-1.49-1.5c0-0.83,0.66-1.5,1.49-1.5h25.06c0,0,1.49,0.66,1.49,1.5C377.3,223.16,376.64,223.83,375.81,223.83z"/>
				<path style="fill-rule:evenodd;clip-rule:evenodd;fill:#ABC9AB;fill-opacity:0.2;" d="M351.74,222v-29.75c0,0-0.17-0.5-0.5-0.5
					s-0.5,0.17-0.5,0.5V222c0,0,0.17,0.5,0.5,0.5S351.74,222.33,351.74,222z"/>
				<path style="fill-rule:evenodd;clip-rule:evenodd;fill:#ABC9AB;fill-opacity:0.2;" d="M375.98,222v-29.75c0,0-0.17-0.5-0.5-0.5
					c-0.33,0-0.5,0.17-0.5,0.5V222c0,0,0.17,0.5,0.5,0.5C375.81,222.5,375.98,222.33,375.98,222z"/>
				<path style="fill-rule:evenodd;clip-rule:evenodd;fill:#ABC9AB;fill-opacity:0.2;" d="M358.38,192.58v29.25h-5.48v-29.25H358.38
					z M357.22,217.01c0,0,0,0,0-0.17c0-0.17,0-0.33,0-0.5c0.33-1.16-1.33-1.16-1.49-1.99c-0.17,0.83-1.83,0.83-1.49,1.99
					c0,0.17,0,0.33,0,0.5c0,0,0,0,0,0.17c0,0,0,0,0,0.17s0,0.33,0,0.5c-0.33,1.16,1.33,1.16,1.49,1.99
					c0.17-0.83,1.83-0.83,1.49-1.99c0-0.17,0-0.33,0-0.5V217.01z M357.22,210.36c0-0.17,0-0.33,0-0.5c0.33-1.16-1.33-1.16-1.49-1.99
					c-0.17,0.83-1.83,0.83-1.49,1.99c0,0.17,0,0.33,0,0.5v0.17c0,0,0,0,0,0.17s0,0.33,0,0.5c-0.33,1.16,1.33,1.16,1.49,1.99
					c0.17-0.83,1.83-0.83,1.49-1.99c0-0.17,0-0.33,0-0.5v-0.17V210.36z M357.22,203.72c0-0.17,0-0.33,0-0.5
					c0.33-1.16-1.33-1.16-1.49-1.99c-0.17,0.83-1.83,0.83-1.49,1.99c0,0.17,0,0.33,0,0.5v0.17c0,0.17,0,0.33,0,0.5
					c-0.33,1.16,1.33,1.16,1.49,1.99c0.17-0.83,1.83-0.83,1.49-1.99c0-0.17,0-0.33,0-0.5V203.72z M357.22,197.07
					c0-0.17,0-0.33,0-0.5c0.33-1.16-1.33-1.16-1.49-1.99c-0.17,0.83-1.83,0.83-1.49,1.99c0,0.17,0,0.33,0,0.5v0.17c0,0,0,0,0,0.17
					c0,0.17,0,0.33,0,0.5c-0.33,1.16,1.33,1.16,1.49,1.99c0.17-0.83,1.83-0.83,1.49-1.99c0-0.17,0-0.33,0-0.5v-0.17V197.07z"/>
				<path style="fill-rule:evenodd;clip-rule:evenodd;fill:#ABC9AB;fill-opacity:0.2;" d="M373.65,192.58v29.25h-5.48v-29.25H373.65
					z M372.49,217.01c0,0,0,0,0-0.17c0-0.17,0-0.33,0-0.5c0.33-1.16-1.33-1.16-1.49-1.99c-0.17,0.83-1.83,0.83-1.49,1.99
					c0,0.17,0,0.33,0,0.5c0,0,0,0,0,0.17h-0.17c0,0,0,0,0,0.17s0,0.33,0,0.5c-0.33,1.16,1.33,1.16,1.49,1.99
					c0.17-0.83,1.83-0.83,1.49-1.99c0-0.17,0-0.33,0-0.5v-0.17H372.49z M372.49,210.36c0-0.17,0-0.33,0-0.5
					c0.33-1.16-1.33-1.16-1.49-1.99c-0.17,0.83-1.83,0.83-1.49,1.99c0,0.17,0,0.33,0,0.5v0.17c0,0,0,0,0,0.17s0,0.33,0,0.5
					c-0.33,1.16,1.33,1.16,1.49,1.99c0.17-0.83,1.83-0.83,1.49-1.99c0-0.17,0-0.33,0-0.5v-0.17V210.36z M372.49,203.72
					c0-0.17,0-0.33,0-0.5c0.33-1.16-1.33-1.16-1.49-1.99c-0.17,0.83-1.83,0.83-1.49,1.99c0,0.17,0,0.33,0,0.5v0.17
					c0,0.17,0,0.33,0,0.5c-0.33,1.16,1.33,1.16,1.49,1.99c0.17-0.83,1.83-0.83,1.49-1.99c0-0.17,0-0.33,0-0.5V203.72z
					 M372.49,197.07c0-0.17,0-0.33,0-0.5c0.33-1.16-1.33-1.16-1.49-1.99c-0.17,0.83-1.83,0.83-1.49,1.99c0,0.17,0,0.33,0,0.5v0.17
					c0,0,0,0,0,0.17c0,0.17,0,0.33,0,0.5c-0.33,1.16,1.33,1.16,1.49,1.99c0.17-0.83,1.83-0.83,1.49-1.99c0-0.17,0-0.33,0-0.5v-0.17
					V197.07z"/>
				<path style="fill-rule:evenodd;clip-rule:evenodd;fill:#ABC9AB;fill-opacity:0.2;" d="M349.42,191.92h2.32v-0.5
					c0,0-2.16-7.81,8.13-10.97c1.33-0.33,2.49-1,3.32-1.5c1,0.66,1.99,1.16,3.32,1.5c10.46,3.16,8.46,10.64,8.3,10.97v0.5h2.16
					c-0.33,0-0.83-0.17-1.16-0.17c0,0,2.49-8.81-8.96-12.3c-1.66-0.5-2.82-1.16-3.65-1.83c-0.83,0.83-1.99,1.33-3.65,1.83
					c-11.45,3.66-8.96,12.3-8.96,12.3C350.25,191.75,349.75,191.75,349.42,191.92z"/>
				<path style="fill:#ABC9AB;fill-opacity:0.2;" d="M363.36,177.62l-0.33,0.5c-0.5,0.66-1.16,1.33-2.16,1.83
					c-6.14,3.16-5.97,9.97-5.81,12.13h1.16c-0.17-1.83-0.33-8.48,5.31-11.3c0.83-0.33,1.49-1,1.99-1.66l-0.33-1.33L363.36,177.62z"
					/>
				<path style="fill:#ABC9AB;fill-opacity:0.2;" d="M363.36,177.62l0.33,0.5c0.5,0.66,1.16,1.33,2.16,1.83
					c6.14,3.16,5.97,9.97,5.81,12.13h-1.16c0.17-1.83,0.33-8.48-5.31-11.3c-0.83-0.33-1.49-1-1.99-1.66l0.33-1.33L363.36,177.62z"/>
				<path style="fill-rule:evenodd;clip-rule:evenodd;fill:#ABC9AB;fill-opacity:0.2;" d="M349.42,222.5h2.32v0.5
					c0,0-2.16,7.81,8.13,10.97c1.33,0.33,2.49,1,3.32,1.5c1-0.67,1.99-1.16,3.32-1.5c10.46-3.16,8.46-10.64,8.3-10.97v-0.5h2.16
					c-0.33,0-0.83,0.17-1.16,0.17c0,0,2.49,8.81-8.96,12.3c-1.66,0.5-2.82,1.16-3.65,1.83c-0.83-0.83-1.99-1.33-3.65-1.83
					c-11.45-3.66-8.96-12.3-8.96-12.3C350.25,222.66,349.75,222.66,349.42,222.5z"/>
				<path style="fill:#ABC9AB;fill-opacity:0.2;" d="M363.36,236.79l-0.33-0.5c-0.5-0.66-1.16-1.33-2.16-1.83
					c-6.14-3.16-5.97-9.97-5.81-12.13h1.16c-0.17,1.83-0.33,8.48,5.31,11.3c0.83,0.5,1.49,1,1.99,1.66l-0.33,1.33L363.36,236.79z"/>
				<path style="fill:#ABC9AB;fill-opacity:0.2;" d="M363.36,236.79l0.33-0.5c0.5-0.66,1.16-1.33,2.16-1.83
					c6.14-3.16,5.97-9.97,5.81-12.13h-1.16c0.17,1.83,0.33,8.48-5.31,11.3c-0.83,0.5-1.49,1-1.99,1.66l0.33,1.33L363.36,236.79z"/>
				<path style="fill:#ABC9AB;fill-opacity:0.2;" d="M363.2,207.21c-1.66-2.16-2.99-4.82-2.99-7.65s1.16-5.65,2.99-7.81h-0.83
					c-1.66,2.16-2.82,4.82-2.82,7.81c0,2.99,1.16,5.48,2.82,7.65c-1.66,2.16-2.82,4.82-2.82,7.64c0,2.83,1.16,5.48,2.82,7.81h0.83
					c-1.66-2.16-2.99-4.82-2.99-7.81C360.21,211.86,361.37,209.2,363.2,207.21z"/>
				<path style="fill:#ABC9AB;fill-opacity:0.2;" d="M359.55,207.21c1.66-2.16,2.99-4.82,2.99-7.65s-1.16-5.65-2.99-7.81h0.83
					c1.66,2.16,2.82,4.82,2.82,7.81c0,2.99-1.16,5.48-2.82,7.65c1.66,2.16,2.82,4.82,2.82,7.64c0,2.83-1.16,5.48-2.82,7.81h-0.83
					c1.66-2.16,2.99-4.82,2.99-7.81C362.53,211.86,361.37,209.2,359.55,207.21z"/>
				<path style="fill:#ABC9AB;fill-opacity:0.2;" d="M367.18,207.21c-1.66-2.16-2.99-4.82-2.99-7.65s1.16-5.65,2.99-7.81h-0.83
					c-1.66,2.16-2.82,4.82-2.82,7.81c0,2.99,1.16,5.48,2.82,7.65c-1.66,2.16-2.82,4.82-2.82,7.64c0,2.83,1.16,5.48,2.82,7.81h0.83
					c-1.66-2.16-2.99-4.82-2.99-7.81C364.19,211.86,365.35,209.2,367.18,207.21z"/>
				<path style="fill:#ABC9AB;fill-opacity:0.2;" d="M363.53,207.21c1.66-2.16,2.99-4.82,2.99-7.65s-1.16-5.65-2.99-7.81h0.83
					c1.66,2.16,2.82,4.82,2.82,7.81c0,2.99-1.16,5.48-2.82,7.65c1.66,2.16,2.82,4.82,2.82,7.64c0,2.83-1.16,5.48-2.82,7.81h-0.83
					c1.66-2.16,2.99-4.82,2.99-7.81C366.51,211.86,365.35,209.2,363.53,207.21z"/>
			</g>
		</g>
		<g>
			<defs>
				<rect id="SVGID_00000067928702095839332330000008128439030047998623_" x="329.67" y="-104.59" width="11.62" height="279.98"/>
			</defs>
			<clipPath id="SVGID_00000066498921601119698180000012658745406167560615_">
				<use xlink:href="#SVGID_00000067928702095839332330000008128439030047998623_"  style="overflow:visible;"/>
			</clipPath>
			<g style="clip-path:url(#SVGID_00000066498921601119698180000012658745406167560615_);">
				<path style="fill:#ABC9AB;fill-opacity:0.2;" d="M335.54,163.66l1.38,4.52h4.37l-3.57,2.69l1.38,4.52l-3.57-2.81l-3.57,2.81
					l1.38-4.52l-3.68-2.69h4.49L335.54,163.66z"/>
				<path style="fill:#ABC9AB;fill-opacity:0.2;" d="M335.35-103.22h0.58V166.3h-0.58V-103.22z"/>
			</g>
		</g>
	</g>
</g>
</svg>
